SplineFontDB: 3.0
FontName: Distinguish-Black
FullName: Distinguish Black
FamilyName: Distinguish
Weight: Black
Copyright: Copyright 2015 Google Inc. All Rights Reserved.
Version: 2.000;GOOG;noto-source:20170915:90ef993387c0; ttfautohint (v1.7)
ItalicAngle: 0
UnderlinePosition: -125
UnderlineWidth: 50
Ascent: 800
Descent: 200
InvalidEm: 0
sfntRevision: 0x00020000
LayerCount: 2
Layer: 0 1 "Back" 1
Layer: 1 1 "Fore" 0
XUID: [1021 269 1684064080 2054313]
StyleMap: 0x0000
FSType: 0
OS2Version: 4
OS2_WeightWidthSlopeOnly: 1
OS2_UseTypoMetrics: 0
CreationTime: 1458096639
ModificationTime: 1516678346
PfmFamily: 17
TTFWeight: 900
TTFWidth: 5
LineGap: 0
VLineGap: 0
Panose: 2 11 10 2 4 5 4 2 2 4
OS2TypoAscent: 1069
OS2TypoAOffset: 0
OS2TypoDescent: -293
OS2TypoDOffset: 0
OS2TypoLinegap: 0
OS2WinAscent: 1069
OS2WinAOffset: 0
OS2WinDescent: 293
OS2WinDOffset: 0
HheadAscent: 1069
HheadAOffset: 0
HheadDescent: -293
HheadDOffset: 0
OS2SubXSize: 650
OS2SubYSize: 600
OS2SubXOff: 0
OS2SubYOff: 75
OS2SupXSize: 650
OS2SupYSize: 600
OS2SupXOff: 0
OS2SupYOff: 350
OS2StrikeYSize: 50
OS2StrikeYPos: 322
OS2CapHeight: 714
OS2XHeight: 536
OS2Vendor: 'GOOG'
OS2CodePages: 00000000.00000000
OS2UnicodeRanges: e00002ff.4000001f.08000029.00100000
Lookup: 1 0 0 "'aalt' Access All Alternates lookup 0" { "'aalt' Access All Alternates lookup 0 subtable"  } ['aalt' ('DFLT' <'dflt' > 'cyrl' <'dflt' > 'grek' <'dflt' > 'latn' <'CAT ' 'MAH ' 'MOL ' 'NAV ' 'ROM ' 'dflt' > ) ]
Lookup: 3 0 0 "'aalt' Access All Alternates lookup 1" { "'aalt' Access All Alternates lookup 1 subtable"  } ['aalt' ('DFLT' <'dflt' > 'cyrl' <'dflt' > 'grek' <'dflt' > 'latn' <'CAT ' 'MAH ' 'MOL ' 'NAV ' 'ROM ' 'dflt' > ) ]
Lookup: 4 0 0 "'ccmp' Glyph Composition/Decomposition lookup 2" { "'ccmp' Glyph Composition/Decomposition lookup 2 subtable"  } ['ccmp' ('DFLT' <'dflt' > 'cyrl' <'dflt' > 'grek' <'dflt' > 'latn' <'CAT ' 'MAH ' 'MOL ' 'NAV ' 'ROM ' 'dflt' > ) ]

StartChar: .notdef
Encoding: 65536 -1 0
Width: 582
Flags: W
LayerCount: 2
Fore
SplineSet
85 0 m 1,0,-1
 85 714 l 1,1,-1
 496 714 l 1,2,-1
 496 0 l 1,3,-1
 85 0 l 1,0,-1
136 51 m 1,4,-1
 445 51 l 1,5,-1
 445 663 l 1,6,-1
 136 663 l 1,7,-1
 136 51 l 1,4,-1
EndSplineSet
EndChar

StartChar: exclam
Encoding: 33 33 4
Width: 290
Flags: W
LayerCount: 2
Fore
SplineSet
226 252 m 1,0,-1
 65 252 l 1,1,-1
 40 714 l 1,2,-1
 251 714 l 1,3,-1
 226 252 l 1,0,-1
42 81 m 0,4,5
 42 133 42 133 72.5 154 c 128,-1,6
 103 175 103 175 145 175 c 0,7,8
 186 175 186 175 216 154 c 128,-1,9
 246 133 246 133 246 81 c 0,10,11
 246 32 246 32 216 10 c 128,-1,12
 186 -12 186 -12 145 -12 c 0,13,14
 103 -12 103 -12 72.5 10 c 128,-1,15
 42 32 42 32 42 81 c 0,4,5
EndSplineSet
Substitution2: "'smcp' Lowercase to Small Capitals lookup 34 subtable" exclam.sc
Substitution2: "'c2sc' Capitals to Small Capitals lookup 33 subtable" exclam.sc
EndChar

StartChar: quotedbl
Encoding: 34 34 5
Width: 524
Flags: W
LayerCount: 2
Fore
SplineSet
233 714 m 1,0,-1
 213 456 l 1,1,-1
 79 456 l 1,2,-1
 59 714 l 1,3,-1
 233 714 l 1,0,-1
465 714 m 1,4,-1
 445 456 l 1,5,-1
 311 456 l 1,6,-1
 291 714 l 1,7,-1
 465 714 l 1,4,-1
EndSplineSet
EndChar

StartChar: numbersign
Encoding: 35 35 6
Width: 662
Flags: W
LayerCount: 2
Fore
SplineSet
509 397 m 1,0,-1
 494 315 l 1,1,-1
 613 315 l 1,2,-1
 613 191 l 1,3,-1
 471 191 l 1,4,-1
 435 0 l 1,5,-1
 304 0 l 1,6,-1
 340 191 l 1,7,-1
 258 191 l 1,8,-1
 223 0 l 1,9,-1
 93 0 l 1,10,-1
 128 191 l 1,11,-1
 18 191 l 1,12,-1
 18 315 l 1,13,-1
 152 315 l 1,14,-1
 167 397 l 1,15,-1
 51 397 l 1,16,-1
 51 524 l 1,17,-1
 191 524 l 1,18,-1
 226 714 l 1,19,-1
 357 714 l 1,20,-1
 321 524 l 1,21,-1
 402 524 l 1,22,-1
 437 714 l 1,23,-1
 568 714 l 1,24,-1
 532 524 l 1,25,-1
 644 524 l 1,26,-1
 644 397 l 1,27,-1
 509 397 l 1,0,-1
282 315 m 1,28,-1
 363 315 l 1,29,-1
 378 397 l 1,30,-1
 297 397 l 1,31,-1
 282 315 l 1,28,-1
EndSplineSet
EndChar

StartChar: dollar
Encoding: 36 36 7
Width: 577
Flags: W
LayerCount: 2
Fore
SplineSet
242 -58 m 1,0,-1
 242 22 l 1,1,2
 178 24 178 24 131 34.5 c 128,-1,3
 84 45 84 45 42 63 c 1,4,-1
 42 216 l 1,5,6
 89 195 89 195 142.5 182.5 c 128,-1,7
 196 170 196 170 242 166 c 1,8,-1
 242 289 l 1,9,10
 180 307 180 307 131 332 c 128,-1,11
 82 357 82 357 54 397.5 c 128,-1,12
 26 438 26 438 26 502 c 0,13,14
 26 593 26 593 85 638.5 c 128,-1,15
 144 684 144 684 242 691 c 1,16,-1
 242 760 l 1,17,-1
 334 760 l 1,18,-1
 334 692 l 1,19,20
 395 689 395 689 444.5 675.5 c 128,-1,21
 494 662 494 662 535 646 c 1,22,-1
 492 512 l 1,23,24
 455 528 455 528 414.5 537.5 c 128,-1,25
 374 547 374 547 334 551 c 1,26,-1
 334 430 l 1,27,28
 404 409 404 409 453 385.5 c 128,-1,29
 502 362 502 362 528 325.5 c 128,-1,30
 554 289 554 289 554 230 c 0,31,32
 554 149 554 149 501 92.5 c 128,-1,33
 448 36 448 36 334 24 c 1,34,-1
 334 -58 l 1,35,-1
 242 -58 l 1,0,-1
242 457 m 1,36,-1
 242 550 l 1,37,38
 187 545 187 545 187 509 c 0,39,40
 187 490 187 490 199.5 478.5 c 128,-1,41
 212 467 212 467 242 457 c 1,36,-1
334 168 m 1,42,43
 391 177 391 177 391 214 c 0,44,45
 391 233 391 233 379 244.5 c 128,-1,46
 367 256 367 256 334 266 c 1,47,-1
 334 168 l 1,42,43
EndSplineSet
EndChar

StartChar: percent
Encoding: 37 37 8
Width: 948
Flags: W
LayerCount: 2
Fore
SplineSet
200 724 m 0,0,1
 284 724 284 724 335 665.5 c 128,-1,2
 386 607 386 607 386 501 c 256,3,4
 386 395 386 395 338.5 335.5 c 128,-1,5
 291 276 291 276 200 276 c 0,6,7
 118 276 118 276 68 335.5 c 128,-1,8
 18 395 18 395 18 501 c 256,9,10
 18 607 18 607 65 665.5 c 128,-1,11
 112 724 112 724 200 724 c 0,0,1
742 714 m 1,12,-1
 346 0 l 1,13,-1
 201 0 l 1,14,-1
 597 714 l 1,15,-1
 742 714 l 1,12,-1
202 605 m 256,16,17
 181 605 181 605 173 576.5 c 128,-1,18
 165 548 165 548 165 499 c 0,19,20
 165 451 165 451 173 422 c 128,-1,21
 181 393 181 393 202 393 c 256,22,23
 223 393 223 393 231 421.5 c 128,-1,24
 239 450 239 450 239 499 c 256,25,26
 239 548 239 548 231 576.5 c 128,-1,27
 223 605 223 605 202 605 c 256,16,17
743 440 m 0,28,29
 827 440 827 440 878 381.5 c 128,-1,30
 929 323 929 323 929 217 c 256,31,32
 929 111 929 111 881.5 51.5 c 128,-1,33
 834 -8 834 -8 743 -8 c 0,34,35
 661 -8 661 -8 611 51.5 c 128,-1,36
 561 111 561 111 561 217 c 256,37,38
 561 323 561 323 608 381.5 c 128,-1,39
 655 440 655 440 743 440 c 0,28,29
745 321 m 256,40,41
 724 321 724 321 716 292.5 c 128,-1,42
 708 264 708 264 708 215 c 0,43,44
 708 167 708 167 716 138 c 128,-1,45
 724 109 724 109 745 109 c 256,46,47
 766 109 766 109 774 137.5 c 128,-1,48
 782 166 782 166 782 215 c 0,49,50
 782 265 782 265 774 293 c 128,-1,51
 766 321 766 321 745 321 c 256,40,41
EndSplineSet
EndChar

StartChar: ampersand
Encoding: 38 38 9
Width: 799
Flags: W
LayerCount: 2
Fore
SplineSet
330 723 m 0,0,1
 431 723 431 723 489.5 678 c 128,-1,2
 548 633 548 633 548 553 c 0,3,4
 548 491 548 491 512 445.5 c 128,-1,5
 476 400 476 400 419 366 c 1,6,-1
 516 274 l 1,7,8
 552 329 552 329 567 401 c 1,9,-1
 765 401 l 1,10,11
 749 328 749 328 717 261 c 128,-1,12
 685 194 685 194 648 150 c 1,13,-1
 804 0 l 1,14,-1
 557 0 l 1,15,-1
 509 50 l 1,16,17
 482 33 482 33 455.5 19.5 c 128,-1,18
 429 6 429 6 391.5 -2 c 128,-1,19
 354 -10 354 -10 294 -10 c 0,20,21
 210 -10 210 -10 152.5 18 c 128,-1,22
 95 46 95 46 65 93 c 128,-1,23
 35 140 35 140 35 198 c 0,24,25
 35 262 35 262 69.5 311.5 c 128,-1,26
 104 361 104 361 168 394 c 1,27,28
 138 428 138 428 121 466.5 c 128,-1,29
 104 505 104 505 104 553 c 0,30,31
 104 627 104 627 161.5 675 c 128,-1,32
 219 723 219 723 330 723 c 0,0,1
327 598 m 0,33,34
 307 598 307 598 291.5 586 c 128,-1,35
 276 574 276 574 276 547 c 0,36,37
 276 525 276 525 289 506 c 128,-1,38
 302 487 302 487 319 471 c 1,39,40
 347 487 347 487 361.5 508.5 c 128,-1,41
 376 530 376 530 376 553 c 0,42,43
 376 577 376 577 362 587.5 c 128,-1,44
 348 598 348 598 327 598 c 0,33,34
272 289 m 1,45,46
 251 273 251 273 241.5 253.5 c 128,-1,47
 232 234 232 234 232 212 c 0,48,49
 232 181 232 181 254 161.5 c 128,-1,50
 276 142 276 142 312 142 c 0,51,52
 340 142 340 142 361 149.5 c 128,-1,53
 382 157 382 157 393 166 c 1,54,-1
 272 289 l 1,45,46
EndSplineSet
Substitution2: "'smcp' Lowercase to Small Capitals lookup 34 subtable" ampersand.sc
Substitution2: "'c2sc' Capitals to Small Capitals lookup 33 subtable" ampersand.sc
EndChar

StartChar: quotesingle
Encoding: 39 39 10
Width: 292
Flags: W
LayerCount: 2
Fore
SplineSet
233 714 m 1,0,-1
 213 456 l 1,1,-1
 79 456 l 1,2,-1
 59 714 l 1,3,-1
 233 714 l 1,0,-1
EndSplineSet
EndChar

StartChar: parenleft
Encoding: 40 40 11
Width: 359
Flags: W
LayerCount: 2
Fore
SplineSet
36 284 m 0,0,1
 36 366 36 366 49 446 c 128,-1,2
 62 526 62 526 92.5 600 c 128,-1,3
 123 674 123 674 173 734 c 1,4,-1
 332 734 l 1,5,6
 264 640 264 640 234 522 c 128,-1,7
 204 404 204 404 204 285 c 0,8,9
 204 208 204 208 217 129 c 128,-1,10
 230 50 230 50 258 -23.5 c 128,-1,11
 286 -97 286 -97 331 -158 c 1,12,-1
 173 -158 l 1,13,14
 123 -100 123 -100 92.5 -27.5 c 128,-1,15
 62 45 62 45 49 124.5 c 128,-1,16
 36 204 36 204 36 284 c 0,0,1
EndSplineSet
Substitution2: "'smcp' Lowercase to Small Capitals lookup 34 subtable" parenleft.sc
Substitution2: "'c2sc' Capitals to Small Capitals lookup 33 subtable" parenleft.sc
Substitution2: "'sups' Superscript lookup 19 subtable" uni207D
Substitution2: "'subs' Subscript lookup 18 subtable" uni208D
EndChar

StartChar: parenright
Encoding: 41 41 12
Width: 359
Flags: W
LayerCount: 2
Fore
SplineSet
323 284 m 0,0,1
 323 204 323 204 310 124.5 c 128,-1,2
 297 45 297 45 266.5 -27.5 c 128,-1,3
 236 -100 236 -100 186 -158 c 1,4,-1
 28 -158 l 1,5,6
 72 -97 72 -97 100.5 -23.5 c 128,-1,7
 129 50 129 50 142 129 c 128,-1,8
 155 208 155 208 155 285 c 0,9,10
 155 404 155 404 124.5 522 c 128,-1,11
 94 640 94 640 27 734 c 1,12,-1
 186 734 l 1,13,14
 236 674 236 674 266.5 600 c 128,-1,15
 297 526 297 526 310 446 c 128,-1,16
 323 366 323 366 323 284 c 0,0,1
EndSplineSet
Substitution2: "'smcp' Lowercase to Small Capitals lookup 34 subtable" parenright.sc
Substitution2: "'c2sc' Capitals to Small Capitals lookup 33 subtable" parenright.sc
Substitution2: "'sups' Superscript lookup 19 subtable" uni207E
Substitution2: "'subs' Subscript lookup 18 subtable" uni208E
EndChar

StartChar: asterisk
Encoding: 42 42 13
Width: 537
Flags: W
LayerCount: 2
Fore
SplineSet
343 760 m 1,0,-1
 324 588 l 1,1,-1
 498 637 l 1,2,-1
 516 493 l 1,3,-1
 363 483 l 1,4,-1
 464 347 l 1,5,-1
 337 280 l 1,6,-1
 267 418 l 1,7,-1
 207 281 l 1,8,-1
 74 347 l 1,9,-1
 175 483 l 1,10,-1
 22 495 l 1,11,-1
 44 637 l 1,12,-1
 214 588 l 1,13,-1
 195 760 l 1,14,-1
 343 760 l 1,0,-1
EndSplineSet
EndChar

StartChar: plus
Encoding: 43 43 14
Width: 586
Flags: W
LayerCount: 2
Fore
SplineSet
358 418 m 1,0,-1
 540 418 l 1,1,-1
 540 287 l 1,2,-1
 358 287 l 1,3,-1
 358 111 l 1,4,-1
 227 111 l 1,5,-1
 227 287 l 1,6,-1
 45 287 l 1,7,-1
 45 418 l 1,8,-1
 227 418 l 1,9,-1
 227 597 l 1,10,-1
 358 597 l 1,11,-1
 358 418 l 1,0,-1
EndSplineSet
Substitution2: "'sups' Superscript lookup 19 subtable" uni207A
Substitution2: "'subs' Subscript lookup 18 subtable" uni208A
EndChar

StartChar: comma
Encoding: 44 44 15
Width: 309
Flags: W
LayerCount: 2
Fore
SplineSet
243 146 m 1,0,-1
 250 135 l 1,1,2
 241 99 241 99 227 49 c 128,-1,3
 213 -1 213 -1 196.5 -51.5 c 128,-1,4
 180 -102 180 -102 164 -139 c 1,5,-1
 28 -139 l 1,6,7
 38 -94 38 -94 47 -43 c 128,-1,8
 56 8 56 8 64 57 c 128,-1,9
 72 106 72 106 76 146 c 1,10,-1
 243 146 l 1,0,-1
EndSplineSet
EndChar

StartChar: hyphen
Encoding: 45 45 16
Width: 318
Flags: W
LayerCount: 2
Fore
SplineSet
21 192 m 1,0,-1
 21 344 l 1,1,-1
 297 344 l 1,2,-1
 297 192 l 1,3,-1
 21 192 l 1,0,-1
EndSplineSet
EndChar

StartChar: period
Encoding: 46 46 17
Width: 289
Flags: W
LayerCount: 2
Fore
SplineSet
42 81 m 0,0,1
 42 133 42 133 72.5 154 c 128,-1,2
 103 175 103 175 146 175 c 0,3,4
 186 175 186 175 216 154 c 128,-1,5
 246 133 246 133 246 81 c 0,6,7
 246 32 246 32 216 10 c 128,-1,8
 186 -12 186 -12 146 -12 c 0,9,10
 103 -12 103 -12 72.5 10 c 128,-1,11
 42 32 42 32 42 81 c 0,0,1
EndSplineSet
EndChar

StartChar: slash
Encoding: 47 47 18
Width: 442
Flags: W
LayerCount: 2
Fore
SplineSet
440 724 m 1,0,-1
 174 -10 l 1,1,-1
 5 -10 l 1,2,-1
 271 724 l 1,3,-1
 440 724 l 1,0,-1
EndSplineSet
Substitution2: "'frac' Diagonal Fractions lookup 22 subtable" fraction
EndChar

StartChar: zero
Encoding: 48 48 19
Width: 600
Flags: W
LayerCount: 2
Fore
SplineSet
299 -10 m 4,0,1
 168 -10 168 -10 104 85 c 132,-1,2
 40 180 40 180 40 356 c 4,3,4
 40 538 40 538 100.5 631 c 132,-1,5
 161 724 161 724 299 724 c 4,6,7
 431 724 431 724 495.5 629 c 132,-1,8
 560 534 560 534 560 356 c 4,9,10
 560 248 560 248 536.5 165.5 c 132,-1,11
 513 83 513 83 456 36.5 c 132,-1,12
 399 -10 399 -10 299 -10 c 4,0,1
193 356 m 4,13,14
 193 321 193 321 195 294 c 5,15,-1
 356 559 l 5,16,17
 334 577 334 577 299 577 c 4,18,19
 238 577 238 577 215.5 521.5 c 132,-1,20
 193 466 193 466 193 356 c 4,13,14
299 138 m 4,21,22
 360 138 360 138 382.5 191 c 132,-1,23
 405 244 405 244 405 356 c 4,24,25
 405 394 405 394 403 424 c 5,26,-1
 239 158 l 5,27,28
 262 138 262 138 299 138 c 4,21,22
EndSplineSet
Substitution2: "'zero' Slashed Zero lookup 37 subtable" zero.slash
Substitution2: "'case' Case-Sensitive Forms lookup 35 subtable" zero.lf
Substitution2: "'onum' Oldstyle Figures lookup 32 subtable" zero.tosf
Substitution2: "'pnum' Proportional Numbers lookup 30 subtable" zero.lf
Substitution2: "'frac' Diagonal Fractions lookup 23 subtable" zero.numr
Substitution2: "'dnom' Denominators lookup 21 subtable" zero.dnom
Substitution2: "'numr' Numerators lookup 20 subtable" zero.numr
Substitution2: "'sups' Superscript lookup 19 subtable" uni2070
Substitution2: "'subs' Subscript lookup 18 subtable" uni2080
EndChar

StartChar: one
Encoding: 49 49 20
Width: 586
Flags: W
LayerCount: 2
Fore
SplineSet
460 0 m 1,0,-1
 264 0 l 1,1,-1
 264 353 l 2,2,3
 264 362 264 362 264 388.5 c 128,-1,4
 264 415 264 415 265 446.5 c 128,-1,5
 266 478 266 478 267 504 c 1,6,7
 254 489 254 489 243 478 c 128,-1,8
 232 467 232 467 222 458 c 2,9,-1
 141 391 l 1,10,-1
 41 514 l 1,11,-1
 286 714 l 1,12,-1
 460 714 l 1,13,-1
 460 0 l 1,0,-1
EndSplineSet
Substitution2: "'case' Case-Sensitive Forms lookup 35 subtable" one.lf
Substitution2: "'onum' Oldstyle Figures lookup 32 subtable" one.tosf
Substitution2: "'pnum' Proportional Numbers lookup 30 subtable" one.lf
Substitution2: "'frac' Diagonal Fractions lookup 23 subtable" one.numr
Substitution2: "'dnom' Denominators lookup 21 subtable" one.dnom
Substitution2: "'numr' Numerators lookup 20 subtable" one.numr
Substitution2: "'sups' Superscript lookup 19 subtable" uni00B9
Substitution2: "'subs' Subscript lookup 18 subtable" uni2081
EndChar

StartChar: two
Encoding: 50 50 21
Width: 586
Flags: W
LayerCount: 2
Fore
SplineSet
548 0 m 1,0,-1
 30 0 l 1,1,-1
 30 127 l 1,2,-1
 204 303 l 2,3,4
 258 360 258 360 288 394 c 128,-1,5
 318 428 318 428 330.5 452 c 128,-1,6
 343 476 343 476 343 502 c 0,7,8
 343 534 343 534 322.5 548 c 128,-1,9
 302 562 302 562 274 562 c 0,10,11
 240 562 240 562 206 543 c 128,-1,12
 172 524 172 524 128 486 c 1,13,-1
 22 610 l 1,14,15
 54 638 54 638 90 664.5 c 128,-1,16
 126 691 126 691 175.5 707.5 c 128,-1,17
 225 724 225 724 296 724 c 0,18,19
 368 724 368 724 421.5 698.5 c 128,-1,20
 475 673 475 673 504.5 629 c 128,-1,21
 534 585 534 585 534 529 c 0,22,23
 534 467 534 467 511.5 418.5 c 128,-1,24
 489 370 489 370 443.5 321 c 128,-1,25
 398 272 398 272 330 211 c 2,26,-1
 278 164 l 1,27,-1
 278 159 l 1,28,-1
 548 159 l 1,29,-1
 548 0 l 1,0,-1
EndSplineSet
Substitution2: "'case' Case-Sensitive Forms lookup 35 subtable" two.lf
Substitution2: "'onum' Oldstyle Figures lookup 32 subtable" two.tosf
Substitution2: "'pnum' Proportional Numbers lookup 30 subtable" two.lf
Substitution2: "'frac' Diagonal Fractions lookup 23 subtable" two.numr
Substitution2: "'dnom' Denominators lookup 21 subtable" two.dnom
Substitution2: "'numr' Numerators lookup 20 subtable" two.numr
Substitution2: "'sups' Superscript lookup 19 subtable" uni00B2
Substitution2: "'subs' Subscript lookup 18 subtable" uni2082
EndChar

StartChar: three
Encoding: 51 51 22
Width: 586
Flags: W
LayerCount: 2
Fore
SplineSet
524 559 m 0,0,1
 524 508 524 508 502 471.5 c 128,-1,2
 480 435 480 435 444 411.5 c 128,-1,3
 408 388 408 388 366 376 c 1,4,-1
 366 373 l 1,5,6
 452 362 452 362 498.5 321 c 128,-1,7
 545 280 545 280 545 204 c 0,8,9
 545 146 545 146 513.5 97 c 128,-1,10
 482 48 482 48 416 19 c 128,-1,11
 350 -10 350 -10 247 -10 c 0,12,13
 178 -10 178 -10 129 0.5 c 128,-1,14
 80 11 80 11 34 29 c 1,15,-1
 34 189 l 1,16,17
 80 165 80 165 129 153.5 c 128,-1,18
 178 142 178 142 219 142 c 0,19,20
 290 142 290 142 315.5 162 c 128,-1,21
 341 182 341 182 341 216 c 0,22,23
 341 240 341 240 328.5 257 c 128,-1,24
 316 274 316 274 283 283.5 c 128,-1,25
 250 293 250 293 189 293 c 2,26,-1
 145 293 l 1,27,-1
 145 438 l 1,28,-1
 190 438 l 2,29,30
 272 438 272 438 304.5 459 c 128,-1,31
 337 480 337 480 337 513 c 0,32,33
 337 542 337 542 315 555.5 c 128,-1,34
 293 569 293 569 257 569 c 0,35,36
 224 569 224 569 196 560 c 128,-1,37
 168 551 168 551 147 540.5 c 128,-1,38
 126 530 126 530 115 523 c 1,39,-1
 35 652 l 1,40,41
 79 682 79 682 136.5 703 c 128,-1,42
 194 724 194 724 287 724 c 0,43,44
 397 724 397 724 460.5 680 c 128,-1,45
 524 636 524 636 524 559 c 0,0,1
EndSplineSet
Substitution2: "'case' Case-Sensitive Forms lookup 35 subtable" three.lf
Substitution2: "'onum' Oldstyle Figures lookup 32 subtable" three.tosf
Substitution2: "'pnum' Proportional Numbers lookup 30 subtable" three.lf
Substitution2: "'frac' Diagonal Fractions lookup 23 subtable" three.numr
Substitution2: "'dnom' Denominators lookup 21 subtable" three.dnom
Substitution2: "'numr' Numerators lookup 20 subtable" three.numr
Substitution2: "'sups' Superscript lookup 19 subtable" uni00B3
Substitution2: "'subs' Subscript lookup 18 subtable" uni2083
EndChar

StartChar: four
Encoding: 52 52 23
Width: 586
Flags: W
LayerCount: 2
Fore
SplineSet
571 138 m 1,0,-1
 492 138 l 1,1,-1
 492 0 l 1,2,-1
 302 0 l 1,3,-1
 302 138 l 1,4,-1
 17 138 l 1,5,-1
 17 280 l 1,6,-1
 314 714 l 1,7,-1
 492 714 l 1,8,-1
 492 282 l 1,9,-1
 571 282 l 1,10,-1
 571 138 l 1,0,-1
302 282 m 1,11,-1
 302 365 l 2,12,13
 302 380 302 380 303 404.5 c 128,-1,14
 304 429 304 429 305 449 c 128,-1,15
 306 469 306 469 306 470 c 2,16,-1
 301 470 l 1,17,18
 291 448 291 448 283.5 434 c 128,-1,19
 276 420 276 420 263 400 c 2,20,-1
 184 282 l 1,21,-1
 302 282 l 1,11,-1
EndSplineSet
Substitution2: "'case' Case-Sensitive Forms lookup 35 subtable" four.lf
Substitution2: "'onum' Oldstyle Figures lookup 32 subtable" four.tosf
Substitution2: "'pnum' Proportional Numbers lookup 30 subtable" four.lf
Substitution2: "'frac' Diagonal Fractions lookup 23 subtable" four.numr
Substitution2: "'dnom' Denominators lookup 21 subtable" four.dnom
Substitution2: "'numr' Numerators lookup 20 subtable" four.numr
Substitution2: "'sups' Superscript lookup 19 subtable" uni2074
Substitution2: "'subs' Subscript lookup 18 subtable" uni2084
EndChar

StartChar: five
Encoding: 53 53 24
Width: 586
Flags: W
LayerCount: 2
Fore
SplineSet
324 468 m 0,0,1
 384 468 384 468 433 441 c 128,-1,2
 482 414 482 414 511 363 c 128,-1,3
 540 312 540 312 540 238 c 0,4,5
 540 118 540 118 468 54 c 128,-1,6
 396 -10 396 -10 250 -10 c 0,7,8
 126 -10 126 -10 46 29 c 1,9,-1
 46 187 l 1,10,11
 84 170 84 170 137 156 c 128,-1,12
 190 142 190 142 234 142 c 0,13,14
 287 142 287 142 316 165 c 128,-1,15
 345 188 345 188 345 232 c 0,16,17
 345 272 345 272 315.5 295.5 c 128,-1,18
 286 319 286 319 227 319 c 0,19,20
 200 319 200 319 174 313.5 c 128,-1,21
 148 308 148 308 129 302 c 1,22,-1
 58 337 l 1,23,-1
 85 714 l 1,24,-1
 492 714 l 1,25,-1
 492 553 l 1,26,-1
 249 553 l 1,27,-1
 240 459 l 1,28,29
 256 462 256 462 272.5 465 c 128,-1,30
 289 468 289 468 324 468 c 0,0,1
EndSplineSet
Substitution2: "'case' Case-Sensitive Forms lookup 35 subtable" five.lf
Substitution2: "'onum' Oldstyle Figures lookup 32 subtable" five.tosf
Substitution2: "'pnum' Proportional Numbers lookup 30 subtable" five.lf
Substitution2: "'frac' Diagonal Fractions lookup 23 subtable" five.numr
Substitution2: "'dnom' Denominators lookup 21 subtable" five.dnom
Substitution2: "'numr' Numerators lookup 20 subtable" five.numr
Substitution2: "'sups' Superscript lookup 19 subtable" uni2075
Substitution2: "'subs' Subscript lookup 18 subtable" uni2085
EndChar

StartChar: six
Encoding: 54 54 25
Width: 586
Flags: W
LayerCount: 2
Fore
SplineSet
34 302 m 0,0,1
 34 363 34 363 43 424 c 128,-1,2
 52 485 52 485 75 539 c 128,-1,3
 98 593 98 593 140 634.5 c 128,-1,4
 182 676 182 676 247.5 700 c 128,-1,5
 313 724 313 724 408 724 c 0,6,7
 429 724 429 724 459.5 721.5 c 128,-1,8
 490 719 490 719 510 716 c 1,9,-1
 510 565 l 1,10,11
 490 569 490 569 465 571.5 c 128,-1,12
 440 574 440 574 404 574 c 0,13,14
 332 574 332 574 290 552.5 c 128,-1,15
 248 531 248 531 229.5 490.5 c 128,-1,16
 211 450 211 450 208 393 c 1,17,-1
 214 393 l 1,18,19
 233 428 233 428 265.5 452 c 128,-1,20
 298 476 298 476 355 476 c 0,21,22
 449 476 449 476 502 415.5 c 128,-1,23
 555 355 555 355 555 244 c 0,24,25
 555 124 555 124 487.5 57 c 128,-1,26
 420 -10 420 -10 303 -10 c 0,27,28
 226 -10 226 -10 165.5 23.5 c 128,-1,29
 105 57 105 57 69.5 126 c 128,-1,30
 34 195 34 195 34 302 c 0,0,1
299 143 m 0,31,32
 330 143 330 143 349 166.5 c 128,-1,33
 368 190 368 190 368 240 c 0,34,35
 368 280 368 280 352 303.5 c 128,-1,36
 336 327 336 327 301 327 c 0,37,38
 265 327 265 327 245.5 302.5 c 128,-1,39
 226 278 226 278 226 250 c 0,40,41
 226 224 226 224 233.5 199.5 c 128,-1,42
 241 175 241 175 257.5 159 c 128,-1,43
 274 143 274 143 299 143 c 0,31,32
EndSplineSet
Substitution2: "'case' Case-Sensitive Forms lookup 35 subtable" six.lf
Substitution2: "'onum' Oldstyle Figures lookup 32 subtable" six.tosf
Substitution2: "'pnum' Proportional Numbers lookup 30 subtable" six.lf
Substitution2: "'frac' Diagonal Fractions lookup 23 subtable" six.numr
Substitution2: "'dnom' Denominators lookup 21 subtable" six.dnom
Substitution2: "'numr' Numerators lookup 20 subtable" six.numr
Substitution2: "'sups' Superscript lookup 19 subtable" uni2076
Substitution2: "'subs' Subscript lookup 18 subtable" uni2086
EndChar

StartChar: seven
Encoding: 55 55 26
Width: 586
Flags: W
LayerCount: 2
Fore
SplineSet
102 0 m 1,0,-1
 347 554 l 1,1,-1
 38 554 l 1,2,-1
 38 714 l 1,3,-1
 553 714 l 1,4,-1
 553 600 l 1,5,-1
 302 0 l 1,6,-1
 102 0 l 1,0,-1
EndSplineSet
Substitution2: "'case' Case-Sensitive Forms lookup 35 subtable" seven.lf
Substitution2: "'onum' Oldstyle Figures lookup 32 subtable" seven.tosf
Substitution2: "'pnum' Proportional Numbers lookup 30 subtable" seven.lf
Substitution2: "'frac' Diagonal Fractions lookup 23 subtable" seven.numr
Substitution2: "'dnom' Denominators lookup 21 subtable" seven.dnom
Substitution2: "'numr' Numerators lookup 20 subtable" seven.numr
Substitution2: "'sups' Superscript lookup 19 subtable" uni2077
Substitution2: "'subs' Subscript lookup 18 subtable" uni2087
EndChar

StartChar: eight
Encoding: 56 56 27
Width: 586
Flags: W
LayerCount: 2
Fore
SplineSet
295 724 m 0,0,1
 401 724 401 724 467 681 c 128,-1,2
 533 638 533 638 533 550 c 0,3,4
 533 486 533 486 498.5 444 c 128,-1,5
 464 402 464 402 410 376 c 1,6,7
 444 357 444 357 477 331.5 c 128,-1,8
 510 306 510 306 532 271.5 c 128,-1,9
 554 237 554 237 554 190 c 0,10,11
 554 132 554 132 526 87 c 128,-1,12
 498 42 498 42 440.5 16 c 128,-1,13
 383 -10 383 -10 293 -10 c 0,14,15
 157 -10 157 -10 95 45 c 128,-1,16
 33 100 33 100 33 188 c 0,17,18
 33 262 33 262 70 303 c 128,-1,19
 107 344 107 344 163 373 c 1,20,21
 118 403 118 403 86 446 c 128,-1,22
 54 489 54 489 54 551 c 0,23,24
 54 608 54 608 85 646.5 c 128,-1,25
 116 685 116 685 170 704.5 c 128,-1,26
 224 724 224 724 295 724 c 0,0,1
294 585 m 0,27,28
 270 585 270 585 252.5 571 c 128,-1,29
 235 557 235 557 235 533 c 0,30,31
 235 510 235 510 251.5 491 c 128,-1,32
 268 472 268 472 292 459 c 1,33,34
 313 471 313 471 332.5 487.5 c 128,-1,35
 352 504 352 504 352 533 c 0,36,37
 352 557 352 557 334.5 571 c 128,-1,38
 317 585 317 585 294 585 c 0,27,28
210 196 m 0,39,40
 210 166 210 166 231.5 147.5 c 128,-1,41
 253 129 253 129 291 129 c 0,42,43
 335 129 335 129 356 146 c 128,-1,44
 377 163 377 163 377 192 c 0,45,46
 377 214 377 214 364 232 c 128,-1,47
 351 250 351 250 333.5 263 c 128,-1,48
 316 276 316 276 304 283 c 2,49,-1
 291 291 l 1,50,51
 258 274 258 274 234 251 c 128,-1,52
 210 228 210 228 210 196 c 0,39,40
EndSplineSet
Substitution2: "'case' Case-Sensitive Forms lookup 35 subtable" eight.lf
Substitution2: "'onum' Oldstyle Figures lookup 32 subtable" eight.tosf
Substitution2: "'pnum' Proportional Numbers lookup 30 subtable" eight.lf
Substitution2: "'frac' Diagonal Fractions lookup 23 subtable" eight.numr
Substitution2: "'dnom' Denominators lookup 21 subtable" eight.dnom
Substitution2: "'numr' Numerators lookup 20 subtable" eight.numr
Substitution2: "'sups' Superscript lookup 19 subtable" uni2078
Substitution2: "'subs' Subscript lookup 18 subtable" uni2088
EndChar

StartChar: nine
Encoding: 57 57 28
Width: 586
Flags: W
LayerCount: 2
Fore
SplineSet
552 401 m 0,0,1
 552 274 552 274 514 181.5 c 128,-1,2
 476 89 476 89 394 39.5 c 128,-1,3
 312 -10 312 -10 179 -10 c 0,4,5
 157 -10 157 -10 128 -9 c 128,-1,6
 99 -8 99 -8 79 -5 c 1,7,-1
 79 148 l 1,8,9
 100 144 100 144 121 142 c 128,-1,10
 142 140 142 140 170 140 c 0,11,12
 250 140 250 140 294.5 163 c 128,-1,13
 339 186 339 186 357 227 c 128,-1,14
 375 268 375 268 378 321 c 1,15,-1
 372 321 l 1,16,17
 352 285 352 285 320.5 261.5 c 128,-1,18
 289 238 289 238 228 238 c 0,19,20
 138 238 138 238 84.5 298.5 c 128,-1,21
 31 359 31 359 31 471 c 0,22,23
 31 590 31 590 98.5 657 c 128,-1,24
 166 724 166 724 284 724 c 0,25,26
 358 724 358 724 419 690 c 128,-1,27
 480 656 480 656 516 585 c 128,-1,28
 552 514 552 514 552 401 c 0,0,1
289 570 m 0,29,30
 255 570 255 570 236.5 547 c 128,-1,31
 218 524 218 524 218 473 c 0,32,33
 218 433 218 433 235 409.5 c 128,-1,34
 252 386 252 386 287 386 c 0,35,36
 319 386 319 386 339.5 411 c 128,-1,37
 360 436 360 436 360 464 c 0,38,39
 360 490 360 490 352.5 514 c 128,-1,40
 345 538 345 538 329.5 554 c 128,-1,41
 314 570 314 570 289 570 c 0,29,30
EndSplineSet
Substitution2: "'case' Case-Sensitive Forms lookup 35 subtable" nine.lf
Substitution2: "'onum' Oldstyle Figures lookup 32 subtable" nine.tosf
Substitution2: "'pnum' Proportional Numbers lookup 30 subtable" nine.lf
Substitution2: "'frac' Diagonal Fractions lookup 23 subtable" nine.numr
Substitution2: "'dnom' Denominators lookup 21 subtable" nine.dnom
Substitution2: "'numr' Numerators lookup 20 subtable" nine.numr
Substitution2: "'sups' Superscript lookup 19 subtable" uni2079
Substitution2: "'subs' Subscript lookup 18 subtable" uni2089
EndChar

StartChar: colon
Encoding: 58 58 29
Width: 289
Flags: W
LayerCount: 2
Fore
SplineSet
42 467 m 0,0,1
 42 518 42 518 72.5 539 c 128,-1,2
 103 560 103 560 146 560 c 0,3,4
 186 560 186 560 216 539 c 128,-1,5
 246 518 246 518 246 467 c 0,6,7
 246 417 246 417 216 395 c 128,-1,8
 186 373 186 373 146 373 c 0,9,10
 103 373 103 373 72.5 395 c 128,-1,11
 42 417 42 417 42 467 c 0,0,1
42 81 m 0,12,13
 42 133 42 133 72.5 154 c 128,-1,14
 103 175 103 175 146 175 c 0,15,16
 186 175 186 175 216 154 c 128,-1,17
 246 133 246 133 246 81 c 0,18,19
 246 32 246 32 216 10 c 128,-1,20
 186 -12 186 -12 146 -12 c 0,21,22
 103 -12 103 -12 72.5 10 c 128,-1,23
 42 32 42 32 42 81 c 0,12,13
EndSplineSet
EndChar

StartChar: semicolon
Encoding: 59 59 30
Width: 297
Flags: W
LayerCount: 2
Fore
SplineSet
45 467 m 0,0,1
 45 518 45 518 75 539 c 128,-1,2
 105 560 105 560 148 560 c 0,3,4
 188 560 188 560 218.5 539 c 128,-1,5
 249 518 249 518 249 467 c 0,6,7
 249 417 249 417 218.5 395 c 128,-1,8
 188 373 188 373 148 373 c 0,9,10
 105 373 105 373 75 395 c 128,-1,11
 45 417 45 417 45 467 c 0,0,1
243 146 m 1,12,-1
 250 135 l 1,13,14
 241 99 241 99 227 49 c 128,-1,15
 213 -1 213 -1 196.5 -51.5 c 128,-1,16
 180 -102 180 -102 164 -139 c 1,17,-1
 28 -139 l 1,18,19
 38 -94 38 -94 47 -43 c 128,-1,20
 56 8 56 8 64 57 c 128,-1,21
 72 106 72 106 76 146 c 1,22,-1
 243 146 l 1,12,-1
EndSplineSet
EndChar

StartChar: less
Encoding: 60 60 31
Width: 586
Flags: W
LayerCount: 2
Fore
SplineSet
539 87 m 1,0,-1
 45 306 l 1,1,-1
 45 390 l 1,2,-1
 539 637 l 1,3,-1
 539 492 l 1,4,-1
 236 354 l 1,5,-1
 539 231 l 1,6,-1
 539 87 l 1,0,-1
EndSplineSet
EndChar

StartChar: equal
Encoding: 61 61 32
Width: 586
Flags: W
LayerCount: 2
Fore
SplineSet
45 398 m 1,0,-1
 45 529 l 1,1,-1
 541 529 l 1,2,-1
 541 398 l 1,3,-1
 45 398 l 1,0,-1
45 175 m 1,4,-1
 45 307 l 1,5,-1
 541 307 l 1,6,-1
 541 175 l 1,7,-1
 45 175 l 1,4,-1
EndSplineSet
Substitution2: "'sups' Superscript lookup 19 subtable" uni207C
Substitution2: "'subs' Subscript lookup 18 subtable" uni208C
EndChar

StartChar: greater
Encoding: 62 62 33
Width: 586
Flags: W
LayerCount: 2
Fore
SplineSet
45 231 m 1,0,-1
 348 354 l 1,1,-1
 45 492 l 1,2,-1
 45 637 l 1,3,-1
 539 390 l 1,4,-1
 539 306 l 1,5,-1
 45 87 l 1,6,-1
 45 231 l 1,0,-1
EndSplineSet
EndChar

StartChar: question
Encoding: 63 63 34
Width: 505
Flags: W
LayerCount: 2
Fore
SplineSet
144 252 m 1,0,-1
 144 294 l 2,1,2
 144 339 144 339 162 372.5 c 128,-1,3
 180 406 180 406 233 439 c 0,4,5
 266 460 266 460 282 475.5 c 128,-1,6
 298 491 298 491 302.5 503.5 c 128,-1,7
 307 516 307 516 307 530 c 0,8,9
 307 550 307 550 288.5 562 c 128,-1,10
 270 574 270 574 240 574 c 0,11,12
 167 574 167 574 68 522 c 1,13,-1
 0 655 l 1,14,15
 55 686 55 686 117.5 705 c 128,-1,16
 180 724 180 724 254 724 c 0,17,18
 365 724 365 724 426 675 c 128,-1,19
 487 626 487 626 487 546 c 0,20,21
 487 488 487 488 460 445 c 128,-1,22
 433 402 433 402 371 362 c 0,23,24
 327 334 327 334 310.5 317 c 128,-1,25
 294 300 294 300 294 277 c 2,26,-1
 294 252 l 1,27,-1
 144 252 l 1,0,-1
123 81 m 0,28,29
 123 133 123 133 153 154 c 128,-1,30
 183 175 183 175 226 175 c 0,31,32
 267 175 267 175 297 154 c 128,-1,33
 327 133 327 133 327 81 c 0,34,35
 327 32 327 32 297 10 c 128,-1,36
 267 -12 267 -12 226 -12 c 0,37,38
 183 -12 183 -12 153 10 c 128,-1,39
 123 32 123 32 123 81 c 0,28,29
EndSplineSet
Substitution2: "'smcp' Lowercase to Small Capitals lookup 34 subtable" question.sc
Substitution2: "'c2sc' Capitals to Small Capitals lookup 33 subtable" question.sc
EndChar

StartChar: at
Encoding: 64 64 35
Width: 897
Flags: W
LayerCount: 2
Fore
SplineSet
857 369 m 0,0,1
 857 322 857 322 845 276.5 c 128,-1,2
 833 231 833 231 809.5 194.5 c 128,-1,3
 786 158 786 158 751.5 136 c 128,-1,4
 717 114 717 114 672 114 c 0,5,6
 636 114 636 114 604 129 c 128,-1,7
 572 144 572 144 553 172 c 1,8,-1
 546 172 l 1,9,10
 524 147 524 147 492 130.5 c 128,-1,11
 460 114 460 114 419 114 c 0,12,13
 326 114 326 114 280 168.5 c 128,-1,14
 234 223 234 223 234 312 c 0,15,16
 234 378 234 378 262.5 430.5 c 128,-1,17
 291 483 291 483 346.5 513.5 c 128,-1,18
 402 544 402 544 484 544 c 0,19,20
 533 544 533 544 579.5 534.5 c 128,-1,21
 626 525 626 525 658 514 c 1,22,-1
 648 308 l 2,23,24
 648 303 648 303 647.5 289.5 c 128,-1,25
 647 276 647 276 647 262 c 0,26,27
 647 239 647 239 653.5 229.5 c 128,-1,28
 660 220 660 220 671 220 c 0,29,30
 689 220 689 220 701.5 240.5 c 128,-1,31
 714 261 714 261 721 295.5 c 128,-1,32
 728 330 728 330 728 370 c 0,33,34
 728 482 728 482 664.5 548 c 128,-1,35
 601 614 601 614 475 614 c 0,36,37
 376 614 376 614 308.5 573 c 128,-1,38
 241 532 241 532 207 460 c 128,-1,39
 173 388 173 388 173 296 c 0,40,41
 173 178 173 178 239.5 107 c 128,-1,42
 306 36 306 36 439 36 c 0,43,44
 494 36 494 36 562 48.5 c 128,-1,45
 630 61 630 61 690 83 c 1,46,-1
 690 -29 l 1,47,48
 638 -51 638 -51 575.5 -63 c 128,-1,49
 513 -75 513 -75 446 -75 c 0,50,51
 318 -75 318 -75 227 -30 c 128,-1,52
 136 15 136 15 88 98.5 c 128,-1,53
 40 182 40 182 40 298 c 0,54,55
 40 388 40 388 70.5 465.5 c 128,-1,56
 101 543 101 543 157.5 600.5 c 128,-1,57
 214 658 214 658 294 690.5 c 128,-1,58
 374 723 374 723 473 723 c 0,59,60
 588 723 588 723 674.5 680 c 128,-1,61
 761 637 761 637 809 557.5 c 128,-1,62
 857 478 857 478 857 369 c 0,0,1
371 313 m 0,63,64
 371 264 371 264 389 242 c 128,-1,65
 407 220 407 220 436 220 c 0,66,67
 476 220 476 220 493 252 c 128,-1,68
 510 284 510 284 514 358 c 2,69,-1
 519 434 l 1,70,71
 509 436 509 436 502 436.5 c 128,-1,72
 495 437 495 437 486 437 c 0,73,74
 426 437 426 437 398.5 400 c 128,-1,75
 371 363 371 363 371 313 c 0,63,64
EndSplineSet
EndChar

StartChar: A
Encoding: 65 65 36
Width: 726
GlyphClass: 2
Flags: W
AnchorPoint: "Anchor-3" 636 714 basechar 0
AnchorPoint: "Anchor-2" 363 714 basechar 0
AnchorPoint: "Anchor-0" 363 0 basechar 0
LayerCount: 2
Fore
SplineSet
515 0 m 1,0,-1
 480 134 l 1,1,-1
 248 134 l 1,2,-1
 212 0 l 1,3,-1
 0 0 l 1,4,-1
 233 717 l 1,5,-1
 490 717 l 1,6,-1
 726 0 l 1,7,-1
 515 0 l 1,0,-1
440 292 m 1,8,-1
 409 409 l 2,9,10
 404 428 404 428 395 463.5 c 128,-1,11
 386 499 386 499 377 536.5 c 128,-1,12
 368 574 368 574 363 599 c 1,13,14
 358 574 358 574 350 538.5 c 128,-1,15
 342 503 342 503 333.5 467.5 c 128,-1,16
 325 432 325 432 319 409 c 2,17,-1
 288 292 l 1,18,-1
 440 292 l 1,8,-1
EndSplineSet
Substitution2: "'c2sc' Capitals to Small Capitals lookup 33 subtable" a.sc
Substitution2: "Single Substitution lookup 28 subtable" ordfeminine
EndChar

StartChar: B
Encoding: 66 66 37
Width: 674
GlyphClass: 2
Flags: W
AnchorPoint: "Anchor-3" 654 714 basechar 0
AnchorPoint: "Anchor-2" 339 714 basechar 0
AnchorPoint: "Anchor-0" 340 0 basechar 0
LayerCount: 2
Fore
SplineSet
77 714 m 1,0,-1
 326 714 l 2,1,2
 480 714 480 714 546.5 668 c 128,-1,3
 613 622 613 622 613 536 c 0,4,5
 613 489 613 489 596 456.5 c 128,-1,6
 579 424 579 424 553.5 405 c 128,-1,7
 528 386 528 386 501 379 c 1,8,-1
 501 374 l 1,9,10
 530 366 530 366 559 349.5 c 128,-1,11
 588 333 588 333 607.5 299.5 c 128,-1,12
 627 266 627 266 627 209 c 0,13,14
 627 112 627 112 554 56 c 128,-1,15
 481 0 481 0 355 0 c 2,16,-1
 77 0 l 1,17,-1
 77 714 l 1,0,-1
270 440 m 1,18,-1
 328 440 l 2,19,20
 376 440 376 440 395.5 460 c 128,-1,21
 415 480 415 480 415 508 c 0,22,23
 415 568 415 568 324 568 c 2,24,-1
 270 568 l 1,25,-1
 270 440 l 1,18,-1
270 299 m 1,26,-1
 270 149 l 1,27,-1
 338 149 l 2,28,29
 388 149 388 149 408 170.5 c 128,-1,30
 428 192 428 192 428 225 c 0,31,32
 428 254 428 254 408 276.5 c 128,-1,33
 388 299 388 299 334 299 c 2,34,-1
 270 299 l 1,26,-1
EndSplineSet
Substitution2: "'c2sc' Capitals to Small Capitals lookup 33 subtable" b.sc
EndChar

StartChar: C
Encoding: 67 67 38
Width: 649
GlyphClass: 2
Flags: W
AnchorPoint: "Anchor-3" 629 714 basechar 0
AnchorPoint: "Anchor-2" 365 714 basechar 0
AnchorPoint: "Anchor-0" 379 0 basechar 0
LayerCount: 2
Fore
SplineSet
395 566 m 0,0,1
 327 566 327 566 288 510 c 128,-1,2
 249 454 249 454 249 354 c 0,3,4
 249 253 249 253 287.5 200.5 c 128,-1,5
 326 148 326 148 406 148 c 0,6,7
 453 148 453 148 497.5 161 c 128,-1,8
 542 174 542 174 587 193 c 1,9,-1
 587 30 l 1,10,11
 540 9 540 9 490 -0.5 c 128,-1,12
 440 -10 440 -10 385 -10 c 0,13,14
 268 -10 268 -10 194.5 36 c 128,-1,15
 121 82 121 82 86 164.5 c 128,-1,16
 51 247 51 247 51 355 c 256,17,18
 51 463 51 463 91 546 c 128,-1,19
 131 629 131 629 208.5 676.5 c 128,-1,20
 286 724 286 724 397 724 c 0,21,22
 449 724 449 724 506 712 c 128,-1,23
 563 700 563 700 618 674 c 1,24,-1
 559 522 l 1,25,26
 520 541 520 541 480 553.5 c 128,-1,27
 440 566 440 566 395 566 c 0,0,1
EndSplineSet
Substitution2: "'c2sc' Capitals to Small Capitals lookup 33 subtable" c.sc
EndChar

StartChar: D
Encoding: 68 68 39
Width: 734
GlyphClass: 2
Flags: W
AnchorPoint: "Anchor-3" 714 714 basechar 0
AnchorPoint: "Anchor-2" 367 714 basechar 0
AnchorPoint: "Anchor-1" 367 357 basechar 0
AnchorPoint: "Anchor-0" 359 0 basechar 0
LayerCount: 2
Fore
SplineSet
683 372 m 0,0,1
 683 248 683 248 636.5 165 c 128,-1,2
 590 82 590 82 506 41 c 128,-1,3
 422 0 422 0 308 0 c 2,4,-1
 77 0 l 1,5,-1
 77 714 l 1,6,-1
 324 714 l 2,7,8
 496 714 496 714 589.5 626 c 128,-1,9
 683 538 683 538 683 372 c 0,0,1
483 365 m 0,10,11
 483 558 483 558 326 558 c 2,12,-1
 270 558 l 1,13,-1
 270 158 l 1,14,-1
 313 158 l 2,15,16
 401 158 401 158 442 209 c 128,-1,17
 483 260 483 260 483 365 c 0,10,11
EndSplineSet
Substitution2: "'c2sc' Capitals to Small Capitals lookup 33 subtable" d.sc
EndChar

StartChar: E
Encoding: 69 69 40
Width: 549
GlyphClass: 2
Flags: W
AnchorPoint: "Anchor-3" 529 714 basechar 0
AnchorPoint: "Anchor-2" 289 714 basechar 0
AnchorPoint: "Anchor-0" 295 0 basechar 0
LayerCount: 2
Fore
SplineSet
501 0 m 1,0,-1
 77 0 l 1,1,-1
 77 714 l 1,2,-1
 501 714 l 1,3,-1
 501 559 l 1,4,-1
 270 559 l 1,5,-1
 270 447 l 1,6,-1
 484 447 l 1,7,-1
 484 292 l 1,8,-1
 270 292 l 1,9,-1
 270 157 l 1,10,-1
 501 157 l 1,11,-1
 501 0 l 1,0,-1
EndSplineSet
Substitution2: "'c2sc' Capitals to Small Capitals lookup 33 subtable" e.sc
EndChar

StartChar: F
Encoding: 70 70 41
Width: 539
GlyphClass: 2
Flags: W
AnchorPoint: "Anchor-3" 519 714 basechar 0
AnchorPoint: "Anchor-2" 288 714 basechar 0
AnchorPoint: "Anchor-0" 270 0 basechar 0
LayerCount: 2
Fore
SplineSet
267 0 m 1,0,-1
 77 0 l 1,1,-1
 77 714 l 1,2,-1
 499 714 l 1,3,-1
 499 559 l 1,4,-1
 267 559 l 1,5,-1
 267 423 l 1,6,-1
 481 423 l 1,7,-1
 481 268 l 1,8,-1
 267 268 l 1,9,-1
 267 0 l 1,0,-1
EndSplineSet
Substitution2: "'c2sc' Capitals to Small Capitals lookup 33 subtable" f.sc
EndChar

StartChar: G
Encoding: 71 71 42
Width: 740
GlyphClass: 2
Flags: W
AnchorPoint: "Anchor-3" 720 714 basechar 0
AnchorPoint: "Anchor-2" 401 714 basechar 0
AnchorPoint: "Anchor-0" 380 0 basechar 0
LayerCount: 2
Fore
SplineSet
364 418 m 1,0,-1
 672 418 l 1,1,-1
 672 33 l 1,2,3
 616 14 616 14 545 2 c 128,-1,4
 474 -10 474 -10 396 -10 c 0,5,6
 293 -10 293 -10 215.5 30 c 128,-1,7
 138 70 138 70 94.5 152 c 128,-1,8
 51 234 51 234 51 359 c 0,9,10
 51 471 51 471 94 553 c 128,-1,11
 137 635 137 635 220.5 679.5 c 128,-1,12
 304 724 304 724 426 724 c 0,13,14
 493 724 493 724 553 711 c 128,-1,15
 613 698 613 698 657 679 c 1,16,-1
 596 528 l 1,17,18
 558 547 558 547 516 556.5 c 128,-1,19
 474 566 474 566 427 566 c 0,20,21
 363 566 363 566 324 537 c 128,-1,22
 285 508 285 508 267.5 460 c 128,-1,23
 250 412 250 412 250 354 c 0,24,25
 250 254 250 254 292 201.5 c 128,-1,26
 334 149 334 149 412 149 c 0,27,28
 429 149 429 149 453.5 151.5 c 128,-1,29
 478 154 478 154 491 157 c 1,30,-1
 491 269 l 1,31,-1
 364 269 l 1,32,-1
 364 418 l 1,0,-1
EndSplineSet
Substitution2: "'c2sc' Capitals to Small Capitals lookup 33 subtable" g.sc
EndChar

StartChar: H
Encoding: 72 72 43
Width: 766
GlyphClass: 2
Flags: W
AnchorPoint: "Anchor-3" 746 714 basechar 0
AnchorPoint: "Anchor-2" 383 714 basechar 0
AnchorPoint: "Anchor-1" 383 357 basechar 0
AnchorPoint: "Anchor-0" 383 0 basechar 0
LayerCount: 2
Fore
SplineSet
689 0 m 1,0,-1
 495 0 l 1,1,-1
 495 291 l 1,2,-1
 271 291 l 1,3,-1
 271 0 l 1,4,-1
 77 0 l 1,5,-1
 77 714 l 1,6,-1
 271 714 l 1,7,-1
 271 449 l 1,8,-1
 495 449 l 1,9,-1
 495 714 l 1,10,-1
 689 714 l 1,11,-1
 689 0 l 1,0,-1
EndSplineSet
Substitution2: "'c2sc' Capitals to Small Capitals lookup 33 subtable" h.sc
EndChar

StartChar: I
Encoding: 73 73 44
Width: 440
GlyphClass: 2
Flags: W
AnchorPoint: "Anchor-3" 420 714 basechar 0
AnchorPoint: "Anchor-2" 220 714 basechar 0
AnchorPoint: "Anchor-0" 220 0 basechar 0
LayerCount: 2
Fore
SplineSet
406 0 m 1,0,-1
 34 0 l 1,1,-1
 34 110 l 1,2,-1
 123 144 l 1,3,-1
 123 571 l 1,4,-1
 34 604 l 1,5,-1
 34 714 l 1,6,-1
 406 714 l 1,7,-1
 406 604 l 1,8,-1
 317 571 l 1,9,-1
 317 144 l 1,10,-1
 406 110 l 1,11,-1
 406 0 l 1,0,-1
EndSplineSet
Substitution2: "'c2sc' Capitals to Small Capitals lookup 33 subtable" i.sc
EndChar

StartChar: J
Encoding: 74 74 45
Width: 352
GlyphClass: 2
Flags: W
AnchorPoint: "Anchor-3" 332 714 basechar 0
AnchorPoint: "Anchor-2" 176 714 basechar 0
AnchorPoint: "Anchor-0" 21 -204 basechar 0
LayerCount: 2
Fore
SplineSet
21 -224 m 0,0,1
 -12 -224 -12 -224 -36.5 -221 c 128,-1,2
 -61 -218 -61 -218 -79 -214 c 1,3,-1
 -79 -64 l 1,4,5
 -63 -67 -63 -67 -45.5 -70.5 c 128,-1,6
 -28 -74 -28 -74 -8 -74 c 0,7,8
 44 -74 44 -74 62.5 -42.5 c 128,-1,9
 81 -11 81 -11 81 53 c 2,10,-1
 81 714 l 1,11,-1
 275 714 l 1,12,-1
 275 70 l 2,13,14
 275 -38 275 -38 242.5 -102.5 c 128,-1,15
 210 -167 210 -167 153 -195.5 c 128,-1,16
 96 -224 96 -224 21 -224 c 0,0,1
EndSplineSet
Substitution2: "'c2sc' Capitals to Small Capitals lookup 33 subtable" j.sc
EndChar

StartChar: K
Encoding: 75 75 46
Width: 687
GlyphClass: 2
Flags: W
AnchorPoint: "Anchor-3" 667 714 basechar 0
AnchorPoint: "Anchor-2" 364 714 basechar 0
AnchorPoint: "Anchor-0" 360 0 basechar 0
LayerCount: 2
Fore
SplineSet
687 0 m 1,0,-1
 469 0 l 1,1,-1
 328 273 l 1,2,-1
 271 239 l 1,3,-1
 271 0 l 1,4,-1
 77 0 l 1,5,-1
 77 714 l 1,6,-1
 271 714 l 1,7,-1
 271 404 l 1,8,9
 283 427 283 427 299 450.5 c 128,-1,10
 315 474 315 474 330 495 c 2,11,-1
 480 714 l 1,12,-1
 691 714 l 1,13,-1
 466 394 l 1,14,-1
 687 0 l 1,0,-1
EndSplineSet
Substitution2: "'c2sc' Capitals to Small Capitals lookup 33 subtable" k.sc
EndChar

StartChar: L
Encoding: 76 76 47
Width: 582
GlyphClass: 2
Flags: W
AnchorPoint: "Anchor-3" 364 714 basechar 0
AnchorPoint: "Anchor-2" 170 714 basechar 0
AnchorPoint: "Anchor-1" 291 357 basechar 0
AnchorPoint: "Anchor-0" 309 0 basechar 0
LayerCount: 2
Fore
SplineSet
77 0 m 1,0,-1
 77 714 l 1,1,-1
 270 714 l 1,2,-1
 270 156 l 1,3,-1
 545 156 l 1,4,-1
 545 0 l 1,5,-1
 77 0 l 1,0,-1
EndSplineSet
Substitution2: "'c2sc' Capitals to Small Capitals lookup 33 subtable" l.sc
EndChar

StartChar: M
Encoding: 77 77 48
Width: 967
GlyphClass: 2
Flags: W
AnchorPoint: "Anchor-3" 947 714 basechar 0
AnchorPoint: "Anchor-2" 487 714 basechar 0
AnchorPoint: "Anchor-0" 481 0 basechar 0
LayerCount: 2
Fore
SplineSet
388 0 m 1,0,-1
 242 514 l 1,1,-1
 238 514 l 1,2,3
 240 494 240 494 242 460 c 128,-1,4
 244 426 244 426 246 386 c 128,-1,5
 248 346 248 346 248 310 c 2,6,-1
 248 0 l 1,7,-1
 77 0 l 1,8,-1
 77 714 l 1,9,-1
 334 714 l 1,10,-1
 483 207 l 1,11,-1
 487 207 l 1,12,-1
 633 714 l 1,13,-1
 890 714 l 1,14,-1
 890 0 l 1,15,-1
 713 0 l 1,16,-1
 713 313 l 2,17,18
 713 346 713 346 714 385 c 128,-1,19
 715 424 715 424 716.5 458.5 c 128,-1,20
 718 493 718 493 720 513 c 1,21,-1
 716 513 l 1,22,-1
 572 0 l 1,23,-1
 388 0 l 1,0,-1
EndSplineSet
Substitution2: "'c2sc' Capitals to Small Capitals lookup 33 subtable" m.sc
EndChar

StartChar: N
Encoding: 78 78 49
Width: 834
GlyphClass: 2
Flags: W
AnchorPoint: "Anchor-3" 814 714 basechar 0
AnchorPoint: "Anchor-2" 417 714 basechar 0
AnchorPoint: "Anchor-0" 417 0 basechar 0
LayerCount: 2
Fore
SplineSet
757 0 m 1,0,-1
 504 0 l 1,1,-1
 243 503 l 1,2,-1
 239 503 l 1,3,4
 239 503 239 503 240.5 485.5 c 128,-1,5
 242 468 242 468 243.5 440 c 128,-1,6
 245 412 245 412 246.5 380.5 c 128,-1,7
 248 349 248 349 248 322 c 2,8,-1
 248 0 l 1,9,-1
 77 0 l 1,10,-1
 77 714 l 1,11,-1
 329 714 l 1,12,-1
 589 218 l 1,13,-1
 592 218 l 1,14,15
 592 218 592 218 591 235 c 128,-1,16
 590 252 590 252 588.5 279 c 128,-1,17
 587 306 587 306 586 336 c 128,-1,18
 585 366 585 366 585 391 c 2,19,-1
 585 714 l 1,20,-1
 757 714 l 1,21,-1
 757 0 l 1,0,-1
EndSplineSet
Substitution2: "'c2sc' Capitals to Small Capitals lookup 33 subtable" n.sc
EndChar

StartChar: O
Encoding: 79 79 50
Width: 797
GlyphClass: 2
Flags: W
AnchorPoint: "Anchor-3" 777 714 basechar 0
AnchorPoint: "Anchor-2" 399 714 basechar 0
AnchorPoint: "Anchor-1" 399 357 basechar 0
AnchorPoint: "Anchor-0" 398 0 basechar 0
LayerCount: 2
Fore
SplineSet
745 358 m 256,0,1
 745 247 745 247 709.5 164.5 c 128,-1,2
 674 82 674 82 597 36 c 128,-1,3
 520 -10 520 -10 398 -10 c 0,4,5
 278 -10 278 -10 201 36 c 128,-1,6
 124 82 124 82 87.5 165 c 128,-1,7
 51 248 51 248 51 359 c 256,8,9
 51 470 51 470 88 552 c 128,-1,10
 125 634 125 634 201.5 679.5 c 128,-1,11
 278 725 278 725 399 725 c 0,12,13
 521 725 521 725 597.5 679.5 c 128,-1,14
 674 634 674 634 709.5 551.5 c 128,-1,15
 745 469 745 469 745 358 c 256,0,1
254 358 m 256,16,17
 254 261 254 261 287.5 206 c 128,-1,18
 321 151 321 151 398 151 c 0,19,20
 478 151 478 151 510 206 c 128,-1,21
 542 261 542 261 542 358 c 256,22,23
 542 455 542 455 510 511 c 128,-1,24
 478 567 478 567 399 567 c 256,25,26
 320 567 320 567 287 511 c 128,-1,27
 254 455 254 455 254 358 c 256,16,17
EndSplineSet
Substitution2: "'c2sc' Capitals to Small Capitals lookup 33 subtable" o.sc
Substitution2: "Single Substitution lookup 28 subtable" ordmasculine
EndChar

StartChar: P
Encoding: 80 80 51
Width: 632
GlyphClass: 2
Flags: W
AnchorPoint: "Anchor-3" 612 714 basechar 0
AnchorPoint: "Anchor-2" 325 714 basechar 0
AnchorPoint: "Anchor-0" 316 0 basechar 0
LayerCount: 2
Fore
SplineSet
324 714 m 2,0,1
 460 714 460 714 527.5 655 c 128,-1,2
 595 596 595 596 595 487 c 0,3,4
 595 438 595 438 581 393.5 c 128,-1,5
 567 349 567 349 535.5 313.5 c 128,-1,6
 504 278 504 278 452 257.5 c 128,-1,7
 400 237 400 237 324 237 c 2,8,-1
 270 237 l 1,9,-1
 270 0 l 1,10,-1
 77 0 l 1,11,-1
 77 714 l 1,12,-1
 324 714 l 2,0,1
320 558 m 2,13,-1
 270 558 l 1,14,-1
 270 394 l 1,15,-1
 308 394 l 2,16,17
 346 394 346 394 374 413.5 c 128,-1,18
 402 433 402 433 402 482 c 0,19,20
 402 516 402 516 382 537 c 128,-1,21
 362 558 362 558 320 558 c 2,13,-1
EndSplineSet
Substitution2: "'c2sc' Capitals to Small Capitals lookup 33 subtable" p.sc
EndChar

StartChar: Q
Encoding: 81 81 52
Width: 797
GlyphClass: 2
Flags: W
AnchorPoint: "Anchor-3" 777 714 basechar 0
AnchorPoint: "Anchor-2" 399 714 basechar 0
AnchorPoint: "Anchor-0" 399 -170 basechar 0
LayerCount: 2
Fore
SplineSet
745 358 m 0,0,1
 745 246 745 246 709 161 c 128,-1,2
 673 76 673 76 591 31 c 1,3,-1
 765 -170 l 1,4,-1
 525 -170 l 1,5,-1
 405 -10 l 1,6,-1
 398 -10 l 2,7,8
 278 -10 278 -10 201 36 c 128,-1,9
 124 82 124 82 87.5 165 c 128,-1,10
 51 248 51 248 51 359 c 256,11,12
 51 470 51 470 88 552 c 128,-1,13
 125 634 125 634 201.5 679.5 c 128,-1,14
 278 725 278 725 399 725 c 0,15,16
 521 725 521 725 597.5 679.5 c 128,-1,17
 674 634 674 634 709.5 551.5 c 128,-1,18
 745 469 745 469 745 358 c 0,0,1
254 358 m 256,19,20
 254 261 254 261 287.5 206 c 128,-1,21
 321 151 321 151 398 151 c 0,22,23
 478 151 478 151 510 206 c 128,-1,24
 542 261 542 261 542 358 c 256,25,26
 542 455 542 455 510 511 c 128,-1,27
 478 567 478 567 399 567 c 256,28,29
 320 567 320 567 287 511 c 128,-1,30
 254 455 254 455 254 358 c 256,19,20
EndSplineSet
Substitution2: "'c2sc' Capitals to Small Capitals lookup 33 subtable" q.sc
EndChar

StartChar: R
Encoding: 82 82 53
Width: 677
GlyphClass: 2
Flags: W
AnchorPoint: "Anchor-3" 657 714 basechar 0
AnchorPoint: "Anchor-2" 339 714 basechar 0
AnchorPoint: "Anchor-0" 354 0 basechar 0
LayerCount: 2
Fore
SplineSet
311 714 m 2,0,1
 602 714 602 714 602 503 c 0,2,3
 602 438 602 438 569.5 390 c 128,-1,4
 537 342 537 342 481 311 c 1,5,-1
 689 0 l 1,6,-1
 470 0 l 1,7,-1
 319 260 l 1,8,-1
 270 260 l 1,9,-1
 270 0 l 1,10,-1
 77 0 l 1,11,-1
 77 714 l 1,12,-1
 311 714 l 2,0,1
308 568 m 2,13,-1
 270 568 l 1,14,-1
 270 405 l 1,15,-1
 306 405 l 2,16,17
 350 405 350 405 378.5 424.5 c 128,-1,18
 407 444 407 444 407 494 c 0,19,20
 407 528 407 528 383.5 548 c 128,-1,21
 360 568 360 568 308 568 c 2,13,-1
EndSplineSet
Substitution2: "'c2sc' Capitals to Small Capitals lookup 33 subtable" r.sc
EndChar

StartChar: S
Encoding: 83 83 54
Width: 577
GlyphClass: 2
Flags: W
AnchorPoint: "Anchor-3" 557 714 basechar 0
AnchorPoint: "Anchor-2" 289 714 basechar 0
AnchorPoint: "Anchor-0" 289 0 basechar 0
LayerCount: 2
Fore
SplineSet
544 217 m 0,0,1
 544 158 544 158 514.5 106.5 c 128,-1,2
 485 55 485 55 423.5 22.5 c 128,-1,3
 362 -10 362 -10 264 -10 c 0,4,5
 215 -10 215 -10 178.5 -5.5 c 128,-1,6
 142 -1 142 -1 110 9 c 128,-1,7
 78 19 78 19 44 35 c 1,8,-1
 44 207 l 1,9,10
 102 178 102 178 161 162.5 c 128,-1,11
 220 147 220 147 268 147 c 0,12,13
 311 147 311 147 331 162 c 128,-1,14
 351 177 351 177 351 200 c 0,15,16
 351 228 351 228 321.5 245 c 128,-1,17
 292 262 292 262 222 294 c 0,18,19
 169 318 169 318 130 346 c 128,-1,20
 91 374 91 374 70 414 c 128,-1,21
 49 454 49 454 49 515 c 0,22,23
 49 584 49 584 83 630.5 c 128,-1,24
 117 677 117 677 177.5 700.5 c 128,-1,25
 238 724 238 724 318 724 c 0,26,27
 388 724 388 724 444 708 c 128,-1,28
 500 692 500 692 544 673 c 1,29,-1
 485 524 l 1,30,31
 439 545 439 545 394.5 557.5 c 128,-1,32
 350 570 350 570 312 570 c 256,33,34
 274 570 274 570 257 557 c 128,-1,35
 240 544 240 544 240 524 c 0,36,37
 240 507 240 507 253 494 c 128,-1,38
 266 481 266 481 296.5 465.5 c 128,-1,39
 327 450 327 450 380 426 c 0,40,41
 432 402 432 402 468.5 375 c 128,-1,42
 505 348 505 348 524.5 310 c 128,-1,43
 544 272 544 272 544 217 c 0,0,1
EndSplineSet
Substitution2: "'c2sc' Capitals to Small Capitals lookup 33 subtable" s.sc
EndChar

StartChar: T
Encoding: 84 84 55
Width: 591
GlyphClass: 2
Flags: W
AnchorPoint: "Anchor-3" 571 714 basechar 0
AnchorPoint: "Anchor-2" 296 714 basechar 0
AnchorPoint: "Anchor-1" 296 357 basechar 0
AnchorPoint: "Anchor-0" 296 0 basechar 0
LayerCount: 2
Fore
SplineSet
392 0 m 1,0,-1
 199 0 l 1,1,-1
 199 556 l 1,2,-1
 25 556 l 1,3,-1
 25 714 l 1,4,-1
 566 714 l 1,5,-1
 566 556 l 1,6,-1
 392 556 l 1,7,-1
 392 0 l 1,0,-1
EndSplineSet
Substitution2: "'c2sc' Capitals to Small Capitals lookup 33 subtable" t.sc
EndChar

StartChar: U
Encoding: 85 85 56
Width: 757
GlyphClass: 2
Flags: W
AnchorPoint: "Anchor-3" 737 714 basechar 0
AnchorPoint: "Anchor-2" 379 714 basechar 0
AnchorPoint: "Anchor-0" 377 0 basechar 0
LayerCount: 2
Fore
SplineSet
684 714 m 1,0,-1
 684 284 l 2,1,2
 684 149 684 149 607 69.5 c 128,-1,3
 530 -10 530 -10 376 -10 c 0,4,5
 228 -10 228 -10 150.5 65.5 c 128,-1,6
 73 141 73 141 73 280 c 2,7,-1
 73 714 l 1,8,-1
 267 714 l 1,9,-1
 267 295 l 2,10,11
 267 219 267 219 295.5 185 c 128,-1,12
 324 151 324 151 379 151 c 0,13,14
 438 151 438 151 464.5 185.5 c 128,-1,15
 491 220 491 220 491 296 c 2,16,-1
 491 714 l 1,17,-1
 684 714 l 1,0,-1
EndSplineSet
Substitution2: "'c2sc' Capitals to Small Capitals lookup 33 subtable" u.sc
EndChar

StartChar: V
Encoding: 86 86 57
Width: 694
GlyphClass: 2
Flags: W
AnchorPoint: "Anchor-3" 674 714 basechar 0
AnchorPoint: "Anchor-2" 347 714 basechar 0
AnchorPoint: "Anchor-0" 343 0 basechar 0
LayerCount: 2
Fore
SplineSet
694 714 m 1,0,-1
 460 0 l 1,1,-1
 233 0 l 1,2,-1
 0 714 l 1,3,-1
 217 714 l 1,4,-1
 314 352 l 2,5,6
 319 332 319 332 326 300 c 128,-1,7
 333 268 333 268 339.5 236 c 128,-1,8
 346 204 346 204 347 184 c 1,9,10
 349 204 349 204 354.5 235.5 c 128,-1,11
 360 267 360 267 366.5 298.5 c 128,-1,12
 373 330 373 330 379 350 c 2,13,-1
 478 714 l 1,14,-1
 694 714 l 1,0,-1
EndSplineSet
Substitution2: "'c2sc' Capitals to Small Capitals lookup 33 subtable" v.sc
EndChar

StartChar: W
Encoding: 87 87 58
Width: 1039
GlyphClass: 2
Flags: W
AnchorPoint: "Anchor-3" 1019 714 basechar 0
AnchorPoint: "Anchor-2" 520 714 basechar 0
AnchorPoint: "Anchor-0" 521 0 basechar 0
LayerCount: 2
Fore
SplineSet
1024 714 m 1,0,-1
 848 0 l 1,1,-1
 620 0 l 1,2,-1
 552 311 l 2,3,4
 550 320 550 320 546 341 c 128,-1,5
 542 362 542 362 536.5 389 c 128,-1,6
 531 416 531 416 527 442 c 128,-1,7
 523 468 523 468 521 486 c 1,8,9
 519 468 519 468 514.5 442 c 128,-1,10
 510 416 510 416 505 389 c 128,-1,11
 500 362 500 362 495.5 341 c 128,-1,12
 491 320 491 320 489 311 c 2,13,-1
 420 0 l 1,14,-1
 192 0 l 1,15,-1
 15 714 l 1,16,-1
 201 714 l 1,17,-1
 279 356 l 2,18,19
 282 343 282 343 287 318.5 c 128,-1,20
 292 294 292 294 297.5 266 c 128,-1,21
 303 238 303 238 308 211.5 c 128,-1,22
 313 185 313 185 315 167 c 1,23,24
 319 197 319 197 325.5 236 c 128,-1,25
 332 275 332 275 340 314.5 c 128,-1,26
 348 354 348 354 355.5 388 c 128,-1,27
 363 422 363 422 368 444 c 2,28,-1
 431 714 l 1,29,-1
 610 714 l 1,30,-1
 671 444 l 2,31,32
 676 423 676 423 683.5 388.5 c 128,-1,33
 691 354 691 354 699 314 c 128,-1,34
 707 274 707 274 714 235 c 128,-1,35
 721 196 721 196 724 167 c 1,36,37
 727 192 727 192 734 229 c 128,-1,38
 741 266 741 266 748 301.5 c 128,-1,39
 755 337 755 337 759 355 c 2,40,-1
 838 714 l 1,41,-1
 1024 714 l 1,0,-1
EndSplineSet
Substitution2: "'c2sc' Capitals to Small Capitals lookup 33 subtable" w.sc
EndChar

StartChar: X
Encoding: 88 88 59
Width: 723
GlyphClass: 2
Flags: W
AnchorPoint: "Anchor-3" 703 714 basechar 0
AnchorPoint: "Anchor-2" 356 714 basechar 0
AnchorPoint: "Anchor-0" 362 0 basechar 0
LayerCount: 2
Fore
SplineSet
720 0 m 1,0,-1
 497 0 l 1,1,-1
 358 223 l 1,2,-1
 220 0 l 1,3,-1
 2 0 l 1,4,-1
 239 365 l 1,5,-1
 16 714 l 1,6,-1
 230 714 l 1,7,-1
 359 493 l 1,8,-1
 483 714 l 1,9,-1
 703 714 l 1,10,-1
 477 350 l 1,11,-1
 720 0 l 1,0,-1
EndSplineSet
Substitution2: "'c2sc' Capitals to Small Capitals lookup 33 subtable" x.sc
EndChar

StartChar: Y
Encoding: 89 89 60
Width: 664
GlyphClass: 2
Flags: W
AnchorPoint: "Anchor-3" 644 714 basechar 0
AnchorPoint: "Anchor-2" 332 714 basechar 0
AnchorPoint: "Anchor-0" 332 0 basechar 0
LayerCount: 2
Fore
SplineSet
332 449 m 1,0,-1
 455 714 l 1,1,-1
 664 714 l 1,2,-1
 429 279 l 1,3,-1
 429 0 l 1,4,-1
 235 0 l 1,5,-1
 235 273 l 1,6,-1
 0 714 l 1,7,-1
 210 714 l 1,8,-1
 332 449 l 1,0,-1
EndSplineSet
Substitution2: "'c2sc' Capitals to Small Capitals lookup 33 subtable" y.sc
EndChar

StartChar: Z
Encoding: 90 90 61
Width: 611
GlyphClass: 2
Flags: W
AnchorPoint: "Anchor-3" 591 714 basechar 0
AnchorPoint: "Anchor-2" 315 714 basechar 0
AnchorPoint: "Anchor-0" 316 0 basechar 0
LayerCount: 2
Fore
SplineSet
586 0 m 1,0,-1
 30 0 l 1,1,-1
 30 119 l 1,2,-1
 339 558 l 1,3,-1
 37 558 l 1,4,-1
 37 714 l 1,5,-1
 578 714 l 1,6,-1
 578 595 l 1,7,-1
 269 156 l 1,8,-1
 586 156 l 1,9,-1
 586 0 l 1,0,-1
EndSplineSet
Substitution2: "'c2sc' Capitals to Small Capitals lookup 33 subtable" z.sc
EndChar

StartChar: bracketleft
Encoding: 91 91 62
Width: 324
Flags: W
LayerCount: 2
Fore
SplineSet
301 -168 m 1,0,-1
 57 -168 l 1,1,-1
 57 734 l 1,2,-1
 301 734 l 1,3,-1
 301 610 l 1,4,-1
 212 610 l 1,5,-1
 212 -44 l 1,6,-1
 301 -44 l 1,7,-1
 301 -168 l 1,0,-1
EndSplineSet
Substitution2: "'smcp' Lowercase to Small Capitals lookup 34 subtable" bracketleft.sc
Substitution2: "'c2sc' Capitals to Small Capitals lookup 33 subtable" bracketleft.sc
EndChar

StartChar: backslash
Encoding: 92 92 63
Width: 442
Flags: W
LayerCount: 2
Fore
SplineSet
172 724 m 1,0,-1
 438 -10 l 1,1,-1
 269 -10 l 1,2,-1
 3 724 l 1,3,-1
 172 724 l 1,0,-1
EndSplineSet
EndChar

StartChar: bracketright
Encoding: 93 93 64
Width: 324
Flags: W
LayerCount: 2
Fore
SplineSet
23 -44 m 1,0,-1
 112 -44 l 1,1,-1
 112 610 l 1,2,-1
 23 610 l 1,3,-1
 23 734 l 1,4,-1
 267 734 l 1,5,-1
 267 -168 l 1,6,-1
 23 -168 l 1,7,-1
 23 -44 l 1,0,-1
EndSplineSet
Substitution2: "'smcp' Lowercase to Small Capitals lookup 34 subtable" bracketright.sc
Substitution2: "'c2sc' Capitals to Small Capitals lookup 33 subtable" bracketright.sc
EndChar

StartChar: asciicircum
Encoding: 94 94 65
Width: 525
Flags: W
LayerCount: 2
Fore
SplineSet
-8 245 m 1,0,-1
 207 717 l 1,1,-1
 290 717 l 1,2,-1
 538 245 l 1,3,-1
 394 245 l 1,4,-1
 253 527 l 1,5,-1
 132 245 l 1,6,-1
 -8 245 l 1,0,-1
EndSplineSet
EndChar

StartChar: underscore
Encoding: 95 95 66
Width: 500
Flags: W
LayerCount: 2
Fore
SplineSet
502 -185 m 1,0,-1
 -2 -185 l 1,1,-1
 -2 -65 l 1,2,-1
 502 -65 l 1,3,-1
 502 -185 l 1,0,-1
EndSplineSet
EndChar

StartChar: grave
Encoding: 96 96 67
Width: 418
Flags: W
LayerCount: 2
Fore
SplineSet
250 766 m 1,0,1
 267 744 267 744 290.5 717 c 128,-1,2
 314 690 314 690 338 664 c 128,-1,3
 362 638 362 638 378 620 c 1,4,-1
 378 606 l 1,5,-1
 251 606 l 1,6,7
 231 619 231 619 202.5 638.5 c 128,-1,8
 174 658 174 658 143.5 679.5 c 128,-1,9
 113 701 113 701 85.5 721.5 c 128,-1,10
 58 742 58 742 40 756 c 1,11,-1
 40 766 l 1,12,-1
 250 766 l 1,0,1
EndSplineSet
EndChar

StartChar: a
Encoding: 97 97 68
Width: 623
GlyphClass: 2
Flags: W
AnchorPoint: "Anchor-3" 589 553 basechar 0
AnchorPoint: "Anchor-2" 312 553 basechar 0
AnchorPoint: "Anchor-0" 312 0 basechar 0
LayerCount: 2
Fore
SplineSet
336 563 m 0,0,1
 441 563 441 563 500 511 c 128,-1,2
 559 459 559 459 559 363 c 2,3,-1
 559 0 l 1,4,-1
 427 0 l 1,5,-1
 390 73 l 1,6,-1
 386 73 l 1,7,8
 362 44 362 44 338 25.5 c 128,-1,9
 314 7 314 7 282 -1.5 c 128,-1,10
 250 -10 250 -10 204 -10 c 0,11,12
 132 -10 132 -10 84 34 c 128,-1,13
 36 78 36 78 36 169 c 0,14,15
 36 258 36 258 97.5 301 c 128,-1,16
 159 344 159 344 276 349 c 2,17,-1
 368 352 l 1,18,-1
 368 360 l 2,19,20
 368 397 368 397 350 412.5 c 128,-1,21
 332 428 332 428 301 428 c 0,22,23
 268 428 268 428 228 416.5 c 128,-1,24
 188 405 188 405 147 387 c 1,25,-1
 92 513 l 1,26,27
 140 538 140 538 200.5 550.5 c 128,-1,28
 261 563 261 563 336 563 c 0,0,1
369 247 m 1,29,-1
 325 245 l 2,30,31
 272 243 272 243 251 226.5 c 128,-1,32
 230 210 230 210 230 180 c 0,33,34
 230 152 230 152 245 138.5 c 128,-1,35
 260 125 260 125 285 125 c 0,36,37
 320 125 320 125 344.5 147 c 128,-1,38
 369 169 369 169 369 204 c 2,39,-1
 369 247 l 1,29,-1
EndSplineSet
Substitution2: "'smcp' Lowercase to Small Capitals lookup 34 subtable" a.sc
Substitution2: "Single Substitution lookup 28 subtable" ordfeminine
EndChar

StartChar: b
Encoding: 98 98 69
Width: 643
GlyphClass: 2
Flags: W
AnchorPoint: "Anchor-3" 583 760 basechar 0
AnchorPoint: "Anchor-2" 328 760 basechar 0
AnchorPoint: "Anchor-0" 333 0 basechar 0
LayerCount: 2
Fore
SplineSet
257 760 m 1,0,-1
 257 588 l 2,1,2
 257 559 257 559 255 532 c 128,-1,3
 253 505 253 505 250 482 c 1,4,-1
 257 482 l 1,5,6
 278 516 278 516 313 539.5 c 128,-1,7
 348 563 348 563 404 563 c 0,8,9
 490 563 490 563 545 490 c 128,-1,10
 600 417 600 417 600 278 c 0,11,12
 600 136 600 136 544 63 c 128,-1,13
 488 -10 488 -10 398 -10 c 0,14,15
 340 -10 340 -10 309 10.5 c 128,-1,16
 278 31 278 31 257 54 c 1,17,-1
 245 54 l 1,18,-1
 215 0 l 1,19,-1
 66 0 l 1,20,-1
 66 760 l 1,21,-1
 257 760 l 1,0,-1
334 413 m 0,22,23
 294 413 294 413 275.5 385 c 128,-1,24
 257 357 257 357 257 298 c 2,25,-1
 257 271 l 2,26,27
 257 206 257 206 274.5 175 c 128,-1,28
 292 144 292 144 336 144 c 0,29,30
 406 144 406 144 406 280 c 0,31,32
 406 413 406 413 334 413 c 0,22,23
EndSplineSet
Substitution2: "'smcp' Lowercase to Small Capitals lookup 34 subtable" b.sc
EndChar

StartChar: c
Encoding: 99 99 70
Width: 539
GlyphClass: 2
Flags: W
AnchorPoint: "Anchor-3" 514 553 basechar 0
AnchorPoint: "Anchor-2" 293 553 basechar 0
AnchorPoint: "Anchor-0" 315 0 basechar 0
LayerCount: 2
Fore
SplineSet
318 -10 m 0,0,1
 192 -10 192 -10 117 58 c 128,-1,2
 42 126 42 126 42 274 c 0,3,4
 42 374 42 374 80 438 c 128,-1,5
 118 502 118 502 183.5 532.5 c 128,-1,6
 249 563 249 563 333 563 c 0,7,8
 384 563 384 563 429.5 551.5 c 128,-1,9
 475 540 475 540 514 521 c 1,10,-1
 458 380 l 1,11,12
 424 395 424 395 394 404 c 128,-1,13
 364 413 364 413 333 413 c 0,14,15
 290 413 290 413 263 379 c 128,-1,16
 236 345 236 345 236 275 c 0,17,18
 236 203 236 203 263 172.5 c 128,-1,19
 290 142 290 142 334 142 c 0,20,21
 375 142 375 142 416.5 155 c 128,-1,22
 458 168 458 168 495 191 c 1,23,-1
 495 39 l 1,24,25
 460 16 460 16 417.5 3 c 128,-1,26
 375 -10 375 -10 318 -10 c 0,0,1
EndSplineSet
Substitution2: "'smcp' Lowercase to Small Capitals lookup 34 subtable" c.sc
EndChar

StartChar: d
Encoding: 100 100 71
Width: 643
GlyphClass: 2
Flags: W
AnchorPoint: "Anchor-3" 603 760 basechar 0
AnchorPoint: "Anchor-2" 234 760 basechar 0
AnchorPoint: "Anchor-1" 322 277 basechar 0
AnchorPoint: "Anchor-0" 314 0 basechar 0
LayerCount: 2
Fore
SplineSet
238 -10 m 0,0,1
 152 -10 152 -10 97 63 c 128,-1,2
 42 136 42 136 42 276 c 0,3,4
 42 418 42 418 98.5 490.5 c 128,-1,5
 155 563 155 563 245 563 c 0,6,7
 300 563 300 563 334 539.5 c 128,-1,8
 368 516 368 516 390 482 c 1,9,-1
 394 482 l 1,10,11
 390 503 390 503 387.5 540 c 128,-1,12
 385 577 385 577 385 612 c 2,13,-1
 385 760 l 1,14,-1
 577 760 l 1,15,-1
 577 0 l 1,16,-1
 433 0 l 1,17,-1
 392 70 l 1,18,-1
 385 70 l 1,19,20
 365 37 365 37 330 13.5 c 128,-1,21
 295 -10 295 -10 238 -10 c 0,0,1
316 141 m 0,22,23
 362 141 362 141 381 170 c 128,-1,24
 400 199 400 199 401 259 c 2,25,-1
 401 274 l 2,26,27
 401 339 401 339 382.5 374 c 128,-1,28
 364 409 364 409 314 409 c 0,29,30
 280 409 280 409 257.5 376 c 128,-1,31
 235 343 235 343 235 273 c 0,32,33
 235 204 235 204 257.5 172.5 c 128,-1,34
 280 141 280 141 316 141 c 0,22,23
EndSplineSet
Substitution2: "'smcp' Lowercase to Small Capitals lookup 34 subtable" d.sc
EndChar

StartChar: e
Encoding: 101 101 72
Width: 618
GlyphClass: 2
Flags: W
AnchorPoint: "Anchor-3" 598 553 basechar 0
AnchorPoint: "Anchor-2" 309 553 basechar 0
AnchorPoint: "Anchor-0" 333 0 basechar 0
LayerCount: 2
Fore
SplineSet
315 563 m 0,0,1
 436 563 436 563 506 500 c 128,-1,2
 576 437 576 437 576 310 c 2,3,-1
 576 225 l 1,4,-1
 235 225 l 1,5,6
 237 182 237 182 267.5 154 c 128,-1,7
 298 126 298 126 356 126 c 0,8,9
 408 126 408 126 451 136 c 128,-1,10
 494 146 494 146 540 168 c 1,11,-1
 540 31 l 1,12,13
 500 10 500 10 452.5 0 c 128,-1,14
 405 -10 405 -10 333 -10 c 0,15,16
 249 -10 249 -10 183.5 19.5 c 128,-1,17
 118 49 118 49 80 111.5 c 128,-1,18
 42 174 42 174 42 273 c 256,19,20
 42 372 42 372 76.5 436.5 c 128,-1,21
 111 501 111 501 172.5 532 c 128,-1,22
 234 563 234 563 315 563 c 0,0,1
322 433 m 0,23,24
 288 433 288 433 265.5 412 c 128,-1,25
 243 391 243 391 239 345 c 1,26,-1
 403 345 l 1,27,28
 402 382 402 382 381.5 407.5 c 128,-1,29
 361 433 361 433 322 433 c 0,23,24
EndSplineSet
Substitution2: "'smcp' Lowercase to Small Capitals lookup 34 subtable" e.sc
EndChar

StartChar: f
Encoding: 102 102 73
Width: 413
GlyphClass: 2
Flags: W
AnchorPoint: "Anchor-3" 432 765 basechar 0
AnchorPoint: "Anchor-2" 276 765 basechar 0
AnchorPoint: "Anchor-0" 190 0 basechar 0
LayerCount: 2
Fore
SplineSet
404 410 m 1,0,-1
 286 410 l 1,1,-1
 286 0 l 1,2,-1
 95 0 l 1,3,-1
 95 410 l 1,4,-1
 22 410 l 1,5,-1
 22 504 l 1,6,-1
 99 551 l 1,7,-1
 99 560 l 2,8,9
 99 667 99 667 142.5 716 c 128,-1,10
 186 765 186 765 287 765 c 0,11,12
 330 765 330 765 365 758.5 c 128,-1,13
 400 752 400 752 438 739 c 1,14,-1
 397 615 l 1,15,16
 383 619 383 619 365.5 622 c 128,-1,17
 348 625 348 625 328 625 c 0,18,19
 286 625 286 625 286 568 c 2,20,-1
 286 553 l 1,21,-1
 404 553 l 1,22,-1
 404 410 l 1,0,-1
EndSplineSet
Substitution2: "'smcp' Lowercase to Small Capitals lookup 34 subtable" f.sc
EndChar

StartChar: g
Encoding: 103 103 74
Width: 643
GlyphClass: 2
Flags: W
AnchorPoint: "Anchor-3" 603 553 basechar 0
AnchorPoint: "Anchor-2" 314 553 basechar 0
AnchorPoint: "Anchor-0" 293 -240 basechar 0
LayerCount: 2
Fore
SplineSet
243 563 m 0,0,1
 301 563 301 563 336.5 540.5 c 128,-1,2
 372 518 372 518 394 485 c 1,3,-1
 398 485 l 1,4,-1
 412 553 l 1,5,-1
 577 553 l 1,6,-1
 577 -1 l 2,7,8
 577 -118 577 -118 504.5 -179 c 128,-1,9
 432 -240 432 -240 282 -240 c 0,10,11
 215 -240 215 -240 164 -233 c 128,-1,12
 113 -226 113 -226 66 -208 c 1,13,-1
 66 -49 l 1,14,15
 116 -70 116 -70 161 -80.5 c 128,-1,16
 206 -91 206 -91 271 -91 c 0,17,18
 386 -91 386 -91 386 -9 c 2,19,-1
 386 1 l 2,20,21
 386 30 386 30 392 70 c 1,22,-1
 386 70 l 1,23,24
 366 37 366 37 331.5 13.5 c 128,-1,25
 297 -10 297 -10 240 -10 c 0,26,27
 152 -10 152 -10 97 63 c 128,-1,28
 42 136 42 136 42 276 c 256,29,30
 42 416 42 416 98 489.5 c 128,-1,31
 154 563 154 563 243 563 c 0,0,1
315 415 m 0,32,33
 236 415 236 415 236 273 c 0,34,35
 236 201 236 201 256 169.5 c 128,-1,36
 276 138 276 138 318 138 c 0,37,38
 364 138 364 138 382.5 167.5 c 128,-1,39
 401 197 401 197 401 256 c 2,40,-1
 401 279 l 2,41,42
 401 344 401 344 383.5 379.5 c 128,-1,43
 366 415 366 415 315 415 c 0,32,33
EndSplineSet
Substitution2: "'smcp' Lowercase to Small Capitals lookup 34 subtable" g.sc
EndChar

StartChar: h
Encoding: 104 104 75
Width: 670
GlyphClass: 2
Flags: W
AnchorPoint: "Anchor-3" 603 760 basechar 0
AnchorPoint: "Anchor-2" 164 760 basechar 0
AnchorPoint: "Anchor-1" 335 277 basechar 0
AnchorPoint: "Anchor-0" 340 0 basechar 0
LayerCount: 2
Fore
SplineSet
257 760 m 1,0,-1
 257 652 l 2,1,2
 257 590 257 590 254 548.5 c 128,-1,3
 251 507 251 507 249 485 c 1,4,-1
 258 485 l 1,5,6
 285 528 285 528 322.5 545.5 c 128,-1,7
 360 563 360 563 410 563 c 0,8,9
 464 563 464 563 508.5 542 c 128,-1,10
 553 521 553 521 579.5 476.5 c 128,-1,11
 606 432 606 432 606 360 c 2,12,-1
 606 0 l 1,13,-1
 414 0 l 1,14,-1
 414 302 l 2,15,16
 414 413 414 413 348 413 c 0,17,18
 296 413 296 413 276.5 369 c 128,-1,19
 257 325 257 325 257 243 c 2,20,-1
 257 0 l 1,21,-1
 66 0 l 1,22,-1
 66 760 l 1,23,-1
 257 760 l 1,0,-1
EndSplineSet
Substitution2: "'smcp' Lowercase to Small Capitals lookup 34 subtable" h.sc
Substitution2: "'subs' Subscript lookup 18 subtable" uni2095
EndChar

StartChar: i
Encoding: 105 105 76
Width: 325
GlyphClass: 2
Flags: W
AnchorPoint: "Anchor-3" 305 776 basechar 0
AnchorPoint: "Anchor-2" 163 776 basechar 0
AnchorPoint: "Anchor-0" 166 0 basechar 0
LayerCount: 2
Fore
SplineSet
163 776 m 0,0,1
 204 776 204 776 234.5 759 c 128,-1,2
 265 742 265 742 265 691 c 0,3,4
 265 642 265 642 234.5 624.5 c 128,-1,5
 204 607 204 607 163 607 c 0,6,7
 121 607 121 607 91.5 624.5 c 128,-1,8
 62 642 62 642 62 691 c 0,9,10
 62 742 62 742 91.5 759 c 128,-1,11
 121 776 121 776 163 776 c 0,0,1
258 553 m 1,12,-1
 258 0 l 1,13,-1
 67 0 l 1,14,-1
 67 553 l 1,15,-1
 258 553 l 1,12,-1
EndSplineSet
Substitution2: "'smcp' Lowercase to Small Capitals lookup 34 subtable" i.sc
Substitution2: "Single Substitution lookup 5 subtable" dotlessi
Substitution2: "Single Substitution lookup 4 subtable" dotlessi
EndChar

StartChar: j
Encoding: 106 106 77
Width: 324
GlyphClass: 2
Flags: W
AnchorPoint: "Anchor-3" 305 776 basechar 0
AnchorPoint: "Anchor-2" 162 776 basechar 0
AnchorPoint: "Anchor-0" 52 -240 basechar 0
LayerCount: 2
Fore
SplineSet
61 691 m 0,0,1
 61 742 61 742 90.5 759 c 128,-1,2
 120 776 120 776 162 776 c 0,3,4
 203 776 203 776 233.5 759 c 128,-1,5
 264 742 264 742 264 691 c 0,6,7
 264 642 264 642 233.5 624.5 c 128,-1,8
 203 607 203 607 162 607 c 0,9,10
 120 607 120 607 90.5 624.5 c 128,-1,11
 61 642 61 642 61 691 c 0,0,1
52 -240 m 0,12,13
 29 -240 29 -240 -1.5 -236.5 c 128,-1,14
 -32 -233 -32 -233 -51 -228 c 1,15,-1
 -51 -79 l 1,16,17
 -35 -84 -35 -84 -21.5 -86 c 128,-1,18
 -8 -88 -8 -88 8 -88 c 0,19,20
 31 -88 31 -88 48.5 -71.5 c 128,-1,21
 66 -55 66 -55 66 -5 c 2,22,-1
 66 553 l 1,23,-1
 257 553 l 1,24,-1
 257 -45 l 2,25,26
 257 -95 257 -95 237.5 -139.5 c 128,-1,27
 218 -184 218 -184 173 -212 c 128,-1,28
 128 -240 128 -240 52 -240 c 0,12,13
EndSplineSet
Substitution2: "'smcp' Lowercase to Small Capitals lookup 34 subtable" j.sc
Substitution2: "Single Substitution lookup 5 subtable" uni0237
Substitution2: "Single Substitution lookup 4 subtable" uni0237
EndChar

StartChar: k
Encoding: 107 107 78
Width: 659
GlyphClass: 2
Flags: W
AnchorPoint: "Anchor-3" 659 760 basechar 0
AnchorPoint: "Anchor-2" 163 760 basechar 0
AnchorPoint: "Anchor-0" 330 0 basechar 0
LayerCount: 2
Fore
SplineSet
258 760 m 1,0,-1
 258 461 l 2,1,2
 258 427 258 427 255 386 c 128,-1,3
 252 345 252 345 247 311 c 1,4,-1
 251 311 l 1,5,6
 251 311 251 311 260.5 326 c 128,-1,7
 270 341 270 341 284 361 c 128,-1,8
 298 381 298 381 310 397 c 2,9,-1
 434 553 l 1,10,-1
 647 553 l 1,11,-1
 455 318 l 1,12,-1
 659 0 l 1,13,-1
 441 0 l 1,14,-1
 320 198 l 1,15,-1
 258 151 l 1,16,-1
 258 0 l 1,17,-1
 66 0 l 1,18,-1
 66 760 l 1,19,-1
 258 760 l 1,0,-1
EndSplineSet
Substitution2: "'smcp' Lowercase to Small Capitals lookup 34 subtable" k.sc
Substitution2: "'subs' Subscript lookup 18 subtable" uni2096
EndChar

StartChar: l
Encoding: 108 108 79
Width: 341
GlyphClass: 2
Flags: W
AnchorPoint: "Anchor-2" 171 760 basechar 0
AnchorPoint: "Anchor-0" 171 -10 basechar 0
LayerCount: 2
Fore
SplineSet
257 -10 m 4,0,1
 186 -10 186 -10 146 14.5 c 132,-1,2
 106 39 106 39 89.5 81.5 c 132,-1,3
 73 124 73 124 73 179 c 6,4,-1
 73 760 l 1,5,-1
 267 760 l 1,6,-1
 267 181 l 6,7,8
 267 165 267 165 278 154 c 132,-1,9
 289 143 289 143 307 143 c 4,10,11
 324 143 324 143 335.5 145.5 c 132,-1,12
 347 148 347 148 362 153 c 5,13,-1
 362 8 l 5,14,15
 344 -2 344 -2 315 -6 c 132,-1,16
 286 -10 286 -10 257 -10 c 4,0,1
EndSplineSet
Substitution2: "'smcp' Lowercase to Small Capitals lookup 34 subtable" l.sc
Substitution2: "'subs' Subscript lookup 18 subtable" uni2097
EndChar

StartChar: m
Encoding: 109 109 80
Width: 1000
GlyphClass: 2
Flags: W
AnchorPoint: "Anchor-3" 966 553 basechar 0
AnchorPoint: "Anchor-2" 520 553 basechar 0
AnchorPoint: "Anchor-0" 504 0 basechar 0
LayerCount: 2
Fore
SplineSet
741 563 m 0,0,1
 836 563 836 563 886 514.5 c 128,-1,2
 936 466 936 466 936 360 c 2,3,-1
 936 0 l 1,4,-1
 745 0 l 1,5,-1
 745 301 l 2,6,7
 745 364 745 364 728 388.5 c 128,-1,8
 711 413 711 413 678 413 c 0,9,10
 632 413 632 413 614 372.5 c 128,-1,11
 596 332 596 332 596 258 c 2,12,-1
 596 0 l 1,13,-1
 405 0 l 1,14,-1
 405 301 l 2,15,16
 405 361 405 361 389 387 c 128,-1,17
 373 413 373 413 341 413 c 0,18,19
 292 413 292 413 274.5 368.5 c 128,-1,20
 257 324 257 324 257 242 c 2,21,-1
 257 0 l 1,22,-1
 66 0 l 1,23,-1
 66 553 l 1,24,-1
 210 553 l 1,25,-1
 238 485 l 1,26,-1
 243 485 l 1,27,28
 265 519 265 519 306.5 541 c 128,-1,29
 348 563 348 563 409 563 c 256,30,31
 470 563 470 563 509.5 542.5 c 128,-1,32
 549 522 549 522 574 486 c 1,33,-1
 580 486 l 1,34,35
 606 523 606 523 647.5 543 c 128,-1,36
 689 563 689 563 741 563 c 0,0,1
EndSplineSet
Substitution2: "'smcp' Lowercase to Small Capitals lookup 34 subtable" m.sc
Substitution2: "'subs' Subscript lookup 18 subtable" uni2098
EndChar

StartChar: n
Encoding: 110 110 81
Width: 670
GlyphClass: 2
Flags: W
AnchorPoint: "Anchor-3" 636 553 basechar 0
AnchorPoint: "Anchor-2" 335 553 basechar 0
AnchorPoint: "Anchor-0" 335 0 basechar 0
LayerCount: 2
Fore
SplineSet
412 563 m 0,0,1
 498 563 498 563 552 514.5 c 128,-1,2
 606 466 606 466 606 360 c 2,3,-1
 606 0 l 1,4,-1
 415 0 l 1,5,-1
 415 302 l 2,6,7
 415 357 415 357 399 385 c 128,-1,8
 383 413 383 413 348 413 c 0,9,10
 294 413 294 413 275.5 368.5 c 128,-1,11
 257 324 257 324 257 242 c 2,12,-1
 257 0 l 1,13,-1
 66 0 l 1,14,-1
 66 553 l 1,15,-1
 210 553 l 1,16,-1
 236 480 l 1,17,-1
 243 480 l 1,18,19
 269 519 269 519 311.5 541 c 128,-1,20
 354 563 354 563 412 563 c 0,0,1
EndSplineSet
Substitution2: "'smcp' Lowercase to Small Capitals lookup 34 subtable" n.sc
Substitution2: "'sups' Superscript lookup 19 subtable" nsuperior
Substitution2: "'subs' Subscript lookup 18 subtable" uni2099
EndChar

StartChar: o
Encoding: 111 111 82
Width: 637
GlyphClass: 2
Flags: W
AnchorPoint: "Anchor-3" 617 553 basechar 0
AnchorPoint: "Anchor-2" 319 553 basechar 0
AnchorPoint: "Anchor-1" 319 277 basechar 0
AnchorPoint: "Anchor-0" 317 0 basechar 0
LayerCount: 2
Fore
SplineSet
594 278 m 0,0,1
 594 139 594 139 520 64.5 c 128,-1,2
 446 -10 446 -10 317 -10 c 0,3,4
 237 -10 237 -10 175 23.5 c 128,-1,5
 113 57 113 57 77.5 121.5 c 128,-1,6
 42 186 42 186 42 278 c 0,7,8
 42 415 42 415 116 489 c 128,-1,9
 190 563 190 563 320 563 c 0,10,11
 400 563 400 563 461.5 530 c 128,-1,12
 523 497 523 497 558.5 433.5 c 128,-1,13
 594 370 594 370 594 278 c 0,0,1
236 278 m 0,14,15
 236 207 236 207 255 169.5 c 128,-1,16
 274 132 274 132 319 132 c 0,17,18
 363 132 363 132 381.5 169.5 c 128,-1,19
 400 207 400 207 400 278 c 0,20,21
 400 348 400 348 381.5 384.5 c 128,-1,22
 363 421 363 421 318 421 c 0,23,24
 274 421 274 421 255 384.5 c 128,-1,25
 236 348 236 348 236 278 c 0,14,15
EndSplineSet
Substitution2: "'smcp' Lowercase to Small Capitals lookup 34 subtable" o.sc
Substitution2: "Single Substitution lookup 28 subtable" ordmasculine
EndChar

StartChar: p
Encoding: 112 112 83
Width: 643
GlyphClass: 2
Flags: W
AnchorPoint: "Anchor-3" 623 553 basechar 0
AnchorPoint: "Anchor-2" 330 553 basechar 0
AnchorPoint: "Anchor-0" 163 -240 basechar 0
LayerCount: 2
Fore
SplineSet
404 563 m 0,0,1
 496 563 496 563 548 489.5 c 128,-1,2
 600 416 600 416 600 278 c 0,3,4
 600 184 600 184 573.5 119.5 c 128,-1,5
 547 55 547 55 501.5 22.5 c 128,-1,6
 456 -10 456 -10 398 -10 c 256,7,8
 340 -10 340 -10 307.5 11 c 128,-1,9
 275 32 275 32 257 54 c 1,10,-1
 251 54 l 1,11,12
 253 35 253 35 255 13 c 128,-1,13
 257 -9 257 -9 257 -38 c 2,14,-1
 257 -240 l 1,15,-1
 66 -240 l 1,16,-1
 66 553 l 1,17,-1
 221 553 l 1,18,-1
 248 483 l 1,19,-1
 257 483 l 1,20,21
 277 515 277 515 311.5 539 c 128,-1,22
 346 563 346 563 404 563 c 0,0,1
332 413 m 0,23,24
 290 413 290 413 274 383 c 128,-1,25
 258 353 258 353 257 294 c 2,26,-1
 257 279 l 2,27,28
 257 213 257 213 273 178.5 c 128,-1,29
 289 144 289 144 333 144 c 0,30,31
 369 144 369 144 387.5 175 c 128,-1,32
 406 206 406 206 406 280 c 0,33,34
 406 353 406 353 387 383 c 128,-1,35
 368 413 368 413 332 413 c 0,23,24
EndSplineSet
Substitution2: "'smcp' Lowercase to Small Capitals lookup 34 subtable" p.sc
Substitution2: "'subs' Subscript lookup 18 subtable" uni209A
EndChar

StartChar: q
Encoding: 113 113 84
Width: 643
GlyphClass: 2
Flags: W
AnchorPoint: "Anchor-3" 606 553 basechar 0
AnchorPoint: "Anchor-2" 322 553 basechar 0
AnchorPoint: "Anchor-0" 481 -240 basechar 0
LayerCount: 2
Fore
SplineSet
386 -240 m 1,0,-1
 386 -11 l 2,1,2
 386 30 386 30 392 70 c 1,3,-1
 386 70 l 1,4,5
 366 37 366 37 331.5 13.5 c 128,-1,6
 297 -10 297 -10 240 -10 c 0,7,8
 152 -10 152 -10 97 63 c 128,-1,9
 42 136 42 136 42 276 c 256,10,11
 42 416 42 416 98 489.5 c 128,-1,12
 154 563 154 563 243 563 c 0,13,14
 301 563 301 563 336.5 540.5 c 128,-1,15
 372 518 372 518 394 485 c 1,16,-1
 398 485 l 1,17,-1
 412 553 l 1,18,-1
 577 553 l 1,19,-1
 577 -240 l 1,20,-1
 386 -240 l 1,0,-1
318 138 m 0,21,22
 364 138 364 138 382.5 167.5 c 128,-1,23
 401 197 401 197 401 256 c 2,24,-1
 401 279 l 2,25,26
 401 344 401 344 383.5 379.5 c 128,-1,27
 366 415 366 415 315 415 c 0,28,29
 236 415 236 415 236 273 c 0,30,31
 236 201 236 201 256 169.5 c 128,-1,32
 276 138 276 138 318 138 c 0,21,22
EndSplineSet
Substitution2: "'smcp' Lowercase to Small Capitals lookup 34 subtable" q.sc
EndChar

StartChar: r
Encoding: 114 114 85
Width: 469
GlyphClass: 2
Flags: W
AnchorPoint: "Anchor-3" 449 553 basechar 0
AnchorPoint: "Anchor-2" 251 553 basechar 0
AnchorPoint: "Anchor-0" 165 0 basechar 0
LayerCount: 2
Fore
SplineSet
400 563 m 0,0,1
 416 563 416 563 433 560.5 c 128,-1,2
 450 558 450 558 458 557 c 1,3,-1
 441 377 l 1,4,5
 431 379 431 379 416.5 381 c 128,-1,6
 402 383 402 383 376 383 c 0,7,8
 352 383 352 383 324 376 c 128,-1,9
 296 369 296 369 276.5 345.5 c 128,-1,10
 257 322 257 322 257 272 c 2,11,-1
 257 0 l 1,12,-1
 66 0 l 1,13,-1
 66 553 l 1,14,-1
 208 553 l 1,15,-1
 238 465 l 1,16,-1
 247 465 l 1,17,18
 270 506 270 506 311.5 534.5 c 128,-1,19
 353 563 353 563 400 563 c 0,0,1
EndSplineSet
Substitution2: "'smcp' Lowercase to Small Capitals lookup 34 subtable" r.sc
EndChar

StartChar: s
Encoding: 115 115 86
Width: 517
GlyphClass: 2
Flags: W
AnchorPoint: "Anchor-3" 497 553 basechar 0
AnchorPoint: "Anchor-2" 251 553 basechar 0
AnchorPoint: "Anchor-0" 251 0 basechar 0
LayerCount: 2
Fore
SplineSet
477 170 m 0,0,1
 477 118 477 118 453.5 77 c 128,-1,2
 430 36 430 36 378.5 13 c 128,-1,3
 327 -10 327 -10 243 -10 c 0,4,5
 184 -10 184 -10 137.5 -3.5 c 128,-1,6
 91 3 91 3 43 21 c 1,7,-1
 43 174 l 1,8,9
 96 150 96 150 150 139.5 c 128,-1,10
 204 129 204 129 235 129 c 0,11,12
 297 129 297 129 297 157 c 0,13,14
 297 169 297 169 287 178 c 128,-1,15
 277 187 277 187 251.5 198 c 128,-1,16
 226 209 226 209 179 228 c 0,17,18
 110 256 110 256 76 294 c 128,-1,19
 42 332 42 332 42 400 c 0,20,21
 42 481 42 481 104.5 522 c 128,-1,22
 167 563 167 563 270 563 c 0,23,24
 325 563 325 563 373 551 c 128,-1,25
 421 539 421 539 473 516 c 1,26,-1
 421 393 l 1,27,28
 380 412 380 412 338 423 c 128,-1,29
 296 434 296 434 271 434 c 0,30,31
 224 434 224 434 224 411 c 0,32,33
 224 400 224 400 232.5 392.5 c 128,-1,34
 241 385 241 385 265 374.5 c 128,-1,35
 289 364 289 364 335 346 c 0,36,37
 383 326 383 326 414.5 304 c 128,-1,38
 446 282 446 282 461.5 250 c 128,-1,39
 477 218 477 218 477 170 c 0,0,1
EndSplineSet
Substitution2: "'smcp' Lowercase to Small Capitals lookup 34 subtable" s.sc
Substitution2: "'subs' Subscript lookup 18 subtable" uni209B
EndChar

StartChar: t
Encoding: 116 116 87
Width: 460
GlyphClass: 2
Flags: W
AnchorPoint: "Anchor-3" 421 664 basechar 0
AnchorPoint: "Anchor-2" 219 664 basechar 0
AnchorPoint: "Anchor-1" 230 277 basechar 0
AnchorPoint: "Anchor-0" 264 0 basechar 0
LayerCount: 2
Fore
SplineSet
337 141 m 0,0,1
 362 141 362 141 384 146.5 c 128,-1,2
 406 152 406 152 429 160 c 1,3,-1
 429 21 l 1,4,5
 398 8 398 8 363 -1 c 128,-1,6
 328 -10 328 -10 274 -10 c 256,7,8
 220 -10 220 -10 179 7 c 128,-1,9
 138 24 138 24 115.5 65.5 c 128,-1,10
 93 107 93 107 93 182 c 2,11,-1
 93 410 l 1,12,-1
 26 410 l 1,13,-1
 26 488 l 1,14,-1
 111 548 l 1,15,-1
 160 664 l 1,16,-1
 285 664 l 1,17,-1
 285 553 l 1,18,-1
 421 553 l 1,19,-1
 421 410 l 1,20,-1
 285 410 l 1,21,-1
 285 195 l 2,22,23
 285 141 285 141 337 141 c 0,0,1
EndSplineSet
Substitution2: "'smcp' Lowercase to Small Capitals lookup 34 subtable" t.sc
Substitution2: "'subs' Subscript lookup 18 subtable" uni209C
EndChar

StartChar: u
Encoding: 117 117 88
Width: 670
GlyphClass: 2
Flags: W
AnchorPoint: "Anchor-3" 636 553 basechar 0
AnchorPoint: "Anchor-2" 335 553 basechar 0
AnchorPoint: "Anchor-0" 329 0 basechar 0
LayerCount: 2
Fore
SplineSet
604 553 m 1,0,-1
 604 0 l 1,1,-1
 460 0 l 1,2,-1
 436 69 l 1,3,-1
 425 69 l 1,4,5
 399 27 399 27 354 8.5 c 128,-1,6
 309 -10 309 -10 258 -10 c 0,7,8
 204 -10 204 -10 160 11 c 128,-1,9
 116 32 116 32 90.5 77 c 128,-1,10
 65 122 65 122 65 193 c 2,11,-1
 65 553 l 1,12,-1
 256 553 l 1,13,-1
 256 251 l 2,14,15
 256 197 256 197 271.5 169 c 128,-1,16
 287 141 287 141 322 141 c 0,17,18
 376 141 376 141 394.5 184.5 c 128,-1,19
 413 228 413 228 413 311 c 2,20,-1
 413 553 l 1,21,-1
 604 553 l 1,0,-1
EndSplineSet
Substitution2: "'smcp' Lowercase to Small Capitals lookup 34 subtable" u.sc
EndChar

StartChar: v
Encoding: 118 118 89
Width: 611
GlyphClass: 2
Flags: W
AnchorPoint: "Anchor-3" 591 553 basechar 0
AnchorPoint: "Anchor-2" 304 553 basechar 0
AnchorPoint: "Anchor-0" 307 0 basechar 0
LayerCount: 2
Fore
SplineSet
211 0 m 1,0,-1
 0 553 l 1,1,-1
 199 553 l 1,2,-1
 293 226 l 2,3,4
 294 222 294 222 298 204 c 128,-1,5
 302 186 302 186 302 170 c 1,6,-1
 305 170 l 1,7,8
 305 186 305 186 308.5 201.5 c 128,-1,9
 312 217 312 217 314 225 c 2,10,-1
 412 553 l 1,11,-1
 611 553 l 1,12,-1
 400 0 l 1,13,-1
 211 0 l 1,0,-1
EndSplineSet
Substitution2: "'smcp' Lowercase to Small Capitals lookup 34 subtable" v.sc
EndChar

StartChar: w
Encoding: 119 119 90
Width: 910
GlyphClass: 2
Flags: W
AnchorPoint: "Anchor-3" 890 553 basechar 0
AnchorPoint: "Anchor-2" 455 553 basechar 0
AnchorPoint: "Anchor-0" 452 0 basechar 0
LayerCount: 2
Fore
SplineSet
542 0 m 1,0,-1
 484 242 l 2,1,2
 478 267 478 267 472 300 c 128,-1,3
 466 333 466 333 461.5 362.5 c 128,-1,4
 457 392 457 392 455 407 c 1,5,-1
 452 407 l 1,6,7
 450 392 450 392 445 362 c 128,-1,8
 440 332 440 332 433 298 c 128,-1,9
 426 264 426 264 420 235 c 2,10,-1
 364 0 l 1,11,-1
 163 0 l 1,12,-1
 12 553 l 1,13,-1
 200 553 l 1,14,-1
 245 341 l 2,15,16
 250 318 250 318 255 285 c 128,-1,17
 260 252 260 252 264 219 c 128,-1,18
 268 186 268 186 270 159 c 1,19,-1
 273 159 l 1,20,21
 274 179 274 179 278 205 c 128,-1,22
 282 231 282 231 286.5 257 c 128,-1,23
 291 283 291 283 294.5 303 c 128,-1,24
 298 323 298 323 300 330 c 2,25,-1
 351 553 l 1,26,-1
 562 553 l 1,27,-1
 609 327 l 2,28,29
 613 308 613 308 618.5 278.5 c 128,-1,30
 624 249 624 249 629 217 c 128,-1,31
 634 185 634 185 637 159 c 1,32,-1
 640 159 l 1,33,34
 642 186 642 186 646 220.5 c 128,-1,35
 650 255 650 255 655 287.5 c 128,-1,36
 660 320 660 320 665 341 c 2,37,-1
 714 553 l 1,38,-1
 898 553 l 1,39,-1
 746 0 l 1,40,-1
 542 0 l 1,0,-1
EndSplineSet
Substitution2: "'smcp' Lowercase to Small Capitals lookup 34 subtable" w.sc
EndChar

StartChar: x
Encoding: 120 120 91
Width: 630
GlyphClass: 2
Flags: W
AnchorPoint: "Anchor-3" 610 553 basechar 0
AnchorPoint: "Anchor-2" 314 553 basechar 0
AnchorPoint: "Anchor-0" 315 0 basechar 0
LayerCount: 2
Fore
SplineSet
183 282 m 1,0,-1
 14 553 l 1,1,-1
 231 553 l 1,2,-1
 315 398 l 1,3,-1
 401 553 l 1,4,-1
 618 553 l 1,5,-1
 445 282 l 1,6,-1
 625 0 l 1,7,-1
 408 0 l 1,8,-1
 315 168 l 1,9,-1
 222 0 l 1,10,-1
 5 0 l 1,11,-1
 183 282 l 1,0,-1
EndSplineSet
Substitution2: "'smcp' Lowercase to Small Capitals lookup 34 subtable" x.sc
EndChar

StartChar: y
Encoding: 121 121 92
Width: 610
GlyphClass: 2
Flags: W
AnchorPoint: "Anchor-3" 590 553 basechar 0
AnchorPoint: "Anchor-2" 305 553 basechar 0
AnchorPoint: "Anchor-0" 138 -240 basechar 0
LayerCount: 2
Fore
SplineSet
-1 553 m 1,0,-1
 200 553 l 1,1,-1
 294 236 l 2,2,3
 297 226 297 226 299.5 209 c 128,-1,4
 302 192 302 192 303 176 c 1,5,-1
 307 176 l 1,6,7
 309 196 309 196 312.5 210.5 c 128,-1,8
 316 225 316 225 319 235 c 2,9,-1
 415 553 l 1,10,-1
 610 553 l 1,11,-1
 391 -35 l 2,12,13
 366 -102 366 -102 332.5 -148 c 128,-1,14
 299 -194 299 -194 249.5 -217 c 128,-1,15
 200 -240 200 -240 128 -240 c 0,16,17
 102 -240 102 -240 83 -237.5 c 128,-1,18
 64 -235 64 -235 50 -232 c 1,19,-1
 50 -82 l 1,20,21
 60 -84 60 -84 76 -86 c 128,-1,22
 92 -88 92 -88 109 -88 c 0,23,24
 156 -88 156 -88 178.5 -60.5 c 128,-1,25
 201 -33 201 -33 215 3 c 2,26,-1
 217 8 l 1,27,-1
 -1 553 l 1,0,-1
EndSplineSet
Substitution2: "'smcp' Lowercase to Small Capitals lookup 34 subtable" y.sc
EndChar

StartChar: z
Encoding: 122 122 93
Width: 507
GlyphClass: 2
Flags: W
AnchorPoint: "Anchor-3" 477 553 basechar 0
AnchorPoint: "Anchor-2" 254 553 basechar 0
AnchorPoint: "Anchor-0" 255 0 basechar 0
LayerCount: 2
Fore
SplineSet
482 0 m 1,0,-1
 24 0 l 1,1,-1
 24 109 l 1,2,-1
 253 407 l 1,3,-1
 37 407 l 1,4,-1
 37 553 l 1,5,-1
 471 553 l 1,6,-1
 471 435 l 1,7,-1
 252 146 l 1,8,-1
 482 146 l 1,9,-1
 482 0 l 1,0,-1
EndSplineSet
Substitution2: "'smcp' Lowercase to Small Capitals lookup 34 subtable" z.sc
EndChar

StartChar: braceleft
Encoding: 123 123 94
Width: 433
Flags: W
LayerCount: 2
Fore
SplineSet
401 -168 m 1,0,1
 298 -168 298 -168 244 -150.5 c 128,-1,2
 190 -133 190 -133 170 -95.5 c 128,-1,3
 150 -58 150 -58 150 0 c 2,4,-1
 150 121 l 2,5,6
 150 151 150 151 132.5 169.5 c 128,-1,7
 115 188 115 188 87.5 196 c 128,-1,8
 60 204 60 204 30 204 c 1,9,-1
 30 351 l 1,10,11
 61 351 61 351 88.5 359 c 128,-1,12
 116 367 116 367 133 385.5 c 128,-1,13
 150 404 150 404 150 434 c 2,14,-1
 150 558 l 2,15,16
 150 615 150 615 169.5 651.5 c 128,-1,17
 189 688 189 688 243 706 c 128,-1,18
 297 724 297 724 401 724 c 1,19,-1
 401 588 l 1,20,21
 381 588 381 588 359.5 585 c 128,-1,22
 338 582 338 582 323 571.5 c 128,-1,23
 308 561 308 561 308 536 c 2,24,-1
 308 404 l 2,25,26
 308 343 308 343 277 315.5 c 128,-1,27
 246 288 246 288 191 281 c 1,28,-1
 191 275 l 1,29,30
 248 266 248 266 278 239 c 128,-1,31
 308 212 308 212 308 155 c 2,32,-1
 308 20 l 2,33,34
 308 -4 308 -4 323 -15 c 128,-1,35
 338 -26 338 -26 360 -29 c 128,-1,36
 382 -32 382 -32 401 -32 c 1,37,-1
 401 -168 l 1,0,1
EndSplineSet
Substitution2: "'smcp' Lowercase to Small Capitals lookup 34 subtable" braceleft.sc
Substitution2: "'c2sc' Capitals to Small Capitals lookup 33 subtable" braceleft.sc
EndChar

StartChar: bar
Encoding: 124 124 95
Width: 509
Flags: W
LayerCount: 2
Fore
SplineSet
189 760 m 1,0,-1
 320 760 l 1,1,-1
 320 -218 l 1,2,-1
 189 -218 l 1,3,-1
 189 760 l 1,0,-1
EndSplineSet
EndChar

StartChar: braceright
Encoding: 125 125 96
Width: 433
Flags: W
LayerCount: 2
Fore
SplineSet
32 -168 m 1,0,-1
 32 -32 l 1,1,2
 52 -32 52 -32 73.5 -29 c 128,-1,3
 95 -26 95 -26 110 -15 c 128,-1,4
 125 -4 125 -4 125 20 c 2,5,-1
 125 155 l 2,6,7
 125 212 125 212 155 239 c 128,-1,8
 185 266 185 266 242 275 c 1,9,-1
 242 281 l 1,10,11
 186 288 186 288 155.5 315.5 c 128,-1,12
 125 343 125 343 125 404 c 2,13,-1
 125 536 l 2,14,15
 125 561 125 561 110 571.5 c 128,-1,16
 95 582 95 582 73.5 585 c 128,-1,17
 52 588 52 588 32 588 c 1,18,-1
 32 724 l 1,19,20
 136 724 136 724 190 706 c 128,-1,21
 244 688 244 688 263.5 651.5 c 128,-1,22
 283 615 283 615 283 558 c 2,23,-1
 283 434 l 2,24,25
 283 404 283 404 300 385.5 c 128,-1,26
 317 367 317 367 344.5 359 c 128,-1,27
 372 351 372 351 403 351 c 1,28,-1
 403 204 l 1,29,30
 373 204 373 204 345.5 196 c 128,-1,31
 318 188 318 188 300.5 169.5 c 128,-1,32
 283 151 283 151 283 121 c 2,33,-1
 283 0 l 2,34,35
 283 -58 283 -58 263 -95.5 c 128,-1,36
 243 -133 243 -133 188.5 -150.5 c 128,-1,37
 134 -168 134 -168 32 -168 c 1,0,-1
EndSplineSet
Substitution2: "'smcp' Lowercase to Small Capitals lookup 34 subtable" braceright.sc
Substitution2: "'c2sc' Capitals to Small Capitals lookup 33 subtable" braceright.sc
EndChar

StartChar: asciitilde
Encoding: 126 126 97
Width: 586
Flags: W
LayerCount: 2
Fore
SplineSet
274 289 m 0,0,1
 237 305 237 305 209.5 310.5 c 128,-1,2
 182 316 182 316 159 316 c 0,3,4
 130 316 130 316 100 299 c 128,-1,5
 70 282 70 282 45 257 c 1,6,-1
 45 394 l 1,7,8
 70 420 70 420 102 433.5 c 128,-1,9
 134 447 134 447 174 447 c 0,10,11
 203 447 203 447 232.5 441.5 c 128,-1,12
 262 436 262 436 311 416 c 0,13,14
 348 400 348 400 376 394.5 c 128,-1,15
 404 389 404 389 427 389 c 0,16,17
 455 389 455 389 484.5 406 c 128,-1,18
 514 423 514 423 540 448 c 1,19,-1
 540 311 l 1,20,21
 489 258 489 258 411 258 c 0,22,23
 382 258 382 258 352.5 264 c 128,-1,24
 323 270 323 270 274 289 c 0,0,1
EndSplineSet
EndChar

StartChar: exclamdown
Encoding: 161 161 99
Width: 290
Flags: W
LayerCount: 2
Fore
SplineSet
249 470 m 0,0,1
 249 418 249 418 218.5 397 c 128,-1,2
 188 376 188 376 146 376 c 0,3,4
 105 376 105 376 75 397 c 128,-1,5
 45 418 45 418 45 470 c 0,6,7
 45 520 45 520 75 541.5 c 128,-1,8
 105 563 105 563 146 563 c 0,9,10
 188 563 188 563 218.5 541.5 c 128,-1,11
 249 520 249 520 249 470 c 0,0,1
65 299 m 1,12,-1
 226 299 l 1,13,-1
 251 -163 l 1,14,-1
 40 -163 l 1,15,-1
 65 299 l 1,12,-1
EndSplineSet
Substitution2: "'smcp' Lowercase to Small Capitals lookup 34 subtable" exclamdown.sc
Substitution2: "'c2sc' Capitals to Small Capitals lookup 33 subtable" exclamdown.sc
EndChar

StartChar: cent
Encoding: 162 162 100
Width: 586
Flags: W
LayerCount: 2
Fore
SplineSet
377 724 m 1,0,-1
 377 649 l 1,1,2
 420 647 420 647 460 636 c 128,-1,3
 500 625 500 625 535 608 c 1,4,-1
 479 467 l 1,5,6
 444 482 444 482 415 491 c 128,-1,7
 386 500 386 500 354 500 c 0,8,9
 310 500 310 500 283.5 466 c 128,-1,10
 257 432 257 432 257 362 c 0,11,12
 257 290 257 290 284.5 259.5 c 128,-1,13
 312 229 312 229 355 229 c 0,14,15
 396 229 396 229 437.5 242 c 128,-1,16
 479 255 479 255 516 278 c 1,17,-1
 516 126 l 1,18,19
 488 107 488 107 454 94.5 c 128,-1,20
 420 82 420 82 377 78 c 1,21,-1
 377 -10 l 1,22,-1
 276 -10 l 1,23,-1
 276 81 l 1,24,25
 177 96 177 96 120 164.5 c 128,-1,26
 63 233 63 233 63 361 c 0,27,28
 63 487 63 487 122.5 555.5 c 128,-1,29
 182 624 182 624 276 643 c 1,30,-1
 276 724 l 1,31,-1
 377 724 l 1,0,-1
EndSplineSet
EndChar

StartChar: sterling
Encoding: 163 163 101
Width: 586
Flags: W
LayerCount: 2
Fore
SplineSet
353 725 m 0,0,1
 406 725 406 725 457 714 c 128,-1,2
 508 703 508 703 551 685 c 1,3,-1
 497 544 l 1,4,5
 460 558 460 558 428 564.5 c 128,-1,6
 396 571 396 571 374 571 c 0,7,8
 351 571 351 571 335 557.5 c 128,-1,9
 319 544 319 544 319 504 c 2,10,-1
 319 452 l 1,11,-1
 487 452 l 1,12,-1
 487 317 l 1,13,-1
 319 317 l 1,14,-1
 319 270 l 2,15,16
 319 238 319 238 307 216.5 c 128,-1,17
 295 195 295 195 276.5 181.5 c 128,-1,18
 258 168 258 168 241 159 c 1,19,-1
 569 159 l 1,20,-1
 569 0 l 1,21,-1
 51 0 l 1,22,-1
 51 153 l 1,23,24
 78 168 78 168 95.5 182 c 128,-1,25
 113 196 113 196 122 216 c 128,-1,26
 131 236 131 236 131 269 c 2,27,-1
 131 317 l 1,28,-1
 50 317 l 1,29,-1
 50 452 l 1,30,-1
 131 452 l 1,31,-1
 131 510 l 2,32,33
 131 623 131 623 192.5 674 c 128,-1,34
 254 725 254 725 353 725 c 0,0,1
EndSplineSet
EndChar

StartChar: currency
Encoding: 164 164 102
Width: 566
Flags: W
LayerCount: 2
Fore
SplineSet
88 353 m 0,0,1
 88 376 88 376 93.5 398 c 128,-1,2
 99 420 99 420 108 439 c 1,3,-1
 47 497 l 1,4,-1
 135 586 l 1,5,-1
 195 526 l 1,6,7
 214 535 214 535 237 540.5 c 128,-1,8
 260 546 260 546 279 546 c 0,9,10
 324 546 324 546 365 524 c 1,11,-1
 424 586 l 1,12,-1
 514 501 l 1,13,-1
 452 440 l 1,14,15
 472 403 472 403 472 353 c 0,16,17
 472 306 472 306 452 267 c 1,18,-1
 511 209 l 1,19,-1
 424 122 l 1,20,-1
 365 180 l 1,21,22
 346 172 346 172 324 166.5 c 128,-1,23
 302 161 302 161 279 161 c 256,24,25
 256 161 256 161 234 165 c 128,-1,26
 212 169 212 169 193 179 c 1,27,-1
 135 123 l 1,28,-1
 48 210 l 1,29,-1
 108 268 l 1,30,31
 88 307 88 307 88 353 c 0,0,1
213 353 m 0,32,33
 213 325 213 325 232.5 306 c 128,-1,34
 252 287 252 287 279 287 c 0,35,36
 308 287 308 287 328 306 c 128,-1,37
 348 325 348 325 348 353 c 0,38,39
 348 382 348 382 328 401 c 128,-1,40
 308 420 308 420 279 420 c 0,41,42
 252 420 252 420 232.5 401 c 128,-1,43
 213 382 213 382 213 353 c 0,32,33
EndSplineSet
EndChar

StartChar: yen
Encoding: 165 165 103
Width: 586
Flags: W
LayerCount: 2
Fore
SplineSet
293 468 m 1,0,-1
 387 714 l 1,1,-1
 582 714 l 1,2,-1
 405 366 l 1,3,-1
 500 366 l 1,4,-1
 500 263 l 1,5,-1
 382 263 l 1,6,-1
 382 206 l 1,7,-1
 500 206 l 1,8,-1
 500 104 l 1,9,-1
 382 104 l 1,10,-1
 382 0 l 1,11,-1
 204 0 l 1,12,-1
 204 104 l 1,13,-1
 84 104 l 1,14,-1
 84 206 l 1,15,-1
 204 206 l 1,16,-1
 204 263 l 1,17,-1
 84 263 l 1,18,-1
 84 366 l 1,19,-1
 177 366 l 1,20,-1
 4 714 l 1,21,-1
 199 714 l 1,22,-1
 293 468 l 1,0,-1
EndSplineSet
EndChar

StartChar: brokenbar
Encoding: 166 166 104
Width: 509
Flags: W
LayerCount: 2
Fore
SplineSet
189 760 m 1,0,-1
 320 760 l 1,1,-1
 320 350 l 1,2,-1
 189 350 l 1,3,-1
 189 760 l 1,0,-1
189 192 m 1,4,-1
 320 192 l 1,5,-1
 320 -218 l 1,6,-1
 189 -218 l 1,7,-1
 189 192 l 1,4,-1
EndSplineSet
EndChar

StartChar: section
Encoding: 167 167 105
Width: 500
Flags: W
LayerCount: 2
Fore
SplineSet
52 392 m 0,0,1
 52 430 52 430 77.5 459 c 128,-1,2
 103 488 103 488 132 506 c 1,3,4
 98 530 98 530 80.5 559 c 128,-1,5
 63 588 63 588 63 626 c 0,6,7
 63 689 63 689 114.5 729.5 c 128,-1,8
 166 770 166 770 261 770 c 0,9,10
 311 770 311 770 357.5 758 c 128,-1,11
 404 746 404 746 442 728 c 1,12,-1
 394 620 l 1,13,14
 362 637 362 637 326.5 649.5 c 128,-1,15
 291 662 291 662 260 662 c 0,16,17
 207 662 207 662 207 626 c 0,18,19
 207 610 207 610 224 592 c 128,-1,20
 241 574 241 574 292 553 c 0,21,22
 378 518 378 518 415.5 478.5 c 128,-1,23
 453 439 453 439 453 392 c 0,24,25
 453 342 453 342 430.5 314 c 128,-1,26
 408 286 408 286 381 266 c 1,27,28
 408 246 408 246 425 216 c 128,-1,29
 442 186 442 186 442 147 c 0,30,31
 442 80 442 80 388.5 34 c 128,-1,32
 335 -12 335 -12 229 -12 c 0,33,34
 129 -12 129 -12 57 30 c 1,35,-1
 57 149 l 1,36,37
 100 126 100 126 148 111 c 128,-1,38
 196 96 196 96 230 96 c 0,39,40
 268 96 268 96 283 109 c 128,-1,41
 298 122 298 122 298 143 c 0,42,43
 298 163 298 163 283 178.5 c 128,-1,44
 268 194 268 194 215 217 c 0,45,46
 167 238 167 238 130.5 261 c 128,-1,47
 94 284 94 284 73 315 c 128,-1,48
 52 346 52 346 52 392 c 0,0,1
194 407 m 0,49,50
 194 382 194 382 214 363.5 c 128,-1,51
 234 345 234 345 278 322 c 2,52,-1
 291 315 l 1,53,54
 298 322 298 322 304.5 335 c 128,-1,55
 311 348 311 348 311 367 c 0,56,57
 311 393 311 393 292 414 c 128,-1,58
 273 435 273 435 222 457 c 1,59,60
 212 451 212 451 203 438.5 c 128,-1,61
 194 426 194 426 194 407 c 0,49,50
EndSplineSet
EndChar

StartChar: dieresis
Encoding: 168 168 106
Width: 602
Flags: W
LayerCount: 2
Fore
SplineSet
109 690 m 0,0,1
 109 730 109 730 133 748.5 c 128,-1,2
 157 767 157 767 192 767 c 0,3,4
 226 767 226 767 251 748.5 c 128,-1,5
 276 730 276 730 276 690 c 0,6,7
 276 651 276 651 251 632.5 c 128,-1,8
 226 614 226 614 192 614 c 0,9,10
 157 614 157 614 133 632.5 c 128,-1,11
 109 651 109 651 109 690 c 0,0,1
343 690 m 0,12,13
 343 730 343 730 367 748.5 c 128,-1,14
 391 767 391 767 427 767 c 0,15,16
 461 767 461 767 486 748.5 c 128,-1,17
 511 730 511 730 511 690 c 0,18,19
 511 651 511 651 486 632.5 c 128,-1,20
 461 614 461 614 427 614 c 0,21,22
 391 614 391 614 367 632.5 c 128,-1,23
 343 651 343 651 343 690 c 0,12,13
EndSplineSet
EndChar

StartChar: copyright
Encoding: 169 169 107
Width: 824
Flags: W
LayerCount: 2
Fore
SplineSet
412 -10 m 256,0,1
 332 -10 332 -10 265 17 c 128,-1,2
 198 44 198 44 148.5 93.5 c 128,-1,3
 99 143 99 143 72 210 c 128,-1,4
 45 277 45 277 45 357 c 256,5,6
 45 437 45 437 72 504 c 128,-1,7
 99 571 99 571 148.5 620.5 c 128,-1,8
 198 670 198 670 265 697 c 128,-1,9
 332 724 332 724 412 724 c 256,10,11
 492 724 492 724 559 697 c 128,-1,12
 626 670 626 670 675.5 620.5 c 128,-1,13
 725 571 725 571 752 504 c 128,-1,14
 779 437 779 437 779 357 c 256,15,16
 779 277 779 277 752 210 c 128,-1,17
 725 143 725 143 675.5 93.5 c 128,-1,18
 626 44 626 44 559 17 c 128,-1,19
 492 -10 492 -10 412 -10 c 256,0,1
412 70 m 256,20,21
 494 70 494 70 556 106.5 c 128,-1,22
 618 143 618 143 653.5 207.5 c 128,-1,23
 689 272 689 272 689 357 c 256,24,25
 689 442 689 442 653.5 506.5 c 128,-1,26
 618 571 618 571 556 607.5 c 128,-1,27
 494 644 494 644 412 644 c 256,28,29
 330 644 330 644 267 607.5 c 128,-1,30
 204 571 204 571 168.5 506.5 c 128,-1,31
 133 442 133 442 133 357 c 256,32,33
 133 272 133 272 168.5 207.5 c 128,-1,34
 204 143 204 143 267 106.5 c 128,-1,35
 330 70 330 70 412 70 c 256,20,21
413 128 m 0,36,37
 305 128 305 128 250.5 191 c 128,-1,38
 196 254 196 254 196 359 c 0,39,40
 196 461 196 461 249 523 c 128,-1,41
 302 585 302 585 408 585 c 0,42,43
 453 585 453 585 491 575 c 128,-1,44
 529 565 529 565 565 547 c 1,45,-1
 520 447 l 1,46,47
 494 460 494 460 470 467 c 128,-1,48
 446 474 446 474 417 474 c 0,49,50
 378 474 378 474 355.5 444 c 128,-1,51
 333 414 333 414 333 357 c 0,52,53
 333 295 333 295 354.5 267 c 128,-1,54
 376 239 376 239 420 239 c 0,55,56
 452 239 452 239 484 247 c 128,-1,57
 516 255 516 255 546 272 c 1,58,-1
 546 159 l 1,59,60
 515 143 515 143 483.5 135.5 c 128,-1,61
 452 128 452 128 413 128 c 0,36,37
EndSplineSet
EndChar

StartChar: ordfeminine
Encoding: 170 170 108
Width: 397
Flags: W
LayerCount: 2
Fore
SplineSet
213 722 m 0,0,1
 278 722 278 722 318 687 c 128,-1,2
 358 652 358 652 358 581 c 2,3,-1
 358 362 l 1,4,-1
 279 362 l 1,5,-1
 257 424 l 1,6,7
 235 390 235 390 208.5 373 c 128,-1,8
 182 356 182 356 138 356 c 0,9,10
 90 356 90 356 57 384.5 c 128,-1,11
 24 413 24 413 24 472 c 0,12,13
 24 536 24 536 67.5 559.5 c 128,-1,14
 111 583 111 583 192 587 c 2,15,-1
 235 589 l 1,16,-1
 235 592 l 2,17,18
 235 629 235 629 185 629 c 0,19,20
 159 629 159 629 136.5 622.5 c 128,-1,21
 114 616 114 616 82 602 c 1,22,-1
 45 683 l 1,23,24
 82 701 82 701 118 711.5 c 128,-1,25
 154 722 154 722 213 722 c 0,0,1
235 522 m 1,26,-1
 194 519 l 2,27,28
 164 517 164 517 155.5 504.5 c 128,-1,29
 147 492 147 492 147 478 c 0,30,31
 147 445 147 445 181 445 c 0,32,33
 208 445 208 445 221.5 465.5 c 128,-1,34
 235 486 235 486 235 511 c 2,35,-1
 235 522 l 1,26,-1
EndSplineSet
EndChar

StartChar: guillemotleft
Encoding: 171 171 109
Width: 681
Flags: W
LayerCount: 2
Fore
SplineSet
36 287 m 1,0,-1
 226 523 l 1,1,-1
 363 450 l 1,2,-1
 230 281 l 1,3,-1
 363 111 l 1,4,-1
 226 39 l 1,5,-1
 36 274 l 1,6,-1
 36 287 l 1,0,-1
317 287 m 1,7,-1
 506 523 l 1,8,-1
 644 450 l 1,9,-1
 510 281 l 1,10,-1
 644 111 l 1,11,-1
 506 39 l 1,12,-1
 317 274 l 1,13,-1
 317 287 l 1,7,-1
EndSplineSet
EndChar

StartChar: logicalnot
Encoding: 172 172 110
Width: 586
Flags: W
LayerCount: 2
Fore
SplineSet
540 418 m 1,0,-1
 540 116 l 1,1,-1
 408 116 l 1,2,-1
 408 287 l 1,3,-1
 45 287 l 1,4,-1
 45 418 l 1,5,-1
 540 418 l 1,0,-1
EndSplineSet
EndChar

StartChar: registered
Encoding: 174 174 112
Width: 824
Flags: W
LayerCount: 2
Fore
SplineSet
412 -10 m 256,0,1
 332 -10 332 -10 265 17 c 128,-1,2
 198 44 198 44 148.5 93.5 c 128,-1,3
 99 143 99 143 72 210 c 128,-1,4
 45 277 45 277 45 357 c 256,5,6
 45 437 45 437 72 504 c 128,-1,7
 99 571 99 571 148.5 620.5 c 128,-1,8
 198 670 198 670 265 697 c 128,-1,9
 332 724 332 724 412 724 c 256,10,11
 492 724 492 724 559 697 c 128,-1,12
 626 670 626 670 675.5 620.5 c 128,-1,13
 725 571 725 571 752 504 c 128,-1,14
 779 437 779 437 779 357 c 256,15,16
 779 277 779 277 752 210 c 128,-1,17
 725 143 725 143 675.5 93.5 c 128,-1,18
 626 44 626 44 559 17 c 128,-1,19
 492 -10 492 -10 412 -10 c 256,0,1
412 70 m 256,20,21
 494 70 494 70 556 106.5 c 128,-1,22
 618 143 618 143 653.5 207.5 c 128,-1,23
 689 272 689 272 689 357 c 256,24,25
 689 442 689 442 653.5 506.5 c 128,-1,26
 618 571 618 571 556 607.5 c 128,-1,27
 494 644 494 644 412 644 c 256,28,29
 330 644 330 644 267 607.5 c 128,-1,30
 204 571 204 571 168.5 506.5 c 128,-1,31
 133 442 133 442 133 357 c 256,32,33
 133 272 133 272 168.5 207.5 c 128,-1,34
 204 143 204 143 267 106.5 c 128,-1,35
 330 70 330 70 412 70 c 256,20,21
253 153 m 1,36,-1
 253 580 l 1,37,-1
 389 580 l 2,38,39
 493 580 493 580 537.5 545.5 c 128,-1,40
 582 511 582 511 582 448 c 0,41,42
 582 397 582 397 562 370.5 c 128,-1,43
 542 344 542 344 513 330 c 1,44,-1
 608 153 l 1,45,-1
 472 153 l 1,46,-1
 401 309 l 1,47,-1
 384 309 l 1,48,-1
 384 153 l 1,49,-1
 253 153 l 1,36,-1
384 395 m 1,50,-1
 389 395 l 2,51,52
 418 395 418 395 434 405.5 c 128,-1,53
 450 416 450 416 450 443 c 0,54,55
 450 469 450 469 434 477 c 128,-1,56
 418 485 418 485 390 485 c 2,57,-1
 384 485 l 1,58,-1
 384 395 l 1,50,-1
EndSplineSet
EndChar

StartChar: overscore
Encoding: 175 175 113
Width: 500
Flags: W
LayerCount: 2
Fore
SplineSet
503 760 m 1,0,-1
 -3 760 l 1,1,-1
 -3 880 l 1,2,-1
 503 880 l 1,3,-1
 503 760 l 1,0,-1
EndSplineSet
Substitution2: "'smcp' Lowercase to Small Capitals lookup 34 subtable" overscore.sc
Substitution2: "'c2sc' Capitals to Small Capitals lookup 33 subtable" overscore.sc
EndChar

StartChar: degree
Encoding: 176 176 114
Width: 422
Flags: W
LayerCount: 2
Fore
SplineSet
211 366 m 256,0,1
 158 366 158 366 117.5 388.5 c 128,-1,2
 77 411 77 411 54 451.5 c 128,-1,3
 31 492 31 492 31 544 c 256,4,5
 31 596 31 596 54 636.5 c 128,-1,6
 77 677 77 677 117.5 700.5 c 128,-1,7
 158 724 158 724 211 724 c 256,8,9
 264 724 264 724 304.5 700.5 c 128,-1,10
 345 677 345 677 368 636.5 c 128,-1,11
 391 596 391 596 391 544 c 256,12,13
 391 492 391 492 368 451.5 c 128,-1,14
 345 411 345 411 304.5 388.5 c 128,-1,15
 264 366 264 366 211 366 c 256,0,1
211 482 m 256,16,17
 240 482 240 482 257.5 499 c 128,-1,18
 275 516 275 516 275 544 c 0,19,20
 275 573 275 573 257.5 591 c 128,-1,21
 240 609 240 609 211 609 c 256,22,23
 182 609 182 609 164.5 591 c 128,-1,24
 147 573 147 573 147 544 c 0,25,26
 147 516 147 516 164.5 499 c 128,-1,27
 182 482 182 482 211 482 c 256,16,17
EndSplineSet
EndChar

StartChar: plusminus
Encoding: 177 177 115
Width: 586
Flags: W
LayerCount: 2
Fore
SplineSet
358 461 m 1,0,-1
 540 461 l 1,1,-1
 540 330 l 1,2,-1
 358 330 l 1,3,-1
 358 154 l 1,4,-1
 227 154 l 1,5,-1
 227 330 l 1,6,-1
 45 330 l 1,7,-1
 45 461 l 1,8,-1
 227 461 l 1,9,-1
 227 640 l 1,10,-1
 358 640 l 1,11,-1
 358 461 l 1,0,-1
45 0 m 1,12,-1
 45 131 l 1,13,-1
 540 131 l 1,14,-1
 540 0 l 1,15,-1
 45 0 l 1,12,-1
EndSplineSet
EndChar

StartChar: uni00B2
Encoding: 178 178 116
Width: 399
Flags: W
LayerCount: 2
Fore
SplineSet
366 416 m 1,0,-1
 37 416 l 1,1,-1
 37 517 l 1,2,-1
 142 621 l 2,3,4
 184 663 184 663 199.5 685 c 128,-1,5
 215 707 215 707 215 723 c 0,6,7
 215 751 215 751 183 751 c 0,8,9
 166 751 166 751 146.5 742.5 c 128,-1,10
 127 734 127 734 99 708 c 1,11,-1
 30 789 l 1,12,13
 63 819 63 819 104.5 837 c 128,-1,14
 146 855 146 855 211 855 c 0,15,16
 283 855 283 855 319.5 823 c 128,-1,17
 356 791 356 791 356 739 c 0,18,19
 356 700 356 700 338 668.5 c 128,-1,20
 320 637 320 637 291 609 c 128,-1,21
 262 581 262 581 229 553 c 2,22,-1
 197 526 l 1,23,-1
 366 526 l 1,24,-1
 366 416 l 1,0,-1
EndSplineSet
EndChar

StartChar: uni00B3
Encoding: 179 179 117
Width: 399
Flags: W
LayerCount: 2
Fore
SplineSet
198 853 m 0,0,1
 272 853 272 853 313 824 c 128,-1,2
 354 795 354 795 354 748 c 0,3,4
 354 710 354 710 336 683.5 c 128,-1,5
 318 657 318 657 275 641 c 1,6,-1
 275 637 l 1,7,8
 368 613 368 613 368 532 c 0,9,10
 368 472 368 472 319 440 c 128,-1,11
 270 408 270 408 185 408 c 0,12,13
 142 408 142 408 103 416.5 c 128,-1,14
 64 425 64 425 34 442 c 1,15,-1
 34 556 l 1,16,17
 66 534 66 534 103 525 c 128,-1,18
 140 516 140 516 179 516 c 0,19,20
 204 516 204 516 220 523.5 c 128,-1,21
 236 531 236 531 236 549 c 0,22,23
 236 562 236 562 225 573 c 128,-1,24
 214 584 214 584 170 584 c 2,25,-1
 119 584 l 1,26,-1
 119 679 l 1,27,-1
 158 679 l 2,28,29
 199 679 199 679 212.5 690 c 128,-1,30
 226 701 226 701 226 717 c 0,31,32
 226 729 226 729 216 739.5 c 128,-1,33
 206 750 206 750 181 750 c 0,34,35
 157 750 157 750 135.5 742 c 128,-1,36
 114 734 114 734 88 714 c 1,37,-1
 31 797 l 1,38,39
 61 820 61 820 103 836.5 c 128,-1,40
 145 853 145 853 198 853 c 0,0,1
EndSplineSet
EndChar

StartChar: acute
Encoding: 180 180 118
Width: 418
Flags: W
LayerCount: 2
Fore
SplineSet
378 766 m 1,0,-1
 378 756 l 1,1,2
 360 742 360 742 333 721.5 c 128,-1,3
 306 701 306 701 275 679.5 c 128,-1,4
 244 658 244 658 215.5 638.5 c 128,-1,5
 187 619 187 619 167 606 c 1,6,-1
 40 606 l 1,7,-1
 40 620 l 1,8,9
 57 638 57 638 81 664 c 128,-1,10
 105 690 105 690 128.5 717 c 128,-1,11
 152 744 152 744 169 766 c 1,12,-1
 378 766 l 1,0,-1
EndSplineSet
EndChar

StartChar: uni00B5
Encoding: 181 181 119
Width: 672
Flags: W
LayerCount: 2
Fore
SplineSet
606 553 m 1,0,-1
 606 0 l 1,1,-1
 463 0 l 1,2,-1
 437 74 l 1,3,-1
 429 74 l 1,4,5
 412 31 412 31 384.5 10.5 c 128,-1,6
 357 -10 357 -10 325 -10 c 0,7,8
 298 -10 298 -10 282 0 c 128,-1,9
 266 10 266 10 253 31 c 1,10,-1
 251 31 l 1,11,12
 253 10 253 10 255 -23 c 128,-1,13
 257 -56 257 -56 257 -84 c 2,14,-1
 257 -240 l 1,15,-1
 66 -240 l 1,16,-1
 66 553 l 1,17,-1
 257 553 l 1,18,-1
 257 253 l 2,19,20
 257 197 257 197 273.5 169 c 128,-1,21
 290 141 290 141 328 141 c 0,22,23
 377 141 377 141 395.5 184.5 c 128,-1,24
 414 228 414 228 414 311 c 2,25,-1
 414 553 l 1,26,-1
 606 553 l 1,0,-1
EndSplineSet
EndChar

StartChar: paragraph
Encoding: 182 182 120
Width: 643
Flags: W
LayerCount: 2
Fore
SplineSet
579 -127 m 1,0,-1
 486 -127 l 1,1,-1
 486 648 l 1,2,-1
 409 648 l 1,3,-1
 409 -127 l 1,4,-1
 316 -127 l 1,5,-1
 316 273 l 1,6,7
 301 268 301 268 288.5 266 c 128,-1,8
 276 264 276 264 255 264 c 0,9,10
 193 264 193 264 147 287 c 128,-1,11
 101 310 101 310 75.5 364 c 128,-1,12
 50 418 50 418 50 509 c 0,13,14
 50 604 50 604 77.5 659 c 128,-1,15
 105 714 105 714 154.5 737 c 128,-1,16
 204 760 204 760 270 760 c 2,17,-1
 579 760 l 1,18,-1
 579 -127 l 1,0,-1
EndSplineSet
EndChar

StartChar: cedilla
Encoding: 184 184 122
Width: 288
Flags: W
LayerCount: 2
Fore
SplineSet
264 -123 m 0,0,1
 264 -176 264 -176 227.5 -208 c 128,-1,2
 191 -240 191 -240 130 -240 c 0,3,4
 96 -240 96 -240 68 -235 c 128,-1,5
 40 -230 40 -230 22 -223 c 1,6,-1
 22 -129 l 1,7,8
 38 -134 38 -134 54 -137 c 128,-1,9
 70 -140 70 -140 87 -140 c 0,10,11
 127 -140 127 -140 127 -112 c 0,12,13
 127 -95 127 -95 110.5 -85 c 128,-1,14
 94 -75 94 -75 56 -68 c 1,15,-1
 86 0 l 1,16,-1
 181 0 l 1,17,-1
 172 -30 l 1,18,19
 192 -34 192 -34 213.5 -44 c 128,-1,20
 235 -54 235 -54 249.5 -72.5 c 128,-1,21
 264 -91 264 -91 264 -123 c 0,0,1
EndSplineSet
EndChar

StartChar: uni00B9
Encoding: 185 185 123
Width: 399
Flags: W
LayerCount: 2
Fore
SplineSet
301 844 m 1,0,-1
 301 416 l 1,1,-1
 163 416 l 1,2,-1
 163 590 l 2,3,4
 163 600 163 600 164 623 c 128,-1,5
 165 646 165 646 166 667.5 c 128,-1,6
 167 689 167 689 168 696 c 1,7,8
 164 687 164 687 155 677.5 c 128,-1,9
 146 668 146 668 138 661 c 2,10,-1
 99 627 l 1,11,-1
 28 710 l 1,12,-1
 194 844 l 1,13,-1
 301 844 l 1,0,-1
EndSplineSet
EndChar

StartChar: ordmasculine
Encoding: 186 186 124
Width: 392
Flags: W
LayerCount: 2
Fore
SplineSet
369 539 m 0,0,1
 369 452 369 452 321.5 404 c 128,-1,2
 274 356 274 356 195 356 c 0,3,4
 120 356 120 356 72 405 c 128,-1,5
 24 454 24 454 24 539 c 0,6,7
 24 627 24 627 70.5 674.5 c 128,-1,8
 117 722 117 722 197 722 c 0,9,10
 246 722 246 722 284.5 700 c 128,-1,11
 323 678 323 678 346 637 c 128,-1,12
 369 596 369 596 369 539 c 0,0,1
147 539 m 0,13,14
 147 455 147 455 196 455 c 0,15,16
 244 455 244 455 244 539 c 0,17,18
 244 624 244 624 196 624 c 0,19,20
 147 624 147 624 147 539 c 0,13,14
EndSplineSet
EndChar

StartChar: guillemotright
Encoding: 187 187 125
Width: 681
Flags: W
LayerCount: 2
Fore
SplineSet
645 274 m 1,0,-1
 456 39 l 1,1,-1
 317 111 l 1,2,-1
 451 281 l 1,3,-1
 317 450 l 1,4,-1
 456 523 l 1,5,-1
 645 287 l 1,6,-1
 645 274 l 1,0,-1
364 274 m 1,7,-1
 175 39 l 1,8,-1
 37 111 l 1,9,-1
 170 281 l 1,10,-1
 37 450 l 1,11,-1
 175 523 l 1,12,-1
 364 287 l 1,13,-1
 364 274 l 1,7,-1
EndSplineSet
EndChar

StartChar: onequarter
Encoding: 188 188 126
Width: 887
Flags: W
LayerCount: 2
Fore
SplineSet
174 0 m 1,0,-1
 542 714 l 1,1,-1
 689 714 l 1,2,-1
 321 0 l 1,3,-1
 174 0 l 1,0,-1
129 286 m 1,4,-1
 129 460 l 2,5,6
 129 474 129 474 130 506.5 c 128,-1,7
 131 539 131 539 134 566 c 1,8,9
 132 562 132 562 124 552.5 c 128,-1,10
 116 543 116 543 106 533 c 2,11,-1
 65 497 l 1,12,-1
 -6 580 l 1,13,-1
 160 714 l 1,14,-1
 267 714 l 1,15,-1
 267 286 l 1,16,-1
 129 286 l 1,4,-1
683 0 m 1,17,-1
 683 68 l 1,18,-1
 502 68 l 1,19,-1
 502 160 l 1,20,-1
 673 431 l 1,21,-1
 817 431 l 1,22,-1
 817 166 l 1,23,-1
 878 166 l 1,24,-1
 878 68 l 1,25,-1
 817 68 l 1,26,-1
 817 0 l 1,27,-1
 683 0 l 1,17,-1
606 166 m 1,28,-1
 683 166 l 1,29,-1
 683 247 l 2,30,31
 683 282 683 282 686 313 c 1,32,33
 676 288 676 288 668.5 272 c 128,-1,34
 661 256 661 256 656 248 c 2,35,-1
 606 166 l 1,28,-1
EndSplineSet
EndChar

StartChar: onehalf
Encoding: 189 189 127
Width: 926
Flags: W
LayerCount: 2
Fore
SplineSet
186 0 m 1,0,-1
 554 714 l 1,1,-1
 701 714 l 1,2,-1
 333 0 l 1,3,-1
 186 0 l 1,0,-1
129 286 m 1,4,-1
 129 460 l 2,5,6
 129 464 129 464 129.5 480 c 128,-1,7
 130 496 130 496 131 515 c 128,-1,8
 132 534 132 534 133 549 c 128,-1,9
 134 564 134 564 134 566 c 1,10,11
 132 562 132 562 122.5 551 c 128,-1,12
 113 540 113 540 103 531 c 2,13,-1
 65 497 l 1,14,-1
 -6 580 l 1,15,-1
 160 714 l 1,16,-1
 267 714 l 1,17,-1
 267 286 l 1,18,-1
 129 286 l 1,4,-1
564 0 m 1,19,-1
 564 101 l 1,20,-1
 669 205 l 2,21,22
 710 246 710 246 726 268 c 128,-1,23
 742 290 742 290 742 307 c 0,24,25
 742 335 742 335 710 335 c 0,26,27
 670 335 670 335 626 292 c 1,28,-1
 557 373 l 1,29,30
 596 409 596 409 638.5 424 c 128,-1,31
 681 439 681 439 738 439 c 0,32,33
 807 439 807 439 845 408.5 c 128,-1,34
 883 378 883 378 883 323 c 0,35,36
 883 283 883 283 864.5 251.5 c 128,-1,37
 846 220 846 220 820 195 c 2,38,-1
 724 110 l 1,39,-1
 893 110 l 1,40,-1
 893 0 l 1,41,-1
 564 0 l 1,19,-1
EndSplineSet
EndChar

StartChar: threequarters
Encoding: 190 190 128
Width: 922
Flags: W
LayerCount: 2
Fore
SplineSet
195 278 m 0,0,1
 105 278 105 278 44 312 c 1,2,-1
 44 426 l 1,3,4
 100 386 100 386 189 386 c 0,5,6
 246 386 246 386 246 419 c 0,7,8
 246 439 246 439 230 446.5 c 128,-1,9
 214 454 214 454 180 454 c 2,10,-1
 129 454 l 1,11,-1
 129 549 l 1,12,-1
 168 549 l 2,13,14
 236 549 236 549 236 587 c 0,15,16
 236 599 236 599 226 609.5 c 128,-1,17
 216 620 216 620 191 620 c 0,18,19
 167 620 167 620 145.5 612 c 128,-1,20
 124 604 124 604 98 584 c 1,21,-1
 41 667 l 1,22,23
 115 723 115 723 208 723 c 0,24,25
 280 723 280 723 322 695 c 128,-1,26
 364 667 364 667 364 618 c 0,27,28
 364 580 364 580 346 553.5 c 128,-1,29
 328 527 328 527 285 511 c 1,30,-1
 285 507 l 1,31,32
 378 483 378 483 378 402 c 0,33,34
 378 343 378 343 330 310.5 c 128,-1,35
 282 278 282 278 195 278 c 0,0,1
227 0 m 1,36,-1
 595 714 l 1,37,-1
 742 714 l 1,38,-1
 374 0 l 1,39,-1
 227 0 l 1,36,-1
718 0 m 1,40,-1
 718 68 l 1,41,-1
 537 68 l 1,42,-1
 537 160 l 1,43,-1
 708 431 l 1,44,-1
 852 431 l 1,45,-1
 852 166 l 1,46,-1
 913 166 l 1,47,-1
 913 68 l 1,48,-1
 852 68 l 1,49,-1
 852 0 l 1,50,-1
 718 0 l 1,40,-1
641 166 m 1,51,-1
 718 166 l 1,52,-1
 718 247 l 2,53,54
 718 282 718 282 721 313 c 1,55,56
 711 288 711 288 703.5 272 c 128,-1,57
 696 256 696 256 691 248 c 2,58,-1
 641 166 l 1,51,-1
EndSplineSet
EndChar

StartChar: AE
Encoding: 198 198 136
Width: 946
GlyphClass: 2
Flags: W
AnchorPoint: "Anchor-2" 528 714 basechar 0
AnchorPoint: "Anchor-0" 473 0 basechar 0
LayerCount: 2
Fore
SplineSet
898 0 m 1,0,-1
 473 0 l 1,1,-1
 473 134 l 1,2,-1
 260 134 l 1,3,-1
 211 0 l 1,4,-1
 -5 0 l 1,5,-1
 302 714 l 1,6,-1
 898 714 l 1,7,-1
 898 559 l 1,8,-1
 667 559 l 1,9,-1
 667 447 l 1,10,-1
 881 447 l 1,11,-1
 881 292 l 1,12,-1
 667 292 l 1,13,-1
 667 157 l 1,14,-1
 898 157 l 1,15,-1
 898 0 l 1,0,-1
319 294 m 1,16,-1
 473 294 l 1,17,-1
 473 551 l 1,18,-1
 419 551 l 1,19,-1
 319 294 l 1,16,-1
EndSplineSet
Substitution2: "'c2sc' Capitals to Small Capitals lookup 33 subtable" ae.sc
EndChar

StartChar: Eth
Encoding: 208 208 146
Width: 734
GlyphClass: 2
Flags: W
AnchorPoint: "Anchor-2" 367 714 basechar 0
AnchorPoint: "Anchor-0" 367 0 basechar 0
LayerCount: 2
Fore
SplineSet
324 714 m 2,0,1
 496 714 496 714 589.5 626 c 128,-1,2
 683 538 683 538 683 372 c 0,3,4
 683 248 683 248 636.5 165 c 128,-1,5
 590 82 590 82 506 41 c 128,-1,6
 422 0 422 0 308 0 c 2,7,-1
 77 0 l 1,8,-1
 77 275 l 1,9,-1
 15 275 l 1,10,-1
 15 431 l 1,11,-1
 77 431 l 1,12,-1
 77 714 l 1,13,-1
 324 714 l 2,0,1
326 558 m 2,14,-1
 270 558 l 1,15,-1
 270 431 l 1,16,-1
 373 431 l 1,17,-1
 373 275 l 1,18,-1
 270 275 l 1,19,-1
 270 158 l 1,20,-1
 313 158 l 2,21,22
 401 158 401 158 442 209 c 128,-1,23
 483 260 483 260 483 365 c 0,24,25
 483 558 483 558 326 558 c 2,14,-1
EndSplineSet
Substitution2: "'c2sc' Capitals to Small Capitals lookup 33 subtable" eth.sc
EndChar

StartChar: multiply
Encoding: 215 215 153
Width: 586
Flags: W
LayerCount: 2
Fore
SplineSet
424 576 m 1,0,-1
 516 487 l 1,1,-1
 382 353 l 1,2,-1
 514 220 l 1,3,-1
 424 130 l 1,4,-1
 290 262 l 1,5,-1
 158 131 l 1,6,-1
 70 222 l 1,7,-1
 199 353 l 1,8,-1
 69 484 l 1,9,-1
 158 576 l 1,10,-1
 290 446 l 1,11,-1
 424 576 l 1,0,-1
EndSplineSet
EndChar

StartChar: Oslash
Encoding: 216 216 154
Width: 797
GlyphClass: 2
Flags: W
AnchorPoint: "Anchor-2" 402 714 basechar 0
AnchorPoint: "Anchor-0" 399 0 basechar 0
LayerCount: 2
Fore
SplineSet
745 358 m 0,0,1
 745 247 745 247 709.5 164.5 c 128,-1,2
 674 82 674 82 597 36 c 128,-1,3
 520 -10 520 -10 398 -10 c 0,4,5
 312 -10 312 -10 248 11 c 1,6,-1
 207 -53 l 1,7,-1
 113 8 l 1,8,-1
 154 69 l 1,9,10
 101 118 101 118 76 191.5 c 128,-1,11
 51 265 51 265 51 359 c 0,12,13
 51 470 51 470 88 552 c 128,-1,14
 125 634 125 634 201.5 679.5 c 128,-1,15
 278 725 278 725 399 725 c 0,16,17
 494 725 494 725 560 698 c 1,18,-1
 597 756 l 1,19,-1
 690 700 l 1,20,-1
 650 639 l 1,21,22
 700 591 700 591 722.5 519 c 128,-1,23
 745 447 745 447 745 358 c 0,0,1
254 358 m 0,24,25
 254 324 254 324 257 294.5 c 128,-1,26
 260 265 260 265 268 241 c 1,27,-1
 465 553 l 1,28,29
 451 559 451 559 434 563 c 128,-1,30
 417 567 417 567 399 567 c 0,31,32
 320 567 320 567 287 511 c 128,-1,33
 254 455 254 455 254 358 c 0,24,25
542 358 m 0,34,35
 542 419 542 419 533 461 c 1,36,-1
 341 158 l 1,37,38
 353 155 353 155 367.5 153 c 128,-1,39
 382 151 382 151 398 151 c 0,40,41
 478 151 478 151 510 206 c 128,-1,42
 542 261 542 261 542 358 c 0,34,35
EndSplineSet
Substitution2: "'c2sc' Capitals to Small Capitals lookup 33 subtable" oslash.sc
EndChar

StartChar: Thorn
Encoding: 222 222 160
Width: 627
GlyphClass: 2
Flags: W
AnchorPoint: "Anchor-2" 314 714 basechar 0
AnchorPoint: "Anchor-0" 314 0 basechar 0
LayerCount: 2
Fore
SplineSet
595 383 m 0,0,1
 595 334 595 334 581 289.5 c 128,-1,2
 567 245 567 245 535.5 209.5 c 128,-1,3
 504 174 504 174 452 153.5 c 128,-1,4
 400 133 400 133 324 133 c 2,5,-1
 270 133 l 1,6,-1
 270 0 l 1,7,-1
 77 0 l 1,8,-1
 77 714 l 1,9,-1
 270 714 l 1,10,-1
 270 610 l 1,11,-1
 324 610 l 2,12,13
 460 610 460 610 527.5 551 c 128,-1,14
 595 492 595 492 595 383 c 0,0,1
270 290 m 1,15,-1
 305 290 l 2,16,17
 342 290 342 290 371 311.5 c 128,-1,18
 400 333 400 333 400 382 c 0,19,20
 400 416 400 416 381 435 c 128,-1,21
 362 454 362 454 320 454 c 2,22,-1
 270 454 l 1,23,-1
 270 290 l 1,15,-1
EndSplineSet
Substitution2: "'c2sc' Capitals to Small Capitals lookup 33 subtable" thorn.sc
EndChar

StartChar: germandbls
Encoding: 223 223 161
Width: 750
GlyphClass: 2
Flags: W
AnchorPoint: "Anchor-2" 375 765 basechar 0
AnchorPoint: "Anchor-0" 375 0 basechar 0
LayerCount: 2
Fore
SplineSet
654 581 m 0,0,1
 654 539 654 539 634 508.5 c 128,-1,2
 614 478 614 478 588.5 457 c 128,-1,3
 563 436 563 436 543 421 c 128,-1,4
 523 406 523 406 523 396 c 0,5,6
 523 377 523 377 548.5 364.5 c 128,-1,7
 574 352 574 352 624 320 c 256,8,9
 674 288 674 288 697.5 254.5 c 128,-1,10
 721 221 721 221 721 163 c 0,11,12
 721 79 721 79 664.5 34.5 c 128,-1,13
 608 -10 608 -10 500 -10 c 0,14,15
 432 -10 432 -10 391 -4 c 128,-1,16
 350 2 350 2 319 19 c 1,17,-1
 319 161 l 1,18,19
 336 151 336 151 360 142 c 128,-1,20
 384 133 384 133 409.5 127.5 c 128,-1,21
 435 122 435 122 455 122 c 0,22,23
 483 122 483 122 502.5 133 c 128,-1,24
 522 144 522 144 522 164 c 0,25,26
 522 175 522 175 516.5 184.5 c 128,-1,27
 511 194 511 194 491.5 207 c 128,-1,28
 472 220 472 220 431 241 c 0,29,30
 370 273 370 273 346 301.5 c 128,-1,31
 322 330 322 330 322 369 c 0,32,33
 322 400 322 400 335.5 421.5 c 128,-1,34
 349 443 349 443 369.5 459.5 c 128,-1,35
 390 476 390 476 410.5 490.5 c 128,-1,36
 431 505 431 505 444.5 521.5 c 128,-1,37
 458 538 458 538 458 561 c 0,38,39
 458 586 458 586 433.5 602.5 c 128,-1,40
 409 619 409 619 365 619 c 0,41,42
 310 619 310 619 283.5 592.5 c 128,-1,43
 257 566 257 566 257 517 c 2,44,-1
 257 0 l 1,45,-1
 66 0 l 1,46,-1
 66 537 l 2,47,48
 66 610 66 610 105 661 c 128,-1,49
 144 712 144 712 211.5 738.5 c 128,-1,50
 279 765 279 765 365 765 c 0,51,52
 449 765 449 765 514.5 744.5 c 128,-1,53
 580 724 580 724 617 683 c 128,-1,54
 654 642 654 642 654 581 c 0,0,1
EndSplineSet
Substitution2: "'smcp' Lowercase to Small Capitals lookup 34 subtable" germandbls.sc
EndChar

StartChar: ae
Encoding: 230 230 168
Width: 935
GlyphClass: 2
Flags: W
AnchorPoint: "Anchor-2" 481 553 basechar 0
AnchorPoint: "Anchor-0" 468 0 basechar 0
LayerCount: 2
Fore
SplineSet
653 563 m 0,0,1
 723 563 723 563 777 535 c 128,-1,2
 831 507 831 507 862 450.5 c 128,-1,3
 893 394 893 394 893 309 c 2,4,-1
 893 225 l 1,5,-1
 553 225 l 1,6,7
 555 184 555 184 586.5 155 c 128,-1,8
 618 126 618 126 680 126 c 0,9,10
 718 126 718 126 764.5 135 c 128,-1,11
 811 144 811 144 858 168 c 1,12,-1
 858 31 l 1,13,14
 818 10 818 10 772 0 c 128,-1,15
 726 -10 726 -10 655 -10 c 0,16,17
 592 -10 592 -10 537 12.5 c 128,-1,18
 482 35 482 35 445 83 c 1,19,20
 411 48 411 48 380.5 27.5 c 128,-1,21
 350 7 350 7 311 -1.5 c 128,-1,22
 272 -10 272 -10 212 -10 c 0,23,24
 166 -10 166 -10 126 9.5 c 128,-1,25
 86 29 86 29 61 69.5 c 128,-1,26
 36 110 36 110 36 172 c 256,27,28
 36 234 36 234 66.5 272 c 128,-1,29
 97 310 97 310 151.5 328 c 128,-1,30
 206 346 206 346 279 349 c 2,31,-1
 368 352 l 1,32,-1
 368 361 l 2,33,34
 368 401 368 401 348 414.5 c 128,-1,35
 328 428 328 428 302 428 c 0,36,37
 269 428 269 428 228.5 417.5 c 128,-1,38
 188 407 188 407 149 389 c 1,39,-1
 95 514 l 1,40,41
 142 539 142 539 199 551 c 128,-1,42
 256 563 256 563 317 563 c 0,43,44
 414 563 414 563 481 517 c 1,45,46
 516 541 516 541 556 552 c 128,-1,47
 596 563 596 563 653 563 c 0,0,1
642 433 m 0,48,49
 607 433 607 433 583.5 413.5 c 128,-1,50
 560 394 560 394 556 345 c 1,51,-1
 722 345 l 1,52,53
 721 381 721 381 700.5 407 c 128,-1,54
 680 433 680 433 642 433 c 0,48,49
369 247 m 1,55,-1
 328 245 l 2,56,57
 272 244 272 244 251.5 225 c 128,-1,58
 231 206 231 206 231 174 c 0,59,60
 231 147 231 147 246 136 c 128,-1,61
 261 125 261 125 286 125 c 0,62,63
 320 125 320 125 344.5 147 c 128,-1,64
 369 169 369 169 369 204 c 2,65,-1
 369 247 l 1,55,-1
EndSplineSet
Substitution2: "'smcp' Lowercase to Small Capitals lookup 34 subtable" ae.sc
EndChar

StartChar: eth
Encoding: 240 240 178
Width: 641
GlyphClass: 2
Flags: W
AnchorPoint: "Anchor-2" 321 769 basechar 0
AnchorPoint: "Anchor-0" 321 0 basechar 0
LayerCount: 2
Fore
SplineSet
234 768 m 1,0,1
 273 752 273 752 305 736 c 128,-1,2
 337 720 337 720 364 702 c 1,3,-1
 466 769 l 1,4,-1
 522 680 l 1,5,-1
 451 633 l 1,6,7
 522 564 522 564 558 482 c 128,-1,8
 594 400 594 400 594 283 c 0,9,10
 594 192 594 192 560 126.5 c 128,-1,11
 526 61 526 61 464 25.5 c 128,-1,12
 402 -10 402 -10 317 -10 c 0,13,14
 238 -10 238 -10 176 19 c 128,-1,15
 114 48 114 48 78.5 104 c 128,-1,16
 43 160 43 160 43 243 c 256,17,18
 43 326 43 326 74 382 c 128,-1,19
 105 438 105 438 157.5 466.5 c 128,-1,20
 210 495 210 495 277 495 c 0,21,22
 326 495 326 495 354.5 484.5 c 128,-1,23
 383 474 383 474 396 454 c 1,24,-1
 400 456 l 1,25,26
 386 483 386 483 370 508 c 128,-1,27
 354 533 354 533 330 557 c 1,28,-1
 241 499 l 1,29,-1
 184 589 l 1,30,-1
 254 634 l 1,31,32
 239 644 239 644 219.5 656 c 128,-1,33
 200 668 200 668 181 679 c 1,34,-1
 234 768 l 1,0,1
319 358 m 0,35,36
 274 358 274 358 256.5 330.5 c 128,-1,37
 239 303 239 303 239 244 c 0,38,39
 239 191 239 191 257 158.5 c 128,-1,40
 275 126 275 126 319 126 c 256,41,42
 363 126 363 126 381 161 c 128,-1,43
 399 196 399 196 399 266 c 0,44,45
 399 300 399 300 379.5 329 c 128,-1,46
 360 358 360 358 319 358 c 0,35,36
EndSplineSet
Substitution2: "'smcp' Lowercase to Small Capitals lookup 34 subtable" eth.sc
EndChar

StartChar: divide
Encoding: 247 247 185
Width: 586
Flags: W
LayerCount: 2
Fore
SplineSet
292 460 m 0,0,1
 261 460 261 460 238.5 480 c 128,-1,2
 216 500 216 500 216 543 c 0,3,4
 216 590 216 590 238.5 608 c 128,-1,5
 261 626 261 626 292 626 c 0,6,7
 322 626 322 626 345.5 608 c 128,-1,8
 369 590 369 590 369 543 c 0,9,10
 369 500 369 500 345.5 480 c 128,-1,11
 322 460 322 460 292 460 c 0,0,1
45 287 m 1,12,-1
 45 418 l 1,13,-1
 540 418 l 1,14,-1
 540 287 l 1,15,-1
 45 287 l 1,12,-1
292 79 m 0,16,17
 261 79 261 79 238.5 98.5 c 128,-1,18
 216 118 216 118 216 162 c 0,19,20
 216 208 216 208 238.5 226.5 c 128,-1,21
 261 245 261 245 292 245 c 0,22,23
 322 245 322 245 345.5 226.5 c 128,-1,24
 369 208 369 208 369 162 c 0,25,26
 369 118 369 118 345.5 98.5 c 128,-1,27
 322 79 322 79 292 79 c 0,16,17
EndSplineSet
EndChar

StartChar: oslash
Encoding: 248 248 186
Width: 665
GlyphClass: 2
Flags: W
AnchorPoint: "Anchor-2" 334 553 basechar 0
AnchorPoint: "Anchor-0" 333 0 basechar 0
LayerCount: 2
Fore
SplineSet
622 278 m 0,0,1
 622 139 622 139 544.5 64.5 c 128,-1,2
 467 -10 467 -10 331 -10 c 0,3,4
 272 -10 272 -10 219 7 c 1,5,-1
 178 -57 l 1,6,-1
 95 -5 l 1,7,-1
 134 55 l 1,8,9
 90 92 90 92 66 148 c 128,-1,10
 42 204 42 204 42 278 c 0,11,12
 42 415 42 415 120 489 c 128,-1,13
 198 563 198 563 334 563 c 0,14,15
 365 563 365 563 393.5 558 c 128,-1,16
 422 553 422 553 448 544 c 1,17,-1
 483 598 l 1,18,-1
 565 547 l 1,19,-1
 532 496 l 1,20,21
 574 460 574 460 598 405 c 128,-1,22
 622 350 622 350 622 278 c 0,0,1
225 278 m 0,23,24
 225 257 225 257 226 239.5 c 128,-1,25
 227 222 227 222 231 206 c 1,26,-1
 372 425 l 1,27,28
 354 431 354 431 332 431 c 0,29,30
 273 431 273 431 249 392.5 c 128,-1,31
 225 354 225 354 225 278 c 0,23,24
439 278 m 0,32,33
 439 296 439 296 438 312 c 128,-1,34
 437 328 437 328 434 342 c 1,35,-1
 296 126 l 1,36,37
 311 122 311 122 333 122 c 0,38,39
 394 122 394 122 416.5 162 c 128,-1,40
 439 202 439 202 439 278 c 0,32,33
EndSplineSet
Substitution2: "'smcp' Lowercase to Small Capitals lookup 34 subtable" oslash.sc
EndChar

StartChar: thorn
Encoding: 254 254 192
Width: 643
GlyphClass: 2
Flags: W
AnchorPoint: "Anchor-2" 322 760 basechar 0
AnchorPoint: "Anchor-0" 322 -240 basechar 0
LayerCount: 2
Fore
SplineSet
600 278 m 0,0,1
 600 184 600 184 573.5 119.5 c 128,-1,2
 547 55 547 55 501.5 22.5 c 128,-1,3
 456 -10 456 -10 397 -10 c 0,4,5
 345 -10 345 -10 311.5 9.5 c 128,-1,6
 278 29 278 29 257 53 c 1,7,-1
 250 53 l 1,8,9
 253 38 253 38 255 16.5 c 128,-1,10
 257 -5 257 -5 257 -21 c 2,11,-1
 257 -240 l 1,12,-1
 66 -240 l 1,13,-1
 66 760 l 1,14,-1
 257 760 l 1,15,-1
 257 592 l 2,16,17
 257 552 257 552 254 524.5 c 128,-1,18
 251 497 251 497 248 482 c 1,19,-1
 257 482 l 1,20,21
 276 516 276 516 312.5 539.5 c 128,-1,22
 349 563 349 563 404 563 c 0,23,24
 490 563 490 563 545 490.5 c 128,-1,25
 600 418 600 418 600 278 c 0,0,1
406 280 m 0,26,27
 406 345 406 345 390 379 c 128,-1,28
 374 413 374 413 333 413 c 256,29,30
 292 413 292 413 275 383 c 128,-1,31
 258 353 258 353 257 293 c 2,32,-1
 257 279 l 2,33,34
 257 213 257 213 274.5 178.5 c 128,-1,35
 292 144 292 144 336 144 c 0,36,37
 375 144 375 144 390.5 178.5 c 128,-1,38
 406 213 406 213 406 280 c 0,26,27
EndSplineSet
Substitution2: "'smcp' Lowercase to Small Capitals lookup 34 subtable" thorn.sc
EndChar

StartChar: dcroat
Encoding: 273 273 211
Width: 663
GlyphClass: 2
Flags: W
AnchorPoint: "Anchor-2" 332 760 basechar 0
AnchorPoint: "Anchor-0" 332 0 basechar 0
LayerCount: 2
Fore
SplineSet
230 -10 m 0,0,1
 148 -10 148 -10 95 57 c 128,-1,2
 42 124 42 124 42 251 c 0,3,4
 42 386 42 386 100 450 c 128,-1,5
 158 514 158 514 248 514 c 0,6,7
 304 514 304 514 339 491 c 128,-1,8
 374 468 374 468 396 434 c 1,9,-1
 400 434 l 1,10,11
 397 446 397 446 391 483 c 128,-1,12
 385 520 385 520 385 565 c 2,13,-1
 385 570 l 1,14,-1
 272 570 l 1,15,-1
 272 688 l 1,16,-1
 385 688 l 1,17,-1
 385 760 l 1,18,-1
 577 760 l 1,19,-1
 577 688 l 1,20,-1
 653 688 l 1,21,-1
 653 570 l 1,22,-1
 577 570 l 1,23,-1
 577 0 l 1,24,-1
 421 0 l 1,25,-1
 378 70 l 1,26,-1
 371 70 l 1,27,28
 350 37 350 37 316.5 13.5 c 128,-1,29
 283 -10 283 -10 230 -10 c 0,0,1
326 141 m 0,30,31
 367 141 367 141 383.5 165 c 128,-1,32
 400 189 400 189 401 238 c 2,33,-1
 401 250 l 2,34,35
 401 303 401 303 379.5 331.5 c 128,-1,36
 358 360 358 360 323 360 c 0,37,38
 293 360 293 360 273 335.5 c 128,-1,39
 253 311 253 311 253 249 c 0,40,41
 253 207 253 207 270.5 174 c 128,-1,42
 288 141 288 141 326 141 c 0,30,31
EndSplineSet
Substitution2: "'smcp' Lowercase to Small Capitals lookup 34 subtable" dcroat.sc
EndChar

StartChar: eogonek
Encoding: 281 281 219
Width: 618
GlyphClass: 2
Flags: W
AnchorPoint: "Anchor-3" 598 553 basechar 0
AnchorPoint: "Anchor-2" 309 553 basechar 0
AnchorPoint: "Anchor-0" 333 -240 basechar 0
LayerCount: 2
Fore
SplineSet
447 -91 m 0,0,1
 447 -110 447 -110 459 -120 c 128,-1,2
 471 -130 471 -130 488 -130 c 0,3,4
 503 -130 503 -130 517.5 -127 c 128,-1,5
 532 -124 532 -124 543 -119 c 1,6,-1
 543 -227 l 1,7,8
 526 -232 526 -232 505.5 -236 c 128,-1,9
 485 -240 485 -240 458 -240 c 0,10,11
 401 -240 401 -240 362 -210 c 128,-1,12
 323 -180 323 -180 323 -127 c 0,13,14
 323 -100 323 -100 338 -71 c 128,-1,15
 353 -42 353 -42 393 -8 c 1,16,17
 366 -10 366 -10 333 -10 c 0,18,19
 249 -10 249 -10 183.5 19.5 c 128,-1,20
 118 49 118 49 80 111.5 c 128,-1,21
 42 174 42 174 42 273 c 256,22,23
 42 372 42 372 76.5 436.5 c 128,-1,24
 111 501 111 501 172.5 532 c 128,-1,25
 234 563 234 563 315 563 c 0,26,27
 436 563 436 563 506 500 c 128,-1,28
 576 437 576 437 576 310 c 2,29,-1
 576 225 l 1,30,-1
 235 225 l 1,31,32
 237 182 237 182 267.5 154 c 128,-1,33
 298 126 298 126 356 126 c 0,34,35
 408 126 408 126 451 136 c 128,-1,36
 494 146 494 146 540 168 c 1,37,-1
 540 31 l 1,38,39
 500 -4 500 -4 480 -25.5 c 128,-1,40
 460 -47 460 -47 453.5 -61.5 c 128,-1,41
 447 -76 447 -76 447 -91 c 0,0,1
322 433 m 0,42,43
 288 433 288 433 265.5 412 c 128,-1,44
 243 391 243 391 239 345 c 1,45,-1
 403 345 l 1,46,47
 402 382 402 382 381.5 407.5 c 128,-1,48
 361 433 361 433 322 433 c 0,42,43
EndSplineSet
Substitution2: "'smcp' Lowercase to Small Capitals lookup 34 subtable" eogonek.sc
Substitution2: "'locl' Localized Forms in Latin lookup 9 subtable" eogonek.loclNAV
Ligature2: "'ccmp' Glyph Composition/Decomposition lookup 6 subtable" e uni0328
EndChar

StartChar: Hbar
Encoding: 294 294 232
Width: 782
GlyphClass: 2
Flags: W
AnchorPoint: "Anchor-2" 391 714 basechar 0
AnchorPoint: "Anchor-0" 391 0 basechar 0
LayerCount: 2
Fore
SplineSet
85 0 m 1,0,-1
 85 521 l 1,1,-1
 0 521 l 1,2,-1
 0 635 l 1,3,-1
 85 635 l 1,4,-1
 85 714 l 1,5,-1
 278 714 l 1,6,-1
 278 635 l 1,7,-1
 503 635 l 1,8,-1
 503 714 l 1,9,-1
 697 714 l 1,10,-1
 697 635 l 1,11,-1
 782 635 l 1,12,-1
 782 521 l 1,13,-1
 697 521 l 1,14,-1
 697 0 l 1,15,-1
 503 0 l 1,16,-1
 503 291 l 1,17,-1
 278 291 l 1,18,-1
 278 0 l 1,19,-1
 85 0 l 1,0,-1
278 449 m 1,20,-1
 503 449 l 1,21,-1
 503 521 l 1,22,-1
 278 521 l 1,23,-1
 278 449 l 1,20,-1
EndSplineSet
Substitution2: "'c2sc' Capitals to Small Capitals lookup 33 subtable" hbar.sc
EndChar

StartChar: hbar
Encoding: 295 295 233
Width: 680
GlyphClass: 2
Flags: W
AnchorPoint: "Anchor-2" 164 760 basechar 0
AnchorPoint: "Anchor-0" 340 0 basechar 0
LayerCount: 2
Fore
SplineSet
267 760 m 1,0,-1
 267 688 l 1,1,-1
 381 688 l 1,2,-1
 381 570 l 1,3,-1
 266 570 l 1,4,-1
 266 550 l 2,5,6
 266 527 266 527 263.5 493 c 128,-1,7
 261 459 261 459 259 436 c 1,8,-1
 270 436 l 1,9,10
 297 478 297 478 334 496 c 128,-1,11
 371 514 371 514 421 514 c 0,12,13
 476 514 476 514 520 493 c 128,-1,14
 564 472 564 472 590 427 c 128,-1,15
 616 382 616 382 616 312 c 2,16,-1
 616 0 l 1,17,-1
 424 0 l 1,18,-1
 424 253 l 2,19,20
 424 364 424 364 358 364 c 0,21,22
 306 364 306 364 286.5 320 c 128,-1,23
 267 276 267 276 267 193 c 2,24,-1
 267 0 l 1,25,-1
 76 0 l 1,26,-1
 76 570 l 1,27,-1
 0 570 l 1,28,-1
 0 688 l 1,29,-1
 76 688 l 1,30,-1
 76 760 l 1,31,-1
 267 760 l 1,0,-1
EndSplineSet
Substitution2: "'smcp' Lowercase to Small Capitals lookup 34 subtable" hbar.sc
EndChar

StartChar: kgreenlandic
Encoding: 312 312 249
Width: 659
GlyphClass: 2
Flags: W
AnchorPoint: "Anchor-2" 330 553 basechar 0
AnchorPoint: "Anchor-0" 330 0 basechar 0
LayerCount: 2
Fore
SplineSet
650 553 m 1,0,-1
 452 311 l 1,1,-1
 659 0 l 1,2,-1
 444 0 l 1,3,-1
 321 195 l 1,4,-1
 258 147 l 1,5,-1
 258 0 l 1,6,-1
 66 0 l 1,7,-1
 66 553 l 1,8,-1
 258 553 l 1,9,-1
 258 433 l 2,10,11
 258 392 258 392 256 362.5 c 128,-1,12
 254 333 254 333 253 314 c 1,13,-1
 257 314 l 1,14,15
 266 327 266 327 281 350 c 128,-1,16
 296 373 296 373 316 399 c 2,17,-1
 436 553 l 1,18,-1
 650 553 l 1,0,-1
EndSplineSet
EndChar

StartChar: Lslash
Encoding: 321 321 258
Width: 609
GlyphClass: 2
Flags: W
AnchorPoint: "Anchor-2" 170 714 basechar 0
AnchorPoint: "Anchor-0" 309 0 basechar 0
LayerCount: 2
Fore
SplineSet
104 0 m 1,0,-1
 104 235 l 1,1,-1
 54 207 l 1,2,-1
 -15 328 l 1,3,-1
 104 399 l 1,4,-1
 104 714 l 1,5,-1
 297 714 l 1,6,-1
 297 518 l 1,7,-1
 400 582 l 1,8,-1
 472 463 l 1,9,-1
 297 354 l 1,10,-1
 297 156 l 1,11,-1
 572 156 l 1,12,-1
 572 0 l 1,13,-1
 104 0 l 1,0,-1
EndSplineSet
Substitution2: "'c2sc' Capitals to Small Capitals lookup 33 subtable" lslash.sc
EndChar

StartChar: lslash
Encoding: 322 322 259
Width: 417
GlyphClass: 2
Flags: W
AnchorPoint: "Anchor-2" 209 760 basechar 0
AnchorPoint: "Anchor-0" 209 0 basechar 0
LayerCount: 2
Fore
SplineSet
114 0 m 1,0,-1
 114 197 l 1,1,-1
 53 164 l 1,2,-1
 -15 285 l 1,3,-1
 114 359 l 1,4,-1
 114 760 l 1,5,-1
 305 760 l 1,6,-1
 305 474 l 1,7,-1
 361 508 l 1,8,-1
 432 387 l 1,9,-1
 305 312 l 1,10,-1
 305 0 l 1,11,-1
 114 0 l 1,0,-1
EndSplineSet
Substitution2: "'smcp' Lowercase to Small Capitals lookup 34 subtable" lslash.sc
EndChar

StartChar: Eng
Encoding: 330 330 267
Width: 834
GlyphClass: 2
Flags: W
AnchorPoint: "Anchor-2" 417 714 basechar 0
AnchorPoint: "Anchor-0" 417 -239 basechar 0
LayerCount: 2
Fore
SplineSet
502 -239 m 0,0,1
 466 -239 466 -239 439 -236 c 128,-1,2
 412 -233 412 -233 393 -229 c 1,3,-1
 393 -79 l 1,4,5
 412 -82 412 -82 432 -85.5 c 128,-1,6
 452 -89 452 -89 477 -89 c 0,7,8
 535 -89 535 -89 563 -66.5 c 128,-1,9
 591 -44 591 -44 595 0 c 1,10,-1
 243 503 l 1,11,-1
 239 503 l 1,12,13
 241 484 241 484 243 450 c 128,-1,14
 245 416 245 416 246.5 376 c 128,-1,15
 248 336 248 336 248 300 c 2,16,-1
 248 0 l 1,17,-1
 77 0 l 1,18,-1
 77 714 l 1,19,-1
 309 714 l 1,20,-1
 589 319 l 1,21,-1
 593 319 l 1,22,23
 592 338 592 338 590 374 c 128,-1,24
 588 410 588 410 586.5 451 c 128,-1,25
 585 492 585 492 585 525 c 2,26,-1
 585 714 l 1,27,-1
 757 714 l 1,28,-1
 757 -4 l 2,29,30
 757 -80 757 -80 724.5 -132.5 c 128,-1,31
 692 -185 692 -185 634.5 -212 c 128,-1,32
 577 -239 577 -239 502 -239 c 0,0,1
EndSplineSet
Substitution2: "'c2sc' Capitals to Small Capitals lookup 33 subtable" eng.sc
AlternateSubs2: "'aalt' Access All Alternates lookup 1 subtable" Eng.alt1 Eng.alt2 Eng.alt3
EndChar

StartChar: eng
Encoding: 331 331 268
Width: 670
GlyphClass: 2
Flags: W
AnchorPoint: "Anchor-2" 335 553 basechar 0
AnchorPoint: "Anchor-0" 335 -240 basechar 0
LayerCount: 2
Fore
SplineSet
405 -240 m 0,0,1
 382 -240 382 -240 352 -236.5 c 128,-1,2
 322 -233 322 -233 302 -228 c 1,3,-1
 302 -79 l 1,4,5
 318 -84 318 -84 330.5 -86 c 128,-1,6
 343 -88 343 -88 359 -88 c 0,7,8
 381 -88 381 -88 397.5 -71.5 c 128,-1,9
 414 -55 414 -55 414 -5 c 2,10,-1
 414 320 l 2,11,12
 414 413 414 413 348 413 c 0,13,14
 294 413 294 413 275.5 368.5 c 128,-1,15
 257 324 257 324 257 242 c 2,16,-1
 257 0 l 1,17,-1
 66 0 l 1,18,-1
 66 553 l 1,19,-1
 210 553 l 1,20,-1
 234 485 l 1,21,-1
 246 485 l 1,22,23
 272 527 272 527 318 545 c 128,-1,24
 364 563 364 563 413 563 c 0,25,26
 466 563 466 563 510 542 c 128,-1,27
 554 521 554 521 580 476 c 128,-1,28
 606 431 606 431 606 360 c 2,29,-1
 606 -45 l 2,30,31
 606 -95 606 -95 586.5 -139.5 c 128,-1,32
 567 -184 567 -184 523 -212 c 128,-1,33
 479 -240 479 -240 405 -240 c 0,0,1
EndSplineSet
Substitution2: "'smcp' Lowercase to Small Capitals lookup 34 subtable" eng.sc
EndChar

StartChar: OE
Encoding: 338 338 275
Width: 957
GlyphClass: 2
Flags: W
AnchorPoint: "Anchor-2" 479 714 basechar 0
AnchorPoint: "Anchor-0" 479 0 basechar 0
LayerCount: 2
Fore
SplineSet
379 725 m 0,0,1
 406 725 406 725 442.5 722 c 128,-1,2
 479 719 479 719 501 714 c 1,3,-1
 909 714 l 1,4,-1
 909 559 l 1,5,-1
 678 559 l 1,6,-1
 678 447 l 1,7,-1
 891 447 l 1,8,-1
 891 292 l 1,9,-1
 678 292 l 1,10,-1
 678 157 l 1,11,-1
 909 157 l 1,12,-1
 909 0 l 1,13,-1
 497 0 l 1,14,15
 476 -4 476 -4 440 -7 c 128,-1,16
 404 -10 404 -10 378 -10 c 0,17,18
 270 -10 270 -10 197 36 c 128,-1,19
 124 82 124 82 87.5 165 c 128,-1,20
 51 248 51 248 51 359 c 256,21,22
 51 470 51 470 87 552 c 128,-1,23
 123 634 123 634 195.5 679.5 c 128,-1,24
 268 725 268 725 379 725 c 0,0,1
380 567 m 0,25,26
 316 567 316 567 285 511 c 128,-1,27
 254 455 254 455 254 358 c 256,28,29
 254 261 254 261 284.5 206 c 128,-1,30
 315 151 315 151 379 151 c 0,31,32
 410 151 410 151 438.5 156.5 c 128,-1,33
 467 162 467 162 485 172 c 1,34,-1
 485 543 l 1,35,36
 468 554 468 554 439.5 560.5 c 128,-1,37
 411 567 411 567 380 567 c 0,25,26
EndSplineSet
Substitution2: "'c2sc' Capitals to Small Capitals lookup 33 subtable" oe.sc
EndChar

StartChar: oe
Encoding: 339 339 276
Width: 980
GlyphClass: 2
Flags: W
AnchorPoint: "Anchor-2" 490 553 basechar 0
AnchorPoint: "Anchor-0" 490 0 basechar 0
LayerCount: 2
Fore
SplineSet
698 563 m 0,0,1
 768 563 768 563 822 535 c 128,-1,2
 876 507 876 507 907 450.5 c 128,-1,3
 938 394 938 394 938 309 c 2,4,-1
 938 225 l 1,5,-1
 598 225 l 1,6,7
 600 184 600 184 632 155 c 128,-1,8
 664 126 664 126 725 126 c 0,9,10
 763 126 763 126 809.5 135 c 128,-1,11
 856 144 856 144 903 168 c 1,12,-1
 903 31 l 1,13,14
 862 10 862 10 816.5 0 c 128,-1,15
 771 -10 771 -10 700 -10 c 0,16,17
 646 -10 646 -10 598 6 c 128,-1,18
 550 22 550 22 513 57 c 1,19,20
 440 -10 440 -10 317 -10 c 0,21,22
 237 -10 237 -10 175 23.5 c 128,-1,23
 113 57 113 57 77.5 121.5 c 128,-1,24
 42 186 42 186 42 278 c 0,25,26
 42 415 42 415 116 489 c 128,-1,27
 190 563 190 563 320 563 c 0,28,29
 430 563 430 563 503 501 c 1,30,31
 539 530 539 530 586 546.5 c 128,-1,32
 633 563 633 563 698 563 c 0,0,1
687 433 m 0,33,34
 652 433 652 433 628.5 413.5 c 128,-1,35
 605 394 605 394 601 345 c 1,36,-1
 767 345 l 1,37,38
 766 381 766 381 745.5 407 c 128,-1,39
 725 433 725 433 687 433 c 0,33,34
318 421 m 0,40,41
 274 421 274 421 255.5 384.5 c 128,-1,42
 237 348 237 348 237 278 c 0,43,44
 237 207 237 207 255.5 169.5 c 128,-1,45
 274 132 274 132 319 132 c 0,46,47
 363 132 363 132 381.5 169.5 c 128,-1,48
 400 207 400 207 400 278 c 0,49,50
 400 348 400 348 381.5 384.5 c 128,-1,51
 363 421 363 421 318 421 c 0,40,41
EndSplineSet
Substitution2: "'smcp' Lowercase to Small Capitals lookup 34 subtable" oe.sc
EndChar

StartChar: Tbar
Encoding: 358 358 295
Width: 591
GlyphClass: 2
Flags: W
AnchorPoint: "Anchor-2" 296 714 basechar 0
AnchorPoint: "Anchor-0" 296 0 basechar 0
LayerCount: 2
Fore
SplineSet
199 0 m 1,0,-1
 199 267 l 1,1,-1
 98 267 l 1,2,-1
 98 426 l 1,3,-1
 199 426 l 1,4,-1
 199 556 l 1,5,-1
 25 556 l 1,6,-1
 25 714 l 1,7,-1
 566 714 l 1,8,-1
 566 556 l 1,9,-1
 392 556 l 1,10,-1
 392 426 l 1,11,-1
 495 426 l 1,12,-1
 495 267 l 1,13,-1
 392 267 l 1,14,-1
 392 0 l 1,15,-1
 199 0 l 1,0,-1
EndSplineSet
Substitution2: "'c2sc' Capitals to Small Capitals lookup 33 subtable" tbar.sc
EndChar

StartChar: tbar
Encoding: 359 359 296
Width: 480
GlyphClass: 2
Flags: W
AnchorPoint: "Anchor-3" 421 664 basechar 0
AnchorPoint: "Anchor-2" 219 664 basechar 0
AnchorPoint: "Anchor-1" 230 277 basechar 0
AnchorPoint: "Anchor-0" 264 0 basechar 0
LayerCount: 2
Fore
SplineSet
36 217 m 1,0,-1
 36 336 l 1,1,-1
 93 336 l 1,2,-1
 93 410 l 1,3,-1
 26 410 l 1,4,-1
 26 488 l 1,5,-1
 111 548 l 1,6,-1
 160 664 l 1,7,-1
 285 664 l 1,8,-1
 285 553 l 1,9,-1
 421 553 l 1,10,-1
 421 410 l 1,11,-1
 285 410 l 1,12,-1
 285 336 l 1,13,-1
 404 336 l 1,14,-1
 404 217 l 1,15,-1
 285 217 l 1,16,-1
 285 195 l 2,17,18
 285 141 285 141 337 141 c 0,19,20
 362 141 362 141 384 146.5 c 128,-1,21
 406 152 406 152 429 160 c 1,22,-1
 429 21 l 1,23,24
 398 8 398 8 363 -1 c 128,-1,25
 328 -10 328 -10 274 -10 c 256,26,27
 220 -10 220 -10 179 7 c 128,-1,28
 138 24 138 24 115.5 65.5 c 128,-1,29
 93 107 93 107 93 182 c 2,30,-1
 93 217 l 1,31,-1
 36 217 l 1,0,-1
EndSplineSet
Substitution2: "'smcp' Lowercase to Small Capitals lookup 34 subtable" tbar.sc
EndChar

StartChar: Uogonek
Encoding: 370 370 307
Width: 757
GlyphClass: 2
Flags: W
AnchorPoint: "Anchor-3" 737 714 basechar 0
AnchorPoint: "Anchor-2" 379 714 basechar 0
AnchorPoint: "Anchor-0" 377 -240 basechar 0
LayerCount: 2
Fore
SplineSet
519 -88 m 0,0,1
 519 -113 519 -113 529.5 -121.5 c 128,-1,2
 540 -130 540 -130 557 -130 c 0,3,4
 570 -130 570 -130 587 -127 c 128,-1,5
 604 -124 604 -124 615 -119 c 1,6,-1
 615 -227 l 1,7,8
 598 -232 598 -232 577.5 -236 c 128,-1,9
 557 -240 557 -240 530 -240 c 0,10,11
 473 -240 473 -240 434 -208.5 c 128,-1,12
 395 -177 395 -177 395 -118 c 0,13,14
 395 -93 395 -93 405 -65 c 128,-1,15
 415 -37 415 -37 440 -6 c 1,16,17
 410 -10 410 -10 376 -10 c 0,18,19
 228 -10 228 -10 150.5 65.5 c 128,-1,20
 73 141 73 141 73 280 c 2,21,-1
 73 714 l 1,22,-1
 267 714 l 1,23,-1
 267 295 l 2,24,25
 267 219 267 219 295.5 185 c 128,-1,26
 324 151 324 151 379 151 c 0,27,28
 438 151 438 151 464.5 185.5 c 128,-1,29
 491 220 491 220 491 296 c 2,30,-1
 491 714 l 1,31,-1
 684 714 l 1,32,-1
 684 284 l 2,33,34
 684 214 684 214 663.5 158.5 c 128,-1,35
 643 103 643 103 602 65 c 1,36,37
 564 19 564 19 541.5 -15 c 128,-1,38
 519 -49 519 -49 519 -88 c 0,0,1
EndSplineSet
Substitution2: "'c2sc' Capitals to Small Capitals lookup 33 subtable" uogonek.sc
Substitution2: "'locl' Localized Forms in Latin lookup 9 subtable" Uogonek.loclNAV
Ligature2: "'ccmp' Glyph Composition/Decomposition lookup 6 subtable" U uni0328
EndChar

StartChar: longs
Encoding: 383 383 320
Width: 403
GlyphClass: 2
Flags: W
AnchorPoint: "Anchor-2" 232 765 basechar 0
AnchorPoint: "Anchor-0" 202 0 basechar 0
LayerCount: 2
Fore
SplineSet
310 628 m 0,0,1
 278 628 278 628 267.5 610 c 128,-1,2
 257 592 257 592 257 555 c 2,3,-1
 257 0 l 1,4,-1
 66 0 l 1,5,-1
 66 559 l 2,6,7
 66 646 66 646 91 690 c 128,-1,8
 116 734 116 734 161.5 749.5 c 128,-1,9
 207 765 207 765 269 765 c 0,10,11
 321 765 321 765 359.5 757.5 c 128,-1,12
 398 750 398 750 423 739 c 1,13,-1
 386 612 l 1,14,15
 368 617 368 617 350 622.5 c 128,-1,16
 332 628 332 628 310 628 c 0,0,1
EndSplineSet
EndChar

StartChar: florin
Encoding: 402 402 321
Width: 555
GlyphClass: 2
Flags: W
AnchorPoint: "Anchor-2" 331 765 basechar 0
AnchorPoint: "Anchor-0" 277 -240 basechar 0
LayerCount: 2
Fore
SplineSet
354 765 m 0,0,1
 396 765 396 765 438 757.5 c 128,-1,2
 480 750 480 750 513 739 c 1,3,-1
 476 613 l 1,4,5
 459 618 459 618 441.5 621.5 c 128,-1,6
 424 625 424 625 408 625 c 0,7,8
 382 625 382 625 370.5 608.5 c 128,-1,9
 359 592 359 592 359 555 c 2,10,-1
 359 553 l 1,11,-1
 484 553 l 1,12,-1
 484 410 l 1,13,-1
 359 410 l 1,14,-1
 359 -41 l 2,15,16
 359 -135 359 -135 311.5 -187.5 c 128,-1,17
 264 -240 264 -240 173 -240 c 0,18,19
 147 -240 147 -240 116.5 -236 c 128,-1,20
 86 -232 86 -232 68 -226 c 1,21,-1
 68 -79 l 1,22,23
 83 -84 83 -84 94.5 -86 c 128,-1,24
 106 -88 106 -88 122 -88 c 0,25,26
 168 -88 168 -88 168 -18 c 2,27,-1
 168 410 l 1,28,-1
 95 410 l 1,29,-1
 95 504 l 1,30,-1
 172 551 l 1,31,-1
 172 569 l 2,32,33
 172 676 172 676 216 720.5 c 128,-1,34
 260 765 260 765 354 765 c 0,0,1
EndSplineSet
EndChar

StartChar: Aringacute
Encoding: 506 506 322
Width: 724
GlyphClass: 2
Flags: W
AnchorPoint: "Anchor-2" 362 958 basechar 0
AnchorPoint: "Anchor-0" 362 0 basechar 0
LayerCount: 2
Fore
SplineSet
279 874 m 1,0,-1
 279 886 l 1,1,2
 300 900 300 900 324 920 c 128,-1,3
 348 940 348 940 364 958 c 1,4,-1
 574 958 l 1,5,-1
 574 948 l 1,6,7
 566 941 566 941 545.5 930.5 c 128,-1,8
 525 920 525 920 499 909 c 128,-1,9
 473 898 473 898 448 888.5 c 128,-1,10
 423 879 423 879 406 874 c 1,11,-1
 279 874 l 1,0,-1
0 0 m 1,12,-1
 236 686 l 1,13,14
 234 694 234 694 233 703.5 c 128,-1,15
 232 713 232 713 232 723 c 0,16,17
 232 781 232 781 267.5 814 c 128,-1,18
 303 847 303 847 361 847 c 0,19,20
 416 847 416 847 455 814 c 128,-1,21
 494 781 494 781 494 724 c 0,22,23
 494 702 494 702 488 684 c 1,24,-1
 726 0 l 1,25,-1
 515 0 l 1,26,-1
 477 134 l 1,27,-1
 248 134 l 1,28,-1
 212 0 l 1,29,-1
 0 0 l 1,12,-1
361 682 m 0,30,31
 378 682 378 682 390 693.5 c 128,-1,32
 402 705 402 705 402 723 c 0,33,34
 402 742 402 742 390 753 c 128,-1,35
 378 764 378 764 361 764 c 256,36,37
 344 764 344 764 332 753 c 128,-1,38
 320 742 320 742 320 723 c 0,39,40
 320 705 320 705 330.5 693.5 c 128,-1,41
 341 682 341 682 361 682 c 0,30,31
291 294 m 1,42,-1
 437 294 l 1,43,-1
 406 396 l 2,44,45
 400 415 400 415 391.5 444 c 128,-1,46
 383 473 383 473 375.5 504.5 c 128,-1,47
 368 536 368 536 363 560 c 1,48,49
 356 523 356 523 344 477 c 128,-1,50
 332 431 332 431 321 396 c 2,51,-1
 291 294 l 1,42,-1
EndSplineSet
Substitution2: "'c2sc' Capitals to Small Capitals lookup 33 subtable" aringacute.sc
EndChar

StartChar: aringacute
Encoding: 507 507 323
Width: 623
GlyphClass: 2
Flags: W
AnchorPoint: "Anchor-2" 312 964 basechar 0
AnchorPoint: "Anchor-0" 312 0 basechar 0
LayerCount: 2
Fore
SplineSet
503 964 m 1,0,-1
 503 958 l 1,1,2
 492 946 492 946 464 928 c 128,-1,3
 436 910 436 910 404 892 c 128,-1,4
 372 874 372 874 350 862 c 1,5,-1
 226 862 l 1,6,-1
 226 870 l 1,7,8
 247 889 247 889 271 915.5 c 128,-1,9
 295 942 295 942 311 964 c 1,10,-1
 503 964 l 1,0,-1
319 836 m 0,11,12
 374 836 374 836 413 803 c 128,-1,13
 452 770 452 770 452 713 c 0,14,15
 452 655 452 655 413 622 c 128,-1,16
 374 589 374 589 319 589 c 0,17,18
 261 589 261 589 225.5 622 c 128,-1,19
 190 655 190 655 190 712 c 0,20,21
 190 770 190 770 225.5 803 c 128,-1,22
 261 836 261 836 319 836 c 0,11,12
319 753 m 256,23,24
 302 753 302 753 290 742 c 128,-1,25
 278 731 278 731 278 712 c 0,26,27
 278 694 278 694 288.5 682.5 c 128,-1,28
 299 671 299 671 319 671 c 0,29,30
 336 671 336 671 348 682.5 c 128,-1,31
 360 694 360 694 360 712 c 0,32,33
 360 731 360 731 348 742 c 128,-1,34
 336 753 336 753 319 753 c 256,23,24
336 563 m 0,35,36
 441 563 441 563 500 511 c 128,-1,37
 559 459 559 459 559 363 c 2,38,-1
 559 0 l 1,39,-1
 427 0 l 1,40,-1
 390 73 l 1,41,-1
 386 73 l 1,42,43
 362 44 362 44 338 25.5 c 128,-1,44
 314 7 314 7 282 -1.5 c 128,-1,45
 250 -10 250 -10 204 -10 c 0,46,47
 132 -10 132 -10 84 34.5 c 128,-1,48
 36 79 36 79 36 172 c 0,49,50
 36 264 36 264 95.5 304.5 c 128,-1,51
 155 345 155 345 276 349 c 2,52,-1
 368 352 l 1,53,-1
 368 360 l 2,54,55
 368 397 368 397 350 412.5 c 128,-1,56
 332 428 332 428 301 428 c 0,57,58
 268 428 268 428 228 416.5 c 128,-1,59
 188 405 188 405 147 387 c 1,60,-1
 92 513 l 1,61,62
 140 538 140 538 200.5 550.5 c 128,-1,63
 261 563 261 563 336 563 c 0,35,36
369 247 m 1,64,-1
 325 245 l 2,65,66
 272 243 272 243 251.5 224.5 c 128,-1,67
 231 206 231 206 231 176 c 0,68,69
 231 148 231 148 245.5 136.5 c 128,-1,70
 260 125 260 125 285 125 c 0,71,72
 320 125 320 125 344.5 147 c 128,-1,73
 369 169 369 169 369 204 c 2,74,-1
 369 247 l 1,64,-1
EndSplineSet
Substitution2: "'smcp' Lowercase to Small Capitals lookup 34 subtable" aringacute.sc
EndChar

StartChar: circumflex
Encoding: 710 710 330
Width: 523
Flags: W
LayerCount: 2
Fore
SplineSet
358 766 m 1,0,1
 374 743 374 743 396.5 715.5 c 128,-1,2
 419 688 419 688 442.5 662.5 c 128,-1,3
 466 637 466 637 483 620 c 1,4,-1
 483 606 l 1,5,-1
 359 606 l 1,6,7
 333 621 333 621 310 638.5 c 128,-1,8
 287 656 287 656 261 679 c 1,9,10
 235 656 235 656 213.5 639 c 128,-1,11
 192 622 192 622 166 606 c 1,12,-1
 40 606 l 1,13,-1
 40 620 l 1,14,15
 59 638 59 638 82.5 663.5 c 128,-1,16
 106 689 106 689 128.5 716 c 128,-1,17
 151 743 151 743 166 766 c 1,18,-1
 358 766 l 1,0,1
EndSplineSet
EndChar

StartChar: caron
Encoding: 711 711 331
Width: 523
Flags: W
LayerCount: 2
Fore
SplineSet
166 606 m 1,0,1
 151 629 151 629 128.5 656 c 128,-1,2
 106 683 106 683 82.5 708.5 c 128,-1,3
 59 734 59 734 40 752 c 1,4,-1
 40 766 l 1,5,-1
 166 766 l 1,6,7
 192 750 192 750 213.5 733 c 128,-1,8
 235 716 235 716 261 693 c 1,9,10
 287 716 287 716 310 733.5 c 128,-1,11
 333 751 333 751 359 766 c 1,12,-1
 483 766 l 1,13,-1
 483 752 l 1,14,15
 466 735 466 735 442.5 709.5 c 128,-1,16
 419 684 419 684 396.5 656.5 c 128,-1,17
 374 629 374 629 358 606 c 1,18,-1
 166 606 l 1,0,1
EndSplineSet
EndChar

StartChar: macron
Encoding: 713 713 332
Width: 435
Flags: W
LayerCount: 2
Fore
SplineSet
395 721 m 1,0,-1
 395 606 l 1,1,-1
 40 606 l 1,2,-1
 40 721 l 1,3,-1
 395 721 l 1,0,-1
EndSplineSet
EndChar

StartChar: breve
Encoding: 728 728 333
Width: 475
Flags: W
LayerCount: 2
Fore
SplineSet
435 787 m 1,0,1
 430 705 430 705 378.5 655.5 c 128,-1,2
 327 606 327 606 236 606 c 0,3,4
 141 606 141 606 92.5 654.5 c 128,-1,5
 44 703 44 703 40 787 c 1,6,-1
 143 787 l 1,7,8
 154 745 154 745 174.5 734 c 128,-1,9
 195 723 195 723 236 723 c 0,10,11
 268 723 268 723 293 735.5 c 128,-1,12
 318 748 318 748 328 787 c 1,13,-1
 435 787 l 1,0,1
EndSplineSet
EndChar

StartChar: dotaccent
Encoding: 729 729 334
Width: 283
Flags: W
LayerCount: 2
Fore
SplineSet
141 776 m 0,0,1
 182 776 182 776 212.5 759 c 128,-1,2
 243 742 243 742 243 691 c 0,3,4
 243 642 243 642 212.5 624.5 c 128,-1,5
 182 607 182 607 141 607 c 0,6,7
 99 607 99 607 69.5 624.5 c 128,-1,8
 40 642 40 642 40 691 c 0,9,10
 40 742 40 742 69.5 759 c 128,-1,11
 99 776 99 776 141 776 c 0,0,1
EndSplineSet
EndChar

StartChar: ring
Encoding: 730 730 335
Width: 342
Flags: W
LayerCount: 2
Fore
SplineSet
169 604 m 0,0,1
 111 604 111 604 75.5 637 c 128,-1,2
 40 670 40 670 40 727 c 0,3,4
 40 785 40 785 75.5 818 c 128,-1,5
 111 851 111 851 169 851 c 0,6,7
 224 851 224 851 263 818 c 128,-1,8
 302 785 302 785 302 728 c 0,9,10
 302 670 302 670 263 637 c 128,-1,11
 224 604 224 604 169 604 c 0,0,1
169 686 m 0,12,13
 186 686 186 686 198 697.5 c 128,-1,14
 210 709 210 709 210 727 c 0,15,16
 210 746 210 746 198 757 c 128,-1,17
 186 768 186 768 169 768 c 256,18,19
 152 768 152 768 140 757 c 128,-1,20
 128 746 128 746 128 727 c 0,21,22
 128 709 128 709 138.5 697.5 c 128,-1,23
 149 686 149 686 169 686 c 0,12,13
EndSplineSet
EndChar

StartChar: ogonek
Encoding: 731 731 336
Width: 300
Flags: W
LayerCount: 2
Fore
SplineSet
164 -97 m 0,0,1
 164 -115 164 -115 174.5 -122.5 c 128,-1,2
 185 -130 185 -130 202 -130 c 0,3,4
 215 -130 215 -130 232.5 -127 c 128,-1,5
 250 -124 250 -124 260 -119 c 1,6,-1
 260 -227 l 1,7,8
 244 -232 244 -232 223 -236 c 128,-1,9
 202 -240 202 -240 175 -240 c 0,10,11
 118 -240 118 -240 79 -210 c 128,-1,12
 40 -180 40 -180 40 -127 c 0,13,14
 40 -93 40 -93 63.5 -56.5 c 128,-1,15
 87 -20 87 -20 154 25 c 1,16,-1
 229 0 l 1,17,18
 195 -32 195 -32 179.5 -53 c 128,-1,19
 164 -74 164 -74 164 -97 c 0,0,1
EndSplineSet
EndChar

StartChar: tilde
Encoding: 732 732 337
Width: 491
Flags: W
LayerCount: 2
Fore
SplineSet
40 604 m 1,0,1
 46 696 46 696 77.5 733.5 c 128,-1,2
 109 771 109 771 163 771 c 0,3,4
 188 771 188 771 216.5 759.5 c 128,-1,5
 245 748 245 748 273.5 736 c 128,-1,6
 302 724 302 724 327 724 c 0,7,8
 336 724 336 724 346.5 732 c 128,-1,9
 357 740 357 740 362 772 c 1,10,-1
 451 772 l 1,11,12
 445 682 445 682 412 643.5 c 128,-1,13
 379 605 379 605 331 605 c 0,14,15
 302 605 302 605 272.5 616.5 c 128,-1,16
 243 628 243 628 215.5 640 c 128,-1,17
 188 652 188 652 163 652 c 0,18,19
 154 652 154 652 144 644 c 128,-1,20
 134 636 134 636 128 604 c 1,21,-1
 40 604 l 1,0,1
EndSplineSet
EndChar

StartChar: hungarumlaut
Encoding: 733 733 338
Width: 589
Flags: W
LayerCount: 2
Fore
SplineSet
549 766 m 1,0,-1
 549 756 l 1,1,2
 541 743 541 743 519 723 c 128,-1,3
 497 703 497 703 468.5 681 c 128,-1,4
 440 659 440 659 412 639 c 128,-1,5
 384 619 384 619 365 606 c 1,6,-1
 266 606 l 1,7,-1
 266 620 l 1,8,9
 280 639 280 639 299 664.5 c 128,-1,10
 318 690 318 690 336.5 717 c 128,-1,11
 355 744 355 744 367 766 c 1,12,-1
 549 766 l 1,0,-1
322 766 m 1,13,-1
 322 756 l 1,14,15
 314 743 314 743 292 723 c 128,-1,16
 270 703 270 703 241.5 681 c 128,-1,17
 213 659 213 659 185.5 639 c 128,-1,18
 158 619 158 619 139 606 c 1,19,-1
 40 606 l 1,20,-1
 40 620 l 1,21,22
 54 639 54 639 72.5 664.5 c 128,-1,23
 91 690 91 690 109.5 717 c 128,-1,24
 128 744 128 744 141 766 c 1,25,-1
 322 766 l 1,13,-1
EndSplineSet
EndChar

StartChar: tonos
Encoding: 900 900 339
Width: 541
Flags: W
AnchorPoint: "Anchor-10" 264 553 mark 0
AnchorPoint: "Anchor-6" 264 553 mark 0
AnchorPoint: "Anchor-2" 264 553 mark 0
LayerCount: 2
Fore
SplineSet
198 606 m 1,0,-1
 198 622 l 1,1,2
 204 644 204 644 211.5 675.5 c 128,-1,3
 219 707 219 707 225.5 738.5 c 128,-1,4
 232 770 232 770 235 795 c 1,5,-1
 403 795 l 1,6,-1
 403 782 l 1,7,8
 384 739 384 739 361 697 c 128,-1,9
 338 655 338 655 308 606 c 1,10,-1
 198 606 l 1,0,-1
EndSplineSet
EndChar

StartChar: dieresistonos
Encoding: 901 901 340
Width: 565
Flags: W
AnchorPoint: "Anchor-10" 280 553 mark 0
AnchorPoint: "Anchor-6" 280 553 mark 0
AnchorPoint: "Anchor-2" 280 553 mark 0
LayerCount: 2
Fore
SplineSet
394 838 m 1,0,-1
 394 828 l 1,1,2
 380 794 380 794 358 756.5 c 128,-1,3
 336 719 336 719 309 678 c 1,4,-1
 225 678 l 1,5,-1
 225 692 l 2,6,7
 228 711 228 711 232.5 737.5 c 128,-1,8
 237 764 237 764 240.5 791 c 128,-1,9
 244 818 244 818 244 838 c 1,10,-1
 394 838 l 1,0,-1
131 767 m 0,11,12
 165 767 165 767 186 748.5 c 128,-1,13
 207 730 207 730 207 690 c 0,14,15
 207 651 207 651 186 632.5 c 128,-1,16
 165 614 165 614 131 614 c 0,17,18
 96 614 96 614 76 632.5 c 128,-1,19
 56 651 56 651 56 690 c 0,20,21
 56 730 56 730 76 748.5 c 128,-1,22
 96 767 96 767 131 767 c 0,11,12
433 767 m 0,23,24
 468 767 468 767 488.5 748.5 c 128,-1,25
 509 730 509 730 509 690 c 0,26,27
 509 651 509 651 488.5 632.5 c 128,-1,28
 468 614 468 614 433 614 c 0,29,30
 397 614 397 614 376.5 632.5 c 128,-1,31
 356 651 356 651 356 690 c 0,32,33
 356 730 356 730 376.5 748.5 c 128,-1,34
 397 767 397 767 433 767 c 0,23,24
EndSplineSet
EndChar

StartChar: Gamma
Encoding: 915 915 352
Width: 578
GlyphClass: 2
Flags: W
AnchorPoint: "Anchor-2" 328 714 basechar 0
AnchorPoint: "Anchor-0" 289 0 basechar 0
LayerCount: 2
Fore
SplineSet
553 714 m 1,0,-1
 553 558 l 1,1,-1
 271 558 l 1,2,-1
 271 0 l 1,3,-1
 77 0 l 1,4,-1
 77 714 l 1,5,-1
 553 714 l 1,0,-1
EndSplineSet
EndChar

StartChar: uni0394
Encoding: 916 916 353
Width: 706
GlyphClass: 2
Flags: W
AnchorPoint: "Anchor-2" 353 714 basechar 0
AnchorPoint: "Anchor-0" 353 0 basechar 0
LayerCount: 2
Fore
SplineSet
468 719 m 1,0,-1
 690 108 l 1,1,-1
 690 0 l 1,2,-1
 16 0 l 1,3,-1
 16 109 l 1,4,-1
 240 719 l 1,5,-1
 468 719 l 1,0,-1
480 158 m 1,6,-1
 369 497 l 2,7,8
 359 526 359 526 353 567 c 1,9,10
 350 548 350 548 346 529 c 128,-1,11
 342 510 342 510 338 497 c 2,12,-1
 227 158 l 1,13,-1
 480 158 l 1,6,-1
EndSplineSet
EndChar

StartChar: Theta
Encoding: 920 920 357
Width: 797
GlyphClass: 2
Flags: W
AnchorPoint: "Anchor-3" 777 714 basechar 0
AnchorPoint: "Anchor-2" 399 714 basechar 0
AnchorPoint: "Anchor-1" 399 357 basechar 0
AnchorPoint: "Anchor-0" 398 0 basechar 0
LayerCount: 2
Fore
SplineSet
745 358 m 256,0,1
 745 247 745 247 709.5 164.5 c 128,-1,2
 674 82 674 82 597 36 c 128,-1,3
 520 -10 520 -10 398 -10 c 0,4,5
 278 -10 278 -10 201 36 c 128,-1,6
 124 82 124 82 87.5 165 c 128,-1,7
 51 248 51 248 51 359 c 256,8,9
 51 470 51 470 88 552 c 128,-1,10
 125 634 125 634 201.5 679.5 c 128,-1,11
 278 725 278 725 399 725 c 0,12,13
 521 725 521 725 597.5 679.5 c 128,-1,14
 674 634 674 634 709.5 551.5 c 128,-1,15
 745 469 745 469 745 358 c 256,0,1
254 358 m 256,16,17
 254 261 254 261 287.5 206 c 128,-1,18
 321 151 321 151 398 151 c 0,19,20
 478 151 478 151 510 206 c 128,-1,21
 542 261 542 261 542 358 c 256,22,23
 542 455 542 455 510 511 c 128,-1,24
 478 567 478 567 399 567 c 256,25,26
 320 567 320 567 287 511 c 128,-1,27
 254 455 254 455 254 358 c 256,16,17
499 436 m 1,28,-1
 499 290 l 1,29,-1
 298 290 l 1,30,-1
 298 436 l 1,31,-1
 499 436 l 1,28,-1
EndSplineSet
EndChar

StartChar: Lambda
Encoding: 923 923 360
Width: 694
GlyphClass: 2
Flags: W
AnchorPoint: "Anchor-2" 347 714 basechar 0
AnchorPoint: "Anchor-0" 347 0 basechar 0
LayerCount: 2
Fore
SplineSet
461 714 m 1,0,-1
 694 0 l 1,1,-1
 477 0 l 1,2,-1
 380 362 l 2,3,4
 375 382 375 382 368 414 c 128,-1,5
 361 446 361 446 354.5 478 c 128,-1,6
 348 510 348 510 347 530 c 1,7,8
 345 510 345 510 339.5 478.5 c 128,-1,9
 334 447 334 447 327.5 415.5 c 128,-1,10
 321 384 321 384 315 364 c 2,11,-1
 216 0 l 1,12,-1
 0 0 l 1,13,-1
 234 714 l 1,14,-1
 461 714 l 1,0,-1
EndSplineSet
EndChar

StartChar: Xi
Encoding: 926 926 363
Width: 574
GlyphClass: 2
Flags: W
AnchorPoint: "Anchor-2" 287 714 basechar 0
AnchorPoint: "Anchor-0" 287 0 basechar 0
LayerCount: 2
Fore
SplineSet
59 559 m 1,0,-1
 59 714 l 1,1,-1
 515 714 l 1,2,-1
 515 559 l 1,3,-1
 59 559 l 1,0,-1
99 292 m 1,4,-1
 99 447 l 1,5,-1
 475 447 l 1,6,-1
 475 292 l 1,7,-1
 99 292 l 1,4,-1
39 0 m 1,8,-1
 39 157 l 1,9,-1
 535 157 l 1,10,-1
 535 0 l 1,11,-1
 39 0 l 1,8,-1
EndSplineSet
EndChar

StartChar: Pi
Encoding: 928 928 365
Width: 739
GlyphClass: 2
Flags: W
AnchorPoint: "Anchor-2" 370 714 basechar 0
AnchorPoint: "Anchor-0" 370 0 basechar 0
LayerCount: 2
Fore
SplineSet
77 0 m 1,0,-1
 77 714 l 1,1,-1
 662 714 l 1,2,-1
 662 0 l 1,3,-1
 468 0 l 1,4,-1
 468 556 l 1,5,-1
 271 556 l 1,6,-1
 271 0 l 1,7,-1
 77 0 l 1,0,-1
EndSplineSet
EndChar

StartChar: Sigma
Encoding: 931 931 367
Width: 602
GlyphClass: 2
Flags: W
AnchorPoint: "Anchor-2" 301 714 basechar 0
AnchorPoint: "Anchor-0" 301 0 basechar 0
LayerCount: 2
Fore
SplineSet
36 0 m 1,0,-1
 36 150 l 1,1,-1
 253 375 l 1,2,-1
 42 569 l 1,3,-1
 42 714 l 1,4,-1
 536 714 l 1,5,-1
 536 559 l 1,6,-1
 372 559 l 2,7,8
 342 559 342 559 314.5 559.5 c 128,-1,9
 287 560 287 560 257 564 c 1,10,-1
 463 376 l 1,11,-1
 246 151 l 1,12,13
 278 154 278 154 305.5 155.5 c 128,-1,14
 333 157 333 157 369 157 c 2,15,-1
 565 157 l 1,16,-1
 565 0 l 1,17,-1
 36 0 l 1,0,-1
EndSplineSet
EndChar

StartChar: Phi
Encoding: 934 934 370
Width: 894
GlyphClass: 2
Flags: W
AnchorPoint: "Anchor-2" 447 714 basechar 0
AnchorPoint: "Anchor-0" 447 0 basechar 0
LayerCount: 2
Fore
SplineSet
540 724 m 1,0,-1
 540 636 l 1,1,2
 652 636 652 636 722 598.5 c 128,-1,3
 792 561 792 561 824.5 500.5 c 128,-1,4
 857 440 857 440 857 369 c 256,5,6
 857 298 857 298 826 236.5 c 128,-1,7
 795 175 795 175 725.5 137.5 c 128,-1,8
 656 100 656 100 540 100 c 1,9,-1
 540 -10 l 1,10,-1
 354 -10 l 1,11,-1
 354 100 l 1,12,13
 237 100 237 100 167.5 136 c 128,-1,14
 98 172 98 172 67.5 233 c 128,-1,15
 37 294 37 294 37 370 c 0,16,17
 37 420 37 420 53 467.5 c 128,-1,18
 69 515 69 515 105.5 553 c 128,-1,19
 142 591 142 591 203 613.5 c 128,-1,20
 264 636 264 636 354 636 c 1,21,-1
 354 724 l 1,22,-1
 540 724 l 1,0,-1
354 489 m 1,23,24
 302 489 302 489 274 472 c 128,-1,25
 246 455 246 455 235.5 428 c 128,-1,26
 225 401 225 401 225 370 c 0,27,28
 225 335 225 335 234.5 307 c 128,-1,29
 244 279 244 279 272 262.5 c 128,-1,30
 300 246 300 246 354 246 c 1,31,-1
 354 489 l 1,23,24
540 489 m 1,32,-1
 540 246 l 1,33,34
 592 246 592 246 620 262.5 c 128,-1,35
 648 279 648 279 658.5 307 c 128,-1,36
 669 335 669 335 669 370 c 0,37,38
 669 402 669 402 657.5 429 c 128,-1,39
 646 456 646 456 618 472.5 c 128,-1,40
 590 489 590 489 540 489 c 1,32,-1
EndSplineSet
EndChar

StartChar: Psi
Encoding: 936 936 372
Width: 930
GlyphClass: 2
Flags: W
AnchorPoint: "Anchor-2" 465 714 basechar 0
AnchorPoint: "Anchor-0" 465 0 basechar 0
LayerCount: 2
Fore
SplineSet
875 714 m 1,0,-1
 875 481 l 2,1,2
 875 380 875 380 844.5 318 c 128,-1,3
 814 256 814 256 744 226.5 c 128,-1,4
 674 197 674 197 558 194 c 1,5,-1
 558 0 l 1,6,-1
 372 0 l 1,7,-1
 372 194 l 1,8,9
 255 197 255 197 185.5 223.5 c 128,-1,10
 116 250 116 250 85.5 309 c 128,-1,11
 55 368 55 368 55 468 c 2,12,-1
 55 714 l 1,13,-1
 245 714 l 1,14,-1
 245 470 l 2,15,16
 245 402 245 402 275 377.5 c 128,-1,17
 305 353 305 353 372 353 c 1,18,-1
 372 714 l 1,19,-1
 558 714 l 1,20,-1
 558 353 l 1,21,22
 617 353 617 353 651 379 c 128,-1,23
 685 405 685 405 685 468 c 2,24,-1
 685 714 l 1,25,-1
 875 714 l 1,0,-1
EndSplineSet
EndChar

StartChar: uni03A9
Encoding: 937 937 373
Width: 796
GlyphClass: 2
Flags: W
AnchorPoint: "Anchor-2" 398 714 basechar 0
AnchorPoint: "Anchor-0" 398 0 basechar 0
LayerCount: 2
Fore
SplineSet
398 567 m 256,0,1
 357 567 357 567 323 548 c 128,-1,2
 289 529 289 529 268.5 489.5 c 128,-1,3
 248 450 248 450 248 389 c 0,4,5
 248 312 248 312 271 263.5 c 128,-1,6
 294 215 294 215 352 178 c 1,7,-1
 352 0 l 1,8,-1
 24 0 l 1,9,-1
 24 158 l 1,10,-1
 206 158 l 1,11,12
 154 184 154 184 119 226 c 128,-1,13
 84 268 84 268 67 319 c 128,-1,14
 50 370 50 370 50 422 c 0,15,16
 50 517 50 517 93.5 585 c 128,-1,17
 137 653 137 653 215.5 689 c 128,-1,18
 294 725 294 725 398 725 c 256,19,20
 502 725 502 725 580 688.5 c 128,-1,21
 658 652 658 652 702 584.5 c 128,-1,22
 746 517 746 517 746 423 c 0,23,24
 746 343 746 343 707.5 272 c 128,-1,25
 669 201 669 201 586 158 c 1,26,-1
 772 158 l 1,27,-1
 772 0 l 1,28,-1
 441 0 l 1,29,-1
 441 178 l 1,30,31
 502 216 502 216 525 265 c 128,-1,32
 548 314 548 314 548 391 c 0,33,34
 548 451 548 451 527.5 490 c 128,-1,35
 507 529 507 529 473 548 c 128,-1,36
 439 567 439 567 398 567 c 256,0,1
EndSplineSet
EndChar

StartChar: alpha
Encoding: 945 945 381
Width: 672
GlyphClass: 2
Flags: W
AnchorPoint: "Anchor-2" 339 553 basechar 0
AnchorPoint: "Anchor-0" 337 0 basechar 0
LayerCount: 2
Fore
SplineSet
252 -10 m 0,0,1
 158 -10 158 -10 100 62.5 c 128,-1,2
 42 135 42 135 42 274 c 0,3,4
 42 416 42 416 103 488.5 c 128,-1,5
 164 561 164 561 265 561 c 0,6,7
 322 561 322 561 358 541 c 128,-1,8
 394 521 394 521 417 479 c 1,9,-1
 425 479 l 1,10,11
 430 496 430 496 438 517 c 128,-1,12
 446 538 446 538 459 553 c 1,13,-1
 619 553 l 1,14,15
 608 522 608 522 593 461 c 128,-1,16
 578 400 578 400 578 324 c 2,17,-1
 578 199 l 2,18,19
 578 164 578 164 590 152 c 128,-1,20
 602 140 602 140 618 140 c 0,21,22
 625 140 625 140 634 142 c 128,-1,23
 643 144 643 144 647 145 c 1,24,-1
 647 3 l 1,25,26
 642 0 642 0 628 -3 c 128,-1,27
 614 -6 614 -6 598 -8 c 128,-1,28
 582 -10 582 -10 571 -10 c 0,29,30
 512 -10 512 -10 477 8 c 128,-1,31
 442 26 442 26 419 72 c 1,32,-1
 407 72 l 1,33,34
 385 38 385 38 347 14 c 128,-1,35
 309 -10 309 -10 252 -10 c 0,0,1
317 138 m 0,36,37
 364 138 364 138 382.5 170 c 128,-1,38
 401 202 401 202 402 270 c 2,39,-1
 402 275 l 2,40,41
 402 341 402 341 383 377 c 128,-1,42
 364 413 364 413 315 413 c 0,43,44
 276 413 276 413 256 376.5 c 128,-1,45
 236 340 236 340 236 273 c 0,46,47
 236 138 236 138 317 138 c 0,36,37
EndSplineSet
EndChar

StartChar: beta
Encoding: 946 946 382
Width: 685
GlyphClass: 2
Flags: W
AnchorPoint: "Anchor-3" 601 765 basechar 0
AnchorPoint: "Anchor-2" 343 765 basechar 0
AnchorPoint: "Anchor-0" 440 0 basechar 0
LayerCount: 2
Fore
SplineSet
343 765 m 0,0,1
 418 765 418 765 476 743.5 c 128,-1,2
 534 722 534 722 567.5 679 c 128,-1,3
 601 636 601 636 601 572 c 0,4,5
 601 500 601 500 565 458 c 128,-1,6
 529 416 529 416 464 406 c 1,7,-1
 464 402 l 1,8,9
 545 392 545 392 595 350 c 128,-1,10
 645 308 645 308 645 217 c 0,11,12
 645 146 645 146 615 95 c 128,-1,13
 585 44 585 44 532.5 17 c 128,-1,14
 480 -10 480 -10 410 -10 c 0,15,16
 369 -10 369 -10 327.5 -2.5 c 128,-1,17
 286 5 286 5 257 19 c 1,18,-1
 257 -240 l 1,19,-1
 66 -240 l 1,20,-1
 66 535 l 2,21,22
 66 616 66 616 103 666.5 c 128,-1,23
 140 717 140 717 202.5 741 c 128,-1,24
 265 765 265 765 343 765 c 0,0,1
337 623 m 256,25,26
 304 623 304 623 280.5 602 c 128,-1,27
 257 581 257 581 257 518 c 2,28,-1
 257 166 l 1,29,30
 270 156 270 156 298 148 c 128,-1,31
 326 140 326 140 350 140 c 0,32,33
 396 140 396 140 423.5 164 c 128,-1,34
 451 188 451 188 451 235 c 0,35,36
 451 268 451 268 435.5 286 c 128,-1,37
 420 304 420 304 397 311.5 c 128,-1,38
 374 319 374 319 351 319 c 2,39,-1
 323 319 l 1,40,-1
 323 461 l 1,41,-1
 342 461 l 2,42,43
 377 461 377 461 394 485 c 128,-1,44
 411 509 411 509 411 544 c 0,45,46
 411 582 411 582 390.5 602.5 c 128,-1,47
 370 623 370 623 337 623 c 256,25,26
EndSplineSet
EndChar

StartChar: gamma
Encoding: 947 947 383
Width: 603
GlyphClass: 2
Flags: W
AnchorPoint: "Anchor-3" 593 553 basechar 0
AnchorPoint: "Anchor-2" 302 553 basechar 0
AnchorPoint: "Anchor-0" 302 -240 basechar 0
LayerCount: 2
Fore
SplineSet
606 553 m 1,0,-1
 402 7 l 2,1,2
 379 -54 379 -54 366.5 -122 c 128,-1,3
 354 -190 354 -190 354 -240 c 1,4,-1
 153 -240 l 1,5,6
 153 -212 153 -212 159.5 -170 c 128,-1,7
 166 -128 166 -128 176.5 -81.5 c 128,-1,8
 187 -35 187 -35 200 6 c 1,9,-1
 -1 553 l 1,10,-1
 198 553 l 1,11,-1
 255 374 l 2,12,13
 268 332 268 332 281 283.5 c 128,-1,14
 294 235 294 235 298 194 c 1,15,-1
 302 194 l 1,16,17
 305 216 305 216 315.5 261 c 128,-1,18
 326 306 326 306 346 365 c 2,19,-1
 407 553 l 1,20,-1
 606 553 l 1,0,-1
EndSplineSet
EndChar

StartChar: delta
Encoding: 948 948 384
Width: 636
GlyphClass: 2
Flags: W
AnchorPoint: "Anchor-2" 318 769 basechar 0
AnchorPoint: "Anchor-0" 318 0 basechar 0
LayerCount: 2
Fore
SplineSet
350 769 m 0,0,1
 417 769 417 769 477.5 755 c 128,-1,2
 538 741 538 741 595 713 c 1,3,-1
 524 575 l 1,4,5
 474 600 474 600 430 613.5 c 128,-1,6
 386 627 386 627 353 627 c 0,7,8
 322 627 322 627 308 619 c 128,-1,9
 294 611 294 611 294 595 c 0,10,11
 294 582 294 582 305 570.5 c 128,-1,12
 316 559 316 559 344 542.5 c 128,-1,13
 372 526 372 526 422 498 c 0,14,15
 514 447 514 447 554 383.5 c 128,-1,16
 594 320 594 320 594 234 c 0,17,18
 594 152 594 152 559 98 c 128,-1,19
 524 44 524 44 461.5 17 c 128,-1,20
 399 -10 399 -10 315 -10 c 0,21,22
 236 -10 236 -10 174.5 16 c 128,-1,23
 113 42 113 42 77.5 92 c 128,-1,24
 42 142 42 142 42 214 c 0,25,26
 42 292 42 292 83 350 c 128,-1,27
 124 408 124 408 218 439 c 1,28,29
 112 508 112 508 112 611 c 0,30,31
 112 682 112 682 170 725.5 c 128,-1,32
 228 769 228 769 350 769 c 0,0,1
320 366 m 1,33,34
 302 360 302 360 282.5 343 c 128,-1,35
 263 326 263 326 249.5 296.5 c 128,-1,36
 236 267 236 267 236 225 c 0,37,38
 236 185 236 185 257 158.5 c 128,-1,39
 278 132 278 132 317 132 c 0,40,41
 355 132 355 132 377.5 159 c 128,-1,42
 400 186 400 186 400 235 c 0,43,44
 400 277 400 277 377 309.5 c 128,-1,45
 354 342 354 342 320 366 c 1,33,34
EndSplineSet
EndChar

StartChar: epsilon
Encoding: 949 949 385
Width: 554
GlyphClass: 2
Flags: W
AnchorPoint: "Anchor-2" 307 553 basechar 0
AnchorPoint: "Anchor-0" 277 0 basechar 0
LayerCount: 2
Fore
SplineSet
411 349 m 1,0,-1
 411 225 l 1,1,-1
 339 225 l 2,2,3
 290 225 290 225 265 219.5 c 128,-1,4
 240 214 240 214 231 204 c 128,-1,5
 222 194 222 194 222 179 c 0,6,7
 222 170 222 170 228.5 159 c 128,-1,8
 235 148 235 148 256.5 140 c 128,-1,9
 278 132 278 132 323 132 c 0,10,11
 385 132 385 132 434.5 145.5 c 128,-1,12
 484 159 484 159 519 175 c 1,13,-1
 519 29 l 1,14,15
 477 11 477 11 426 0.5 c 128,-1,16
 375 -10 375 -10 295 -10 c 0,17,18
 151 -10 151 -10 91 33.5 c 128,-1,19
 31 77 31 77 31 157 c 0,20,21
 31 205 31 205 64.5 241.5 c 128,-1,22
 98 278 98 278 164 287 c 1,23,-1
 164 292 l 1,24,25
 119 304 119 304 91.5 336 c 128,-1,26
 64 368 64 368 64 413 c 0,27,28
 64 468 64 468 97 500.5 c 128,-1,29
 130 533 130 533 185.5 548 c 128,-1,30
 241 563 241 563 309 563 c 0,31,32
 371 563 371 563 420.5 552.5 c 128,-1,33
 470 542 470 542 519 521 c 1,34,-1
 465 392 l 1,35,36
 427 409 427 409 392 418 c 128,-1,37
 357 427 357 427 317 427 c 0,38,39
 278 427 278 427 261 417 c 128,-1,40
 244 407 244 407 244 390 c 0,41,42
 244 369 244 369 268 359 c 128,-1,43
 292 349 292 349 351 349 c 2,44,-1
 411 349 l 1,0,-1
EndSplineSet
EndChar

StartChar: zeta
Encoding: 950 950 386
Width: 510
GlyphClass: 2
Flags: W
AnchorPoint: "Anchor-2" 255 760 basechar 0
AnchorPoint: "Anchor-0" 255 -178 basechar 0
LayerCount: 2
Fore
SplineSet
518 -9 m 0,0,1
 518 -55 518 -55 499 -96.5 c 128,-1,2
 480 -138 480 -138 450 -178 c 1,3,-1
 255 -178 l 1,4,5
 291 -139 291 -139 310 -102 c 128,-1,6
 329 -65 329 -65 329 -50 c 0,7,8
 329 -36 329 -36 320.5 -26.5 c 128,-1,9
 312 -17 312 -17 287.5 -8.5 c 128,-1,10
 263 0 263 0 215 12 c 0,11,12
 142 30 142 30 104.5 60 c 128,-1,13
 67 90 67 90 54.5 133 c 128,-1,14
 42 176 42 176 42 230 c 0,15,16
 42 329 42 329 102.5 428.5 c 128,-1,17
 163 528 163 528 297 629 c 1,18,19
 280 624 280 624 256.5 621 c 128,-1,20
 233 618 233 618 216 618 c 2,21,-1
 69 618 l 1,22,-1
 69 760 l 1,23,-1
 507 760 l 1,24,-1
 507 647 l 1,25,26
 400 560 400 560 341.5 489.5 c 128,-1,27
 283 419 283 419 259.5 358 c 128,-1,28
 236 297 236 297 236 239 c 0,29,30
 236 210 236 210 248 192 c 128,-1,31
 260 174 260 174 289.5 162 c 128,-1,32
 319 150 319 150 372 139 c 0,33,34
 457 121 457 121 487.5 82 c 128,-1,35
 518 43 518 43 518 -9 c 0,0,1
EndSplineSet
EndChar

StartChar: eta
Encoding: 951 951 387
Width: 670
GlyphClass: 2
Flags: W
AnchorPoint: "Anchor-2" 344 553 basechar 0
AnchorPoint: "Anchor-0" 335 -240 basechar 0
LayerCount: 2
Fore
SplineSet
412 563 m 0,0,1
 466 563 466 563 510 542 c 128,-1,2
 554 521 554 521 580 476 c 128,-1,3
 606 431 606 431 606 360 c 2,4,-1
 606 -240 l 1,5,-1
 415 -240 l 1,6,-1
 415 315 l 2,7,8
 415 360 415 360 399 386.5 c 128,-1,9
 383 413 383 413 348 413 c 0,10,11
 294 413 294 413 275.5 368.5 c 128,-1,12
 257 324 257 324 257 242 c 2,13,-1
 257 0 l 1,14,-1
 66 0 l 1,15,-1
 66 553 l 1,16,-1
 210 553 l 1,17,-1
 234 485 l 1,18,-1
 245 485 l 1,19,20
 271 527 271 527 316 545 c 128,-1,21
 361 563 361 563 412 563 c 0,0,1
EndSplineSet
EndChar

StartChar: theta
Encoding: 952 952 388
Width: 642
GlyphClass: 2
Flags: W
AnchorPoint: "Anchor-3" 562 771 basechar 0
AnchorPoint: "Anchor-2" 321 771 basechar 0
AnchorPoint: "Anchor-0" 321 0 basechar 0
LayerCount: 2
Fore
SplineSet
600 381 m 0,0,1
 600 258 600 258 572 170.5 c 128,-1,2
 544 83 544 83 482.5 36.5 c 128,-1,3
 421 -10 421 -10 320 -10 c 0,4,5
 180 -10 180 -10 111 93.5 c 128,-1,6
 42 197 42 197 42 381 c 0,7,8
 42 504 42 504 69.5 591 c 128,-1,9
 97 678 97 678 158 724.5 c 128,-1,10
 219 771 219 771 320 771 c 0,11,12
 460 771 460 771 530 668.5 c 128,-1,13
 600 566 600 566 600 381 c 0,0,1
322 637 m 0,14,15
 280 637 280 637 260 590 c 128,-1,16
 240 543 240 543 238 447 c 1,17,-1
 407 447 l 1,18,19
 404 543 404 543 383.5 590 c 128,-1,20
 363 637 363 637 322 637 c 0,14,15
320 124 m 0,21,22
 403 124 403 124 406 313 c 1,23,-1
 236 313 l 1,24,25
 237 221 237 221 257 172.5 c 128,-1,26
 277 124 277 124 320 124 c 0,21,22
EndSplineSet
EndChar

StartChar: iota
Encoding: 953 953 389
Width: 435
GlyphClass: 2
Flags: W
AnchorPoint: "Anchor-2" 168 553 basechar 0
AnchorPoint: "Anchor-0" 244 0 basechar 0
LayerCount: 2
Fore
SplineSet
256 553 m 1,0,-1
 256 190 l 2,1,2
 256 159 256 159 273.5 149.5 c 128,-1,3
 291 140 291 140 313 140 c 0,4,5
 340 140 340 140 362.5 145 c 128,-1,6
 385 150 385 150 415 161 c 1,7,-1
 415 21 l 1,8,9
 386 8 386 8 349 -1 c 128,-1,10
 312 -10 312 -10 264 -10 c 0,11,12
 208 -10 208 -10 163 6.5 c 128,-1,13
 118 23 118 23 91.5 65 c 128,-1,14
 65 107 65 107 65 181 c 2,15,-1
 65 553 l 1,16,-1
 256 553 l 1,0,-1
EndSplineSet
EndChar

StartChar: lambda
Encoding: 955 955 391
Width: 665
GlyphClass: 2
Flags: W
AnchorPoint: "Anchor-2" 333 766 basechar 0
AnchorPoint: "Anchor-0" 333 0 basechar 0
LayerCount: 2
Fore
SplineSet
0 0 m 1,0,-1
 238 516 l 1,1,-1
 231 536 l 2,2,3
 213 587 213 587 187.5 601.5 c 128,-1,4
 162 616 162 616 133 616 c 0,5,6
 101 616 101 616 67 608 c 1,7,-1
 67 758 l 1,8,9
 76 760 76 760 93 762 c 128,-1,10
 110 764 110 764 128.5 765 c 128,-1,11
 147 766 147 766 159 766 c 0,12,13
 227 766 227 766 272.5 747.5 c 128,-1,14
 318 729 318 729 349 689.5 c 128,-1,15
 380 650 380 650 403 586 c 2,16,-1
 523 250 l 2,17,18
 541 200 541 200 555.5 176.5 c 128,-1,19
 570 153 570 153 585 146.5 c 128,-1,20
 600 140 600 140 619 140 c 0,21,22
 626 140 626 140 635.5 141 c 128,-1,23
 645 142 645 142 656 145 c 1,24,-1
 656 7 l 1,25,26
 648 2 648 2 627.5 -1.5 c 128,-1,27
 607 -5 607 -5 585 -7.5 c 128,-1,28
 563 -10 563 -10 550 -10 c 0,29,30
 498 -10 498 -10 464.5 10.5 c 128,-1,31
 431 31 431 31 410.5 63.5 c 128,-1,32
 390 96 390 96 376 132 c 2,33,-1
 342 225 l 2,34,35
 332 255 332 255 326 278.5 c 128,-1,36
 320 302 320 302 317 319 c 1,37,-1
 313 319 l 1,38,39
 309 295 309 295 302.5 268.5 c 128,-1,40
 296 242 296 242 289 226 c 2,41,-1
 198 0 l 1,42,-1
 0 0 l 1,0,-1
EndSplineSet
EndChar

StartChar: nu
Encoding: 957 957 393
Width: 620
GlyphClass: 2
Flags: W
AnchorPoint: "Anchor-2" 310 553 basechar 0
AnchorPoint: "Anchor-0" 310 0 basechar 0
LayerCount: 2
Fore
SplineSet
0 553 m 1,0,-1
 196 553 l 1,1,-1
 296 241 l 2,2,3
 300 228 300 228 305 208.5 c 128,-1,4
 310 189 310 189 313 172 c 1,5,-1
 318 172 l 1,6,7
 342 216 342 216 359 267 c 128,-1,8
 376 318 376 318 385 387 c 128,-1,9
 394 456 394 456 394 553 c 1,10,-1
 585 553 l 1,11,12
 585 448 585 448 564.5 355.5 c 128,-1,13
 544 263 544 263 497 175.5 c 128,-1,14
 450 88 450 88 369 0 c 1,15,-1
 209 0 l 1,16,-1
 0 553 l 1,0,-1
EndSplineSet
EndChar

StartChar: xi
Encoding: 958 958 394
Width: 516
GlyphClass: 2
Flags: W
AnchorPoint: "Anchor-2" 258 760 basechar 0
AnchorPoint: "Anchor-0" 258 -178 basechar 0
LayerCount: 2
Fore
SplineSet
42 208 m 0,0,1
 42 277 42 277 76.5 322 c 128,-1,2
 111 367 111 367 179 395 c 1,3,-1
 179 399 l 1,4,5
 73 422 73 422 73 515 c 0,6,7
 73 550 73 550 97 581 c 128,-1,8
 121 612 121 612 177 624 c 1,9,10
 156 622 156 622 137 620 c 128,-1,11
 118 618 118 618 85 618 c 2,12,-1
 58 618 l 1,13,-1
 58 760 l 1,14,-1
 493 760 l 1,15,-1
 493 618 l 1,16,-1
 413 618 l 2,17,18
 374 618 374 618 340 610.5 c 128,-1,19
 306 603 306 603 284.5 583.5 c 128,-1,20
 263 564 263 564 263 529 c 0,21,22
 263 498 263 498 287.5 480.5 c 128,-1,23
 312 463 312 463 378 463 c 2,24,-1
 457 463 l 1,25,-1
 457 323 l 1,26,-1
 379 323 l 2,27,28
 319 323 319 323 288.5 310 c 128,-1,29
 258 297 258 297 247 276 c 128,-1,30
 236 255 236 255 236 231 c 0,31,32
 236 209 236 209 245 193 c 128,-1,33
 254 177 254 177 281.5 164.5 c 128,-1,34
 309 152 309 152 366 140 c 0,35,36
 451 122 451 122 484.5 82.5 c 128,-1,37
 518 43 518 43 518 -9 c 0,38,39
 518 -55 518 -55 499 -96.5 c 128,-1,40
 480 -138 480 -138 450 -178 c 1,41,-1
 255 -178 l 1,42,43
 291 -139 291 -139 310 -102 c 128,-1,44
 329 -65 329 -65 329 -50 c 0,45,46
 329 -30 329 -30 311.5 -17.5 c 128,-1,47
 294 -5 294 -5 236 8 c 0,48,49
 135 30 135 30 88.5 80.5 c 128,-1,50
 42 131 42 131 42 208 c 0,0,1
EndSplineSet
EndChar

StartChar: pi
Encoding: 960 960 396
Width: 795
GlyphClass: 2
Flags: W
AnchorPoint: "Anchor-2" 398 553 basechar 0
AnchorPoint: "Anchor-0" 398 0 basechar 0
LayerCount: 2
Fore
SplineSet
680 140 m 0,0,1
 696 140 696 140 718 145 c 128,-1,2
 740 150 740 150 756 157 c 1,3,-1
 756 26 l 1,4,5
 733 12 733 12 692.5 1 c 128,-1,6
 652 -10 652 -10 608 -10 c 0,7,8
 520 -10 520 -10 481.5 37 c 128,-1,9
 443 84 443 84 443 172 c 2,10,-1
 443 411 l 1,11,-1
 320 411 l 1,12,-1
 320 0 l 1,13,-1
 129 0 l 1,14,-1
 129 411 l 1,15,-1
 11 411 l 1,16,-1
 11 492 l 1,17,-1
 109 553 l 1,18,-1
 756 553 l 1,19,-1
 756 411 l 1,20,-1
 634 411 l 1,21,-1
 634 193 l 2,22,23
 634 164 634 164 647.5 152 c 128,-1,24
 661 140 661 140 680 140 c 0,0,1
EndSplineSet
EndChar

StartChar: rho
Encoding: 961 961 397
Width: 650
GlyphClass: 2
Flags: W
AnchorPoint: "Anchor-2" 325 553 basechar 0
AnchorPoint: "Anchor-0" 325 -240 basechar 0
LayerCount: 2
Fore
SplineSet
608 276 m 0,0,1
 608 140 608 140 549 65 c 128,-1,2
 490 -10 490 -10 390 -10 c 0,3,4
 353 -10 353 -10 317.5 -1 c 128,-1,5
 282 8 282 8 257 23 c 1,6,-1
 244 23 l 1,7,8
 244 23 244 23 247 2.5 c 128,-1,9
 250 -18 250 -18 252.5 -48 c 128,-1,10
 255 -78 255 -78 255 -107 c 2,11,-1
 255 -240 l 1,12,-1
 64 -240 l 1,13,-1
 64 273 l 2,14,15
 64 406 64 406 135 484.5 c 128,-1,16
 206 563 206 563 339 563 c 0,17,18
 416 563 416 563 477 528.5 c 128,-1,19
 538 494 538 494 573 430 c 128,-1,20
 608 366 608 366 608 276 c 0,0,1
336 421 m 0,21,22
 255 421 255 421 255 299 c 2,23,-1
 255 175 l 1,24,25
 270 157 270 157 293 147.5 c 128,-1,26
 316 138 316 138 337 138 c 0,27,28
 377 138 377 138 395.5 169 c 128,-1,29
 414 200 414 200 414 276 c 256,30,31
 414 352 414 352 395 386.5 c 128,-1,32
 376 421 376 421 336 421 c 0,21,22
EndSplineSet
EndChar

StartChar: sigma1
Encoding: 962 962 398
Width: 533
GlyphClass: 2
Flags: W
AnchorPoint: "Anchor-2" 267 553 basechar 0
AnchorPoint: "Anchor-0" 267 -178 basechar 0
LayerCount: 2
Fore
SplineSet
326 563 m 0,0,1
 374 563 374 563 423 551.5 c 128,-1,2
 472 540 472 540 520 517 c 1,3,-1
 466 377 l 1,4,5
 427 394 427 394 389.5 403.5 c 128,-1,6
 352 413 352 413 326 413 c 0,7,8
 279 413 279 413 257.5 374 c 128,-1,9
 236 335 236 335 236 269 c 0,10,11
 236 235 236 235 246 210.5 c 128,-1,12
 256 186 256 186 285 169 c 128,-1,13
 314 152 314 152 372 139 c 0,14,15
 457 121 457 121 487.5 82 c 128,-1,16
 518 43 518 43 518 -9 c 0,17,18
 518 -55 518 -55 499 -96.5 c 128,-1,19
 480 -138 480 -138 450 -178 c 1,20,-1
 255 -178 l 1,21,22
 291 -139 291 -139 310 -102 c 128,-1,23
 329 -65 329 -65 329 -50 c 0,24,25
 329 -36 329 -36 320.5 -26.5 c 128,-1,26
 312 -17 312 -17 288 -8.5 c 128,-1,27
 264 0 264 0 215 12 c 0,28,29
 165 24 165 24 126 50 c 128,-1,30
 87 76 87 76 64.5 128.5 c 128,-1,31
 42 181 42 181 42 272 c 0,32,33
 42 414 42 414 116.5 488.5 c 128,-1,34
 191 563 191 563 326 563 c 0,0,1
EndSplineSet
EndChar

StartChar: sigma
Encoding: 963 963 399
Width: 681
GlyphClass: 2
Flags: W
AnchorPoint: "Anchor-2" 341 553 basechar 0
AnchorPoint: "Anchor-0" 341 0 basechar 0
LayerCount: 2
Fore
SplineSet
608 233 m 0,0,1
 608 162 608 162 575.5 107 c 128,-1,2
 543 52 543 52 479.5 21 c 128,-1,3
 416 -10 416 -10 324 -10 c 0,4,5
 240 -10 240 -10 176.5 21 c 128,-1,6
 113 52 113 52 77.5 111.5 c 128,-1,7
 42 171 42 171 42 256 c 0,8,9
 42 402 42 402 119 477.5 c 128,-1,10
 196 553 196 553 374 553 c 2,11,-1
 655 553 l 1,12,-1
 655 411 l 1,13,-1
 519 411 l 1,14,15
 608 346 608 346 608 233 c 0,0,1
237 257 m 0,16,17
 237 208 237 208 258.5 175 c 128,-1,18
 280 142 280 142 326 142 c 256,19,20
 372 142 372 142 393 174 c 128,-1,21
 414 206 414 206 414 262 c 0,22,23
 414 300 414 300 408 325.5 c 128,-1,24
 402 351 402 351 391 370.5 c 128,-1,25
 380 390 380 390 364 411 c 1,26,-1
 353 411 l 2,27,28
 292 411 292 411 264.5 376.5 c 128,-1,29
 237 342 237 342 237 257 c 0,16,17
EndSplineSet
EndChar

StartChar: tau
Encoding: 964 964 400
Width: 529
GlyphClass: 2
Flags: W
AnchorPoint: "Anchor-2" 265 553 basechar 0
AnchorPoint: "Anchor-0" 265 0 basechar 0
LayerCount: 2
Fore
SplineSet
497 553 m 1,0,-1
 497 411 l 1,1,-1
 334 411 l 1,2,-1
 334 193 l 2,3,4
 334 140 334 140 383 140 c 0,5,6
 407 140 407 140 429.5 145.5 c 128,-1,7
 452 151 452 151 477 161 c 1,8,-1
 477 22 l 1,9,10
 449 8 449 8 411.5 -0.5 c 128,-1,11
 374 -9 374 -9 328 -9 c 0,12,13
 272 -9 272 -9 230.5 7.5 c 128,-1,14
 189 24 189 24 166 65 c 128,-1,15
 143 106 143 106 143 182 c 2,16,-1
 143 411 l 1,17,-1
 11 411 l 1,18,-1
 11 492 l 1,19,-1
 106 553 l 1,20,-1
 497 553 l 1,0,-1
EndSplineSet
EndChar

StartChar: upsilon
Encoding: 965 965 401
Width: 663
GlyphClass: 2
Flags: W
AnchorPoint: "Anchor-2" 333 553 basechar 0
AnchorPoint: "Anchor-0" 332 0 basechar 0
LayerCount: 2
Fore
SplineSet
330 -8 m 0,0,1
 226 -8 226 -8 168 26.5 c 128,-1,2
 110 61 110 61 87 120.5 c 128,-1,3
 64 180 64 180 64 253 c 2,4,-1
 64 553 l 1,5,-1
 255 553 l 1,6,-1
 255 243 l 2,7,8
 255 188 255 188 274.5 165 c 128,-1,9
 294 142 294 142 334 142 c 0,10,11
 378 142 378 142 401 175.5 c 128,-1,12
 424 209 424 209 424 302 c 0,13,14
 424 364 424 364 414.5 423 c 128,-1,15
 405 482 405 482 386 553 c 1,16,-1
 579 553 l 1,17,18
 598 483 598 483 606.5 424.5 c 128,-1,19
 615 366 615 366 615 298 c 0,20,21
 615 140 615 140 542.5 66 c 128,-1,22
 470 -8 470 -8 330 -8 c 0,0,1
EndSplineSet
EndChar

StartChar: phi
Encoding: 966 966 402
Width: 846
GlyphClass: 2
Flags: W
AnchorPoint: "Anchor-2" 423 553 basechar 0
AnchorPoint: "Anchor-0" 423 -240 basechar 0
LayerCount: 2
Fore
SplineSet
155 570 m 1,0,-1
 297 484 l 1,1,2
 264 440 264 440 246 382.5 c 128,-1,3
 228 325 228 325 228 268 c 0,4,5
 228 213 228 213 253 182 c 128,-1,6
 278 151 278 151 324 138 c 1,7,-1
 324 336 l 2,8,9
 324 449 324 449 378 504.5 c 128,-1,10
 432 560 432 560 544 560 c 0,11,12
 664 560 664 560 734 490 c 128,-1,13
 804 420 804 420 804 295 c 0,14,15
 804 204 804 204 766 140 c 128,-1,16
 728 76 728 76 660.5 40 c 128,-1,17
 593 4 593 4 505 -4 c 1,18,-1
 505 -240 l 1,19,-1
 324 -240 l 1,20,-1
 324 -4 l 1,21,22
 240 2 240 2 176.5 35 c 128,-1,23
 113 68 113 68 77.5 127 c 128,-1,24
 42 186 42 186 42 271 c 0,25,26
 42 360 42 360 71.5 431.5 c 128,-1,27
 101 503 101 503 155 570 c 1,0,-1
547 418 m 0,28,29
 523 418 523 418 514 401 c 128,-1,30
 505 384 505 384 505 343 c 2,31,-1
 505 138 l 1,32,33
 547 142 547 142 570.5 165 c 128,-1,34
 594 188 594 188 604 223 c 128,-1,35
 614 258 614 258 614 294 c 0,36,37
 614 350 614 350 598 384 c 128,-1,38
 582 418 582 418 547 418 c 0,28,29
EndSplineSet
EndChar

StartChar: chi
Encoding: 967 967 403
Width: 646
GlyphClass: 2
Flags: W
AnchorPoint: "Anchor-3" 626 553 basechar 0
AnchorPoint: "Anchor-2" 323 553 basechar 0
AnchorPoint: "Anchor-0" 323 -240 basechar 0
LayerCount: 2
Fore
SplineSet
133 562 m 0,0,1
 185 562 185 562 220.5 548.5 c 128,-1,2
 256 535 256 535 280.5 503.5 c 128,-1,3
 305 472 305 472 325 420 c 2,4,-1
 345 368 l 1,5,-1
 437 553 l 1,6,-1
 636 553 l 1,7,-1
 430 186 l 1,8,-1
 518 -36 l 2,9,10
 528 -61 528 -61 543 -75.5 c 128,-1,11
 558 -90 558 -90 580 -90 c 0,12,13
 589 -90 589 -90 600.5 -89 c 128,-1,14
 612 -88 612 -88 632 -83 c 1,15,-1
 632 -220 l 1,16,17
 604 -230 604 -230 578.5 -235 c 128,-1,18
 553 -240 553 -240 514 -240 c 0,19,20
 449 -240 449 -240 408 -204 c 128,-1,21
 367 -168 367 -168 343 -92 c 2,22,-1
 307 17 l 1,23,-1
 188 -240 l 1,24,-1
 -26 -240 l 1,25,-1
 222 199 l 1,26,-1
 164 352 l 2,27,28
 150 387 150 387 133 399.5 c 128,-1,29
 116 412 116 412 97 412 c 0,30,31
 84 412 84 412 69 410 c 128,-1,32
 54 408 54 408 32 400 c 1,33,-1
 32 543 l 1,34,35
 53 550 53 550 78 556 c 128,-1,36
 103 562 103 562 133 562 c 0,0,1
EndSplineSet
EndChar

StartChar: psi
Encoding: 968 968 404
Width: 894
GlyphClass: 2
Flags: W
AnchorPoint: "Anchor-2" 447 759 basechar 0
AnchorPoint: "Anchor-0" 447 -240 basechar 0
LayerCount: 2
Fore
SplineSet
541 759 m 1,0,-1
 541 142 l 1,1,2
 580 146 580 146 606.5 159 c 128,-1,3
 633 172 633 172 646.5 201 c 128,-1,4
 660 230 660 230 660 283 c 0,5,6
 660 410 660 410 616 553 c 1,7,-1
 800 553 l 1,8,9
 825 477 825 477 835.5 411.5 c 128,-1,10
 846 346 846 346 846 280 c 0,11,12
 846 178 846 178 805.5 116 c 128,-1,13
 765 54 765 54 695.5 25 c 128,-1,14
 626 -4 626 -4 541 -8 c 1,15,-1
 541 -240 l 1,16,-1
 360 -240 l 1,17,-1
 360 -8 l 1,18,19
 272 -5 272 -5 205.5 23 c 128,-1,20
 139 51 139 51 101.5 111.5 c 128,-1,21
 64 172 64 172 64 272 c 2,22,-1
 64 553 l 1,23,-1
 250 553 l 1,24,-1
 250 267 l 2,25,26
 250 220 250 220 263 193.5 c 128,-1,27
 276 167 276 167 301 156 c 128,-1,28
 326 145 326 145 360 142 c 1,29,-1
 360 759 l 1,30,-1
 541 759 l 1,0,-1
EndSplineSet
EndChar

StartChar: omega
Encoding: 969 969 405
Width: 914
GlyphClass: 2
Flags: W
AnchorPoint: "Anchor-2" 460 553 basechar 0
AnchorPoint: "Anchor-0" 457 0 basechar 0
LayerCount: 2
Fore
SplineSet
814 553 m 1,0,1
 841 480 841 480 853.5 415.5 c 128,-1,2
 866 351 866 351 866 269 c 0,3,4
 866 188 866 188 839.5 125 c 128,-1,5
 813 62 813 62 759.5 26 c 128,-1,6
 706 -10 706 -10 625 -10 c 0,7,8
 556 -10 556 -10 518 18 c 128,-1,9
 480 46 480 46 460 102 c 1,10,-1
 454 102 l 1,11,12
 435 48 435 48 396.5 19 c 128,-1,13
 358 -10 358 -10 288 -10 c 0,14,15
 208 -10 208 -10 154.5 26 c 128,-1,16
 101 62 101 62 74.5 125 c 128,-1,17
 48 188 48 188 48 269 c 0,18,19
 48 351 48 351 61 415.5 c 128,-1,20
 74 480 74 480 100 553 c 1,21,-1
 295 553 l 1,22,23
 264 490 264 490 249 419 c 128,-1,24
 234 348 234 348 234 277 c 0,25,26
 234 197 234 197 251.5 167.5 c 128,-1,27
 269 138 269 138 304 138 c 0,28,29
 326 138 326 138 340 147 c 128,-1,30
 354 156 354 156 360 181.5 c 128,-1,31
 366 207 366 207 366 257 c 2,32,-1
 366 391 l 1,33,-1
 548 391 l 1,34,-1
 548 257 l 2,35,36
 548 208 548 208 553.5 182.5 c 128,-1,37
 559 157 559 157 572.5 147.5 c 128,-1,38
 586 138 586 138 610 138 c 0,39,40
 639 138 639 138 654 157 c 128,-1,41
 669 176 669 176 674.5 207 c 128,-1,42
 680 238 680 238 680 274 c 0,43,44
 680 344 680 344 665 417 c 128,-1,45
 650 490 650 490 619 553 c 1,46,-1
 814 553 l 1,0,1
EndSplineSet
EndChar

StartChar: afii10051
Encoding: 1026 1026 412
Width: 828
GlyphClass: 2
Flags: W
AnchorPoint: "Anchor-2" 414 714 basechar 0
AnchorPoint: "Anchor-0" 414 0 basechar 0
LayerCount: 2
Fore
SplineSet
570 -10 m 0,0,1
 545 -10 545 -10 519.5 -7 c 128,-1,2
 494 -4 494 -4 475 4 c 1,3,-1
 475 153 l 1,4,5
 508 138 508 138 541 138 c 0,6,7
 587 138 587 138 587 188 c 2,8,-1
 587 256 l 2,9,10
 587 309 587 309 528 309 c 2,11,-1
 393 309 l 1,12,-1
 393 0 l 1,13,-1
 199 0 l 1,14,-1
 199 556 l 1,15,-1
 25 556 l 1,16,-1
 25 714 l 1,17,-1
 585 714 l 1,18,-1
 585 556 l 1,19,-1
 393 556 l 1,20,-1
 393 467 l 1,21,-1
 533 467 l 2,22,23
 654 467 654 467 717 413.5 c 128,-1,24
 780 360 780 360 780 266 c 2,25,-1
 780 207 l 2,26,27
 780 105 780 105 730.5 47.5 c 128,-1,28
 681 -10 681 -10 570 -10 c 0,0,1
EndSplineSet
EndChar

StartChar: afii10053
Encoding: 1028 1028 414
Width: 670
GlyphClass: 2
Flags: W
AnchorPoint: "Anchor-2" 335 714 basechar 0
AnchorPoint: "Anchor-0" 335 0 basechar 0
LayerCount: 2
Fore
SplineSet
409 564 m 0,0,1
 344 564 344 564 303.5 532 c 128,-1,2
 263 500 263 500 253 429 c 1,3,-1
 536 429 l 1,4,-1
 536 282 l 1,5,-1
 253 282 l 1,6,7
 258 220 258 220 297 185.5 c 128,-1,8
 336 151 336 151 412 151 c 0,9,10
 470 151 470 151 517 162.5 c 128,-1,11
 564 174 564 174 617 193 c 1,12,-1
 617 33 l 1,13,14
 574 14 574 14 517.5 2 c 128,-1,15
 461 -10 461 -10 398 -10 c 0,16,17
 277 -10 277 -10 200.5 35.5 c 128,-1,18
 124 81 124 81 87.5 163 c 128,-1,19
 51 245 51 245 51 355 c 0,20,21
 51 462 51 462 91 545 c 128,-1,22
 131 628 131 628 210 675.5 c 128,-1,23
 289 723 289 723 407 723 c 0,24,25
 478 723 478 723 536.5 706.5 c 128,-1,26
 595 690 595 690 639 670 c 1,27,-1
 577 513 l 1,28,29
 537 536 537 536 499.5 550 c 128,-1,30
 462 564 462 564 409 564 c 0,0,1
EndSplineSet
EndChar

StartChar: afii10058
Encoding: 1033 1033 419
Width: 1031
GlyphClass: 2
Flags: W
AnchorPoint: "Anchor-2" 516 714 basechar 0
AnchorPoint: "Anchor-0" 516 0 basechar 0
LayerCount: 2
Fore
SplineSet
88 -10 m 0,0,1
 66 -10 66 -10 47.5 -7 c 128,-1,2
 29 -4 29 -4 12 1 c 1,3,-1
 12 150 l 1,4,5
 26 146 26 146 37 143 c 128,-1,6
 48 140 48 140 60 140 c 0,7,8
 76 140 76 140 88.5 149.5 c 128,-1,9
 101 159 101 159 112 190 c 128,-1,10
 123 221 123 221 134 286 c 0,11,12
 139 314 139 314 148.5 378 c 128,-1,13
 158 442 158 442 169.5 529 c 128,-1,14
 181 616 181 616 192 714 c 1,15,-1
 665 714 l 1,16,-1
 665 462 l 1,17,-1
 735 462 l 2,18,19
 872 462 872 462 937.5 401 c 128,-1,20
 1003 340 1003 340 1003 242 c 0,21,22
 1003 130 1003 130 927 65 c 128,-1,23
 851 0 851 0 715 0 c 2,24,-1
 472 0 l 1,25,-1
 472 556 l 1,26,-1
 355 556 l 1,27,28
 351 516 351 516 345.5 466 c 128,-1,29
 340 416 340 416 333 363.5 c 128,-1,30
 326 311 326 311 318 262.5 c 128,-1,31
 310 214 310 214 302 178 c 0,32,33
 282 90 282 90 235 40 c 128,-1,34
 188 -10 188 -10 88 -10 c 0,0,1
665 153 m 1,35,-1
 718 153 l 2,36,37
 810 153 810 153 810 233 c 0,38,39
 810 270 810 270 785 289.5 c 128,-1,40
 760 309 760 309 722 309 c 2,41,-1
 665 309 l 1,42,-1
 665 153 l 1,35,-1
EndSplineSet
EndChar

StartChar: afii10059
Encoding: 1034 1034 420
Width: 1009
GlyphClass: 2
Flags: W
AnchorPoint: "Anchor-2" 505 714 basechar 0
AnchorPoint: "Anchor-0" 505 0 basechar 0
LayerCount: 2
Fore
SplineSet
77 0 m 1,0,-1
 77 714 l 1,1,-1
 271 714 l 1,2,-1
 271 461 l 1,3,-1
 448 461 l 1,4,-1
 448 714 l 1,5,-1
 641 714 l 1,6,-1
 641 462 l 1,7,-1
 711 462 l 2,8,9
 848 462 848 462 913.5 401 c 128,-1,10
 979 340 979 340 979 242 c 0,11,12
 979 130 979 130 903 65 c 128,-1,13
 827 0 827 0 691 0 c 2,14,-1
 448 0 l 1,15,-1
 448 306 l 1,16,-1
 271 306 l 1,17,-1
 271 0 l 1,18,-1
 77 0 l 1,0,-1
641 153 m 1,19,-1
 694 153 l 2,20,21
 786 153 786 153 786 233 c 0,22,23
 786 270 786 270 761 289.5 c 128,-1,24
 736 309 736 309 698 309 c 2,25,-1
 641 309 l 1,26,-1
 641 153 l 1,19,-1
EndSplineSet
EndChar

StartChar: afii10060
Encoding: 1035 1035 421
Width: 832
GlyphClass: 2
Flags: W
AnchorPoint: "Anchor-2" 416 714 basechar 0
AnchorPoint: "Anchor-0" 416 0 basechar 0
LayerCount: 2
Fore
SplineSet
585 714 m 1,0,-1
 585 556 l 1,1,-1
 393 556 l 1,2,-1
 393 467 l 1,3,-1
 533 467 l 2,4,5
 654 467 654 467 717 413.5 c 128,-1,6
 780 360 780 360 780 266 c 2,7,-1
 780 0 l 1,8,-1
 587 0 l 1,9,-1
 587 256 l 2,10,11
 587 309 587 309 528 309 c 2,12,-1
 393 309 l 1,13,-1
 393 0 l 1,14,-1
 199 0 l 1,15,-1
 199 556 l 1,16,-1
 25 556 l 1,17,-1
 25 714 l 1,18,-1
 585 714 l 1,0,-1
EndSplineSet
EndChar

StartChar: afii10145
Encoding: 1039 1039 424
Width: 740
GlyphClass: 2
Flags: W
AnchorPoint: "Anchor-2" 370 714 basechar 0
AnchorPoint: "Anchor-0" 370 -222 basechar 0
LayerCount: 2
Fore
SplineSet
663 0 m 1,0,-1
 464 0 l 1,1,-1
 464 -222 l 1,2,-1
 276 -222 l 1,3,-1
 276 0 l 1,4,-1
 77 0 l 1,5,-1
 77 714 l 1,6,-1
 271 714 l 1,7,-1
 271 158 l 1,8,-1
 469 158 l 1,9,-1
 469 714 l 1,10,-1
 663 714 l 1,11,-1
 663 0 l 1,0,-1
EndSplineSet
EndChar

StartChar: afii10018
Encoding: 1041 1041 426
Width: 647
GlyphClass: 2
Flags: W
AnchorPoint: "Anchor-2" 324 714 basechar 0
AnchorPoint: "Anchor-0" 324 0 basechar 0
LayerCount: 2
Fore
SplineSet
77 0 m 1,0,-1
 77 714 l 1,1,-1
 547 714 l 1,2,-1
 547 559 l 1,3,-1
 270 559 l 1,4,-1
 270 462 l 1,5,-1
 340 462 l 2,6,7
 477 462 477 462 542.5 401 c 128,-1,8
 608 340 608 340 608 242 c 0,9,10
 608 130 608 130 532 65 c 128,-1,11
 456 0 456 0 320 0 c 2,12,-1
 77 0 l 1,0,-1
270 153 m 1,13,-1
 323 153 l 2,14,15
 415 153 415 153 415 233 c 0,16,17
 415 270 415 270 389.5 289.5 c 128,-1,18
 364 309 364 309 327 309 c 2,19,-1
 270 309 l 1,20,-1
 270 153 l 1,13,-1
EndSplineSet
EndChar

StartChar: afii10021
Encoding: 1044 1044 429
Width: 814
GlyphClass: 2
Flags: W
AnchorPoint: "Anchor-2" 407 714 basechar 0
AnchorPoint: "Anchor-0" 407 -222 basechar 0
LayerCount: 2
Fore
SplineSet
698 714 m 1,0,-1
 698 158 l 1,1,-1
 796 158 l 1,2,-1
 796 -222 l 1,3,-1
 608 -222 l 1,4,-1
 608 0 l 1,5,-1
 192 0 l 1,6,-1
 192 -222 l 1,7,-1
 4 -222 l 1,8,-1
 4 158 l 1,9,-1
 63 158 l 1,10,11
 130 270 130 270 170.5 414 c 128,-1,12
 211 558 211 558 222 714 c 1,13,-1
 698 714 l 1,0,-1
504 556 m 1,14,-1
 377 556 l 1,15,16
 358 348 358 348 267 158 c 1,17,-1
 504 158 l 1,18,-1
 504 556 l 1,14,-1
EndSplineSet
EndChar

StartChar: afii10024
Encoding: 1046 1046 431
Width: 1026
GlyphClass: 2
Flags: W
AnchorPoint: "Anchor-2" 512 714 basechar 0
AnchorPoint: "Anchor-0" 513 0 basechar 0
LayerCount: 2
Fore
SplineSet
222 373 m 1,0,-1
 14 714 l 1,1,-1
 222 714 l 1,2,-1
 420 368 l 1,3,-1
 420 714 l 1,4,-1
 606 714 l 1,5,-1
 606 368 l 1,6,-1
 805 714 l 1,7,-1
 1013 714 l 1,8,-1
 803 373 l 1,9,-1
 1030 0 l 1,10,-1
 817 0 l 1,11,-1
 606 362 l 1,12,-1
 606 0 l 1,13,-1
 420 0 l 1,14,-1
 420 362 l 1,15,-1
 209 0 l 1,16,-1
 -4 0 l 1,17,-1
 222 373 l 1,0,-1
EndSplineSet
EndChar

StartChar: afii10025
Encoding: 1047 1047 432
Width: 666
GlyphClass: 2
Flags: W
AnchorPoint: "Anchor-2" 330 714 basechar 0
AnchorPoint: "Anchor-0" 333 0 basechar 0
LayerCount: 2
Fore
SplineSet
592 547 m 0,0,1
 592 476 592 476 548.5 433.5 c 128,-1,2
 505 391 505 391 424 377 c 1,3,-1
 424 373 l 1,4,5
 523 365 523 365 571 320 c 128,-1,6
 619 275 619 275 619 204 c 0,7,8
 619 142 619 142 584.5 93.5 c 128,-1,9
 550 45 550 45 483 17.5 c 128,-1,10
 416 -10 416 -10 319 -10 c 0,11,12
 226 -10 226 -10 159 1 c 128,-1,13
 92 12 92 12 47 29 c 1,14,-1
 47 195 l 1,15,16
 76 180 76 180 115.5 169.5 c 128,-1,17
 155 159 155 159 195.5 153.5 c 128,-1,18
 236 148 236 148 269 148 c 0,19,20
 352 148 352 148 386.5 165.5 c 128,-1,21
 421 183 421 183 421 222 c 0,22,23
 421 294 421 294 257 294 c 2,24,-1
 173 294 l 1,25,-1
 173 450 l 1,26,-1
 248 450 l 2,27,28
 310 450 310 450 342 457 c 128,-1,29
 374 464 374 464 386 477.5 c 128,-1,30
 398 491 398 491 398 512 c 0,31,32
 398 538 398 538 374 552 c 128,-1,33
 350 566 350 566 295 566 c 0,34,35
 251 566 251 566 207 554 c 128,-1,36
 163 542 163 542 124 516 c 1,37,-1
 43 649 l 1,38,39
 84 675 84 675 125 691.5 c 128,-1,40
 166 708 166 708 216 716 c 128,-1,41
 266 724 266 724 332 724 c 0,42,43
 412 724 412 724 470.5 701 c 128,-1,44
 529 678 529 678 560.5 638 c 128,-1,45
 592 598 592 598 592 547 c 0,0,1
EndSplineSet
EndChar

StartChar: afii10026
Encoding: 1048 1048 433
Width: 845
GlyphClass: 2
Flags: W
AnchorPoint: "Anchor-2" 445 714 basechar 0
AnchorPoint: "Anchor-0" 423 0 basechar 0
LayerCount: 2
Fore
SplineSet
77 714 m 1,0,-1
 257 714 l 1,1,-1
 257 387 l 2,2,3
 257 343 257 343 255 293.5 c 128,-1,4
 253 244 253 244 249 212 c 1,5,-1
 253 212 l 1,6,-1
 547 714 l 1,7,-1
 768 714 l 1,8,-1
 768 0 l 1,9,-1
 588 0 l 1,10,-1
 588 309 l 2,11,12
 588 336 588 336 589 371.5 c 128,-1,13
 590 407 590 407 592 442 c 128,-1,14
 594 477 594 477 597 502 c 1,15,-1
 593 502 l 1,16,-1
 299 0 l 1,17,-1
 77 0 l 1,18,-1
 77 714 l 1,0,-1
EndSplineSet
EndChar

StartChar: afii10028
Encoding: 1050 1050 435
Width: 697
GlyphClass: 2
Flags: W
AnchorPoint: "Anchor-2" 369 714 basechar 0
AnchorPoint: "Anchor-0" 349 0 basechar 0
LayerCount: 2
Fore
SplineSet
701 0 m 1,0,-1
 483 0 l 1,1,-1
 271 362 l 1,2,-1
 271 0 l 1,3,-1
 77 0 l 1,4,-1
 77 714 l 1,5,-1
 271 714 l 1,6,-1
 271 368 l 1,7,-1
 475 714 l 1,8,-1
 687 714 l 1,9,-1
 467 373 l 1,10,-1
 701 0 l 1,0,-1
EndSplineSet
EndChar

StartChar: afii10029
Encoding: 1051 1051 436
Width: 762
GlyphClass: 2
Flags: W
AnchorPoint: "Anchor-2" 381 714 basechar 0
AnchorPoint: "Anchor-0" 381 0 basechar 0
LayerCount: 2
Fore
SplineSet
685 0 m 1,0,-1
 491 0 l 1,1,-1
 491 556 l 1,2,-1
 355 556 l 1,3,4
 351 516 351 516 345.5 466 c 128,-1,5
 340 416 340 416 333 363.5 c 128,-1,6
 326 311 326 311 318 262.5 c 128,-1,7
 310 214 310 214 302 178 c 0,8,9
 282 90 282 90 235 40 c 128,-1,10
 188 -10 188 -10 88 -10 c 0,11,12
 66 -10 66 -10 47.5 -7 c 128,-1,13
 29 -4 29 -4 12 1 c 1,14,-1
 12 150 l 1,15,16
 26 146 26 146 37 143 c 128,-1,17
 48 140 48 140 60 140 c 0,18,19
 76 140 76 140 88.5 149.5 c 128,-1,20
 101 159 101 159 112 190 c 128,-1,21
 123 221 123 221 134 286 c 0,22,23
 139 314 139 314 148.5 378 c 128,-1,24
 158 442 158 442 169.5 529 c 128,-1,25
 181 616 181 616 192 714 c 1,26,-1
 685 714 l 1,27,-1
 685 0 l 1,0,-1
EndSplineSet
EndChar

StartChar: afii10037
Encoding: 1059 1059 444
Width: 681
GlyphClass: 2
Flags: W
AnchorPoint: "Anchor-2" 353 714 basechar 0
AnchorPoint: "Anchor-0" 341 0 basechar 0
LayerCount: 2
Fore
SplineSet
693 714 m 1,0,-1
 476 213 l 2,1,2
 444 139 444 139 407.5 89.5 c 128,-1,3
 371 40 371 40 315 15 c 128,-1,4
 259 -10 259 -10 169 -10 c 0,5,6
 144 -10 144 -10 109.5 -6.5 c 128,-1,7
 75 -3 75 -3 44 5 c 1,8,-1
 44 166 l 1,9,10
 71 156 71 156 102.5 152 c 128,-1,11
 134 148 134 148 160 148 c 0,12,13
 200 148 200 148 219 166 c 128,-1,14
 238 184 238 184 245 203 c 1,15,-1
 12 714 l 1,16,-1
 220 714 l 1,17,-1
 308 496 l 2,18,19
 315 480 315 480 324.5 455.5 c 128,-1,20
 334 431 334 431 342 406.5 c 128,-1,21
 350 382 350 382 355 363 c 1,22,-1
 361 363 l 1,23,24
 366 386 366 386 376.5 417 c 128,-1,25
 387 448 387 448 397.5 475 c 128,-1,26
 408 502 408 502 412 515 c 2,27,-1
 485 714 l 1,28,-1
 693 714 l 1,0,-1
EndSplineSet
EndChar

StartChar: afii10040
Encoding: 1062 1062 447
Width: 831
GlyphClass: 2
Flags: W
AnchorPoint: "Anchor-2" 416 714 basechar 0
AnchorPoint: "Anchor-0" 416 -222 basechar 0
LayerCount: 2
Fore
SplineSet
813 158 m 1,0,-1
 813 -222 l 1,1,-1
 625 -222 l 1,2,-1
 625 0 l 1,3,-1
 77 0 l 1,4,-1
 77 714 l 1,5,-1
 271 714 l 1,6,-1
 271 158 l 1,7,-1
 469 158 l 1,8,-1
 469 714 l 1,9,-1
 663 714 l 1,10,-1
 663 158 l 1,11,-1
 813 158 l 1,0,-1
EndSplineSet
EndChar

StartChar: afii10041
Encoding: 1063 1063 448
Width: 759
GlyphClass: 2
Flags: W
AnchorPoint: "Anchor-2" 368 714 basechar 0
AnchorPoint: "Anchor-0" 380 0 basechar 0
LayerCount: 2
Fore
SplineSet
682 0 m 1,0,-1
 488 0 l 1,1,-1
 488 264 l 1,2,3
 422 242 422 242 368.5 231.5 c 128,-1,4
 315 221 315 221 267 221 c 0,5,6
 166 221 166 221 109 270.5 c 128,-1,7
 52 320 52 320 52 412 c 2,8,-1
 52 714 l 1,9,-1
 246 714 l 1,10,-1
 246 476 l 2,11,12
 246 428 246 428 265 403.5 c 128,-1,13
 284 379 284 379 334 379 c 0,14,15
 364 379 364 379 403 387 c 128,-1,16
 442 395 442 395 488 412 c 1,17,-1
 488 714 l 1,18,-1
 682 714 l 1,19,-1
 682 0 l 1,0,-1
EndSplineSet
EndChar

StartChar: afii10042
Encoding: 1064 1064 449
Width: 1088
GlyphClass: 2
Flags: W
AnchorPoint: "Anchor-2" 544 714 basechar 0
AnchorPoint: "Anchor-0" 544 0 basechar 0
LayerCount: 2
Fore
SplineSet
1011 0 m 1,0,-1
 77 0 l 1,1,-1
 77 714 l 1,2,-1
 271 714 l 1,3,-1
 271 158 l 1,4,-1
 449 158 l 1,5,-1
 449 714 l 1,6,-1
 639 714 l 1,7,-1
 639 158 l 1,8,-1
 817 158 l 1,9,-1
 817 714 l 1,10,-1
 1011 714 l 1,11,-1
 1011 0 l 1,0,-1
EndSplineSet
EndChar

StartChar: afii10043
Encoding: 1065 1065 450
Width: 1179
GlyphClass: 2
Flags: W
AnchorPoint: "Anchor-2" 590 714 basechar 0
AnchorPoint: "Anchor-0" 590 0 basechar 0
LayerCount: 2
Fore
SplineSet
1161 158 m 1,0,-1
 1161 -222 l 1,1,-1
 973 -222 l 1,2,-1
 973 0 l 1,3,-1
 77 0 l 1,4,-1
 77 714 l 1,5,-1
 271 714 l 1,6,-1
 271 158 l 1,7,-1
 449 158 l 1,8,-1
 449 714 l 1,9,-1
 639 714 l 1,10,-1
 639 158 l 1,11,-1
 817 158 l 1,12,-1
 817 714 l 1,13,-1
 1011 714 l 1,14,-1
 1011 158 l 1,15,-1
 1161 158 l 1,0,-1
EndSplineSet
EndChar

StartChar: afii10044
Encoding: 1066 1066 451
Width: 765
GlyphClass: 2
Flags: W
AnchorPoint: "Anchor-2" 383 714 basechar 0
AnchorPoint: "Anchor-0" 383 0 basechar 0
LayerCount: 2
Fore
SplineSet
200 0 m 1,0,-1
 200 556 l 1,1,-1
 25 556 l 1,2,-1
 25 714 l 1,3,-1
 393 714 l 1,4,-1
 393 462 l 1,5,-1
 463 462 l 2,6,7
 600 462 600 462 665.5 401 c 128,-1,8
 731 340 731 340 731 242 c 0,9,10
 731 130 731 130 655 65 c 128,-1,11
 579 0 579 0 443 0 c 2,12,-1
 200 0 l 1,0,-1
393 153 m 1,13,-1
 446 153 l 2,14,15
 538 153 538 153 538 233 c 0,16,17
 538 270 538 270 513 289.5 c 128,-1,18
 488 309 488 309 450 309 c 2,19,-1
 393 309 l 1,20,-1
 393 153 l 1,13,-1
EndSplineSet
EndChar

StartChar: afii10045
Encoding: 1067 1067 452
Width: 923
GlyphClass: 2
Flags: W
AnchorPoint: "Anchor-2" 457 714 basechar 0
AnchorPoint: "Anchor-0" 462 0 basechar 0
LayerCount: 2
Fore
SplineSet
77 0 m 1,0,-1
 77 714 l 1,1,-1
 270 714 l 1,2,-1
 270 462 l 1,3,-1
 334 462 l 2,4,5
 471 462 471 462 536.5 401 c 128,-1,6
 602 340 602 340 602 242 c 0,7,8
 602 130 602 130 526 65 c 128,-1,9
 450 0 450 0 314 0 c 2,10,-1
 77 0 l 1,0,-1
652 0 m 1,11,-1
 652 714 l 1,12,-1
 846 714 l 1,13,-1
 846 0 l 1,14,-1
 652 0 l 1,11,-1
270 153 m 1,15,-1
 317 153 l 2,16,17
 409 153 409 153 409 233 c 0,18,19
 409 270 409 270 383.5 289.5 c 128,-1,20
 358 309 358 309 321 309 c 2,21,-1
 270 309 l 1,22,-1
 270 153 l 1,15,-1
EndSplineSet
EndChar

StartChar: afii10046
Encoding: 1068 1068 453
Width: 642
GlyphClass: 2
Flags: W
AnchorPoint: "Anchor-2" 321 714 basechar 0
AnchorPoint: "Anchor-0" 321 0 basechar 0
LayerCount: 2
Fore
SplineSet
77 0 m 1,0,-1
 77 714 l 1,1,-1
 270 714 l 1,2,-1
 270 462 l 1,3,-1
 340 462 l 2,4,5
 477 462 477 462 542.5 401 c 128,-1,6
 608 340 608 340 608 242 c 0,7,8
 608 130 608 130 532 65 c 128,-1,9
 456 0 456 0 320 0 c 2,10,-1
 77 0 l 1,0,-1
270 153 m 1,11,-1
 323 153 l 2,12,13
 415 153 415 153 415 233 c 0,14,15
 415 270 415 270 389.5 289.5 c 128,-1,16
 364 309 364 309 327 309 c 2,17,-1
 270 309 l 1,18,-1
 270 153 l 1,11,-1
EndSplineSet
EndChar

StartChar: afii10047
Encoding: 1069 1069 454
Width: 670
GlyphClass: 2
Flags: W
AnchorPoint: "Anchor-2" 273 714 basechar 0
AnchorPoint: "Anchor-0" 335 0 basechar 0
LayerCount: 2
Fore
SplineSet
261 564 m 0,0,1
 208 564 208 564 168.5 550 c 128,-1,2
 129 536 129 536 89 513 c 1,3,-1
 34 666 l 1,4,5
 78 688 78 688 140 705.5 c 128,-1,6
 202 723 202 723 273 723 c 0,7,8
 391 723 391 723 467.5 680.5 c 128,-1,9
 544 638 544 638 581.5 560 c 128,-1,10
 619 482 619 482 619 375 c 0,11,12
 619 265 619 265 581.5 178 c 128,-1,13
 544 91 544 91 466 40.5 c 128,-1,14
 388 -10 388 -10 267 -10 c 0,15,16
 204 -10 204 -10 150 0.5 c 128,-1,17
 96 11 96 11 53 27 c 1,18,-1
 53 193 l 1,19,20
 106 174 106 174 153 162.5 c 128,-1,21
 200 151 200 151 258 151 c 0,22,23
 334 151 334 151 373 185.5 c 128,-1,24
 412 220 412 220 417 282 c 1,25,-1
 134 282 l 1,26,-1
 134 429 l 1,27,-1
 417 429 l 1,28,29
 407 500 407 500 366.5 532 c 128,-1,30
 326 564 326 564 261 564 c 0,0,1
EndSplineSet
EndChar

StartChar: afii10048
Encoding: 1070 1070 455
Width: 1076
GlyphClass: 2
Flags: W
AnchorPoint: "Anchor-2" 538 714 basechar 0
AnchorPoint: "Anchor-0" 538 0 basechar 0
LayerCount: 2
Fore
SplineSet
1024 358 m 256,0,1
 1024 247 1024 247 991 164.5 c 128,-1,2
 958 82 958 82 886.5 36 c 128,-1,3
 815 -10 815 -10 701 -10 c 0,4,5
 601 -10 601 -10 535.5 27 c 128,-1,6
 470 64 470 64 434.5 131.5 c 128,-1,7
 399 199 399 199 390 291 c 1,8,-1
 271 291 l 1,9,-1
 271 0 l 1,10,-1
 77 0 l 1,11,-1
 77 714 l 1,12,-1
 271 714 l 1,13,-1
 271 449 l 1,14,-1
 393 449 l 1,15,16
 410 576 410 576 484 650.5 c 128,-1,17
 558 725 558 725 702 725 c 0,18,19
 816 725 816 725 887 679.5 c 128,-1,20
 958 634 958 634 991 551.5 c 128,-1,21
 1024 469 1024 469 1024 358 c 256,0,1
581 358 m 256,22,23
 581 261 581 261 608.5 206 c 128,-1,24
 636 151 636 151 701 151 c 0,25,26
 767 151 767 151 794 206 c 128,-1,27
 821 261 821 261 821 358 c 256,28,29
 821 455 821 455 794 511 c 128,-1,30
 767 567 767 567 702 567 c 0,31,32
 636 567 636 567 608.5 511 c 128,-1,33
 581 455 581 455 581 358 c 256,22,23
EndSplineSet
EndChar

StartChar: afii10049
Encoding: 1071 1071 456
Width: 679
GlyphClass: 2
Flags: W
AnchorPoint: "Anchor-2" 340 714 basechar 0
AnchorPoint: "Anchor-0" 340 0 basechar 0
LayerCount: 2
Fore
SplineSet
350 260 m 1,0,-1
 209 0 l 1,1,-1
 -10 0 l 1,2,-1
 186 312 l 1,3,4
 142 337 142 337 108 383.5 c 128,-1,5
 74 430 74 430 74 503 c 0,6,7
 74 714 74 714 365 714 c 2,8,-1
 602 714 l 1,9,-1
 602 0 l 1,10,-1
 409 0 l 1,11,-1
 409 260 l 1,12,-1
 350 260 l 1,0,-1
409 568 m 1,13,-1
 368 568 l 2,14,15
 328 568 328 568 306.5 556.5 c 128,-1,16
 285 545 285 545 277 528 c 128,-1,17
 269 511 269 511 269 494 c 0,18,19
 269 444 269 444 297.5 424.5 c 128,-1,20
 326 405 326 405 373 405 c 2,21,-1
 409 405 l 1,22,-1
 409 568 l 1,13,-1
EndSplineSet
EndChar

StartChar: afii10066
Encoding: 1073 1073 458
Width: 652
GlyphClass: 2
Flags: W
AnchorPoint: "Anchor-2" 326 769 basechar 0
AnchorPoint: "Anchor-0" 326 0 basechar 0
LayerCount: 2
Fore
SplineSet
43 331 m 0,0,1
 43 450 43 450 74.5 536.5 c 128,-1,2
 106 623 106 623 181 675.5 c 128,-1,3
 256 728 256 728 387 747 c 0,4,5
 480 760 480 760 591 769 c 1,6,-1
 609 611 l 1,7,8
 559 607 559 607 499.5 600.5 c 128,-1,9
 440 594 440 594 395 589 c 0,10,11
 327 581 327 581 293 561.5 c 128,-1,12
 259 542 259 542 247 511 c 128,-1,13
 235 480 235 480 232 436 c 1,14,-1
 240 436 l 1,15,16
 254 463 254 463 292 489.5 c 128,-1,17
 330 516 330 516 390 516 c 0,18,19
 452 516 452 516 500.5 491.5 c 128,-1,20
 549 467 549 467 577.5 414.5 c 128,-1,21
 606 362 606 362 606 278 c 0,22,23
 606 182 606 182 570 118 c 128,-1,24
 534 54 534 54 470 22 c 128,-1,25
 406 -10 406 -10 323 -10 c 0,26,27
 238 -10 238 -10 175 29.5 c 128,-1,28
 112 69 112 69 77.5 145.5 c 128,-1,29
 43 222 43 222 43 331 c 0,0,1
333 132 m 256,30,31
 368 132 368 132 390 160.5 c 128,-1,32
 412 189 412 189 412 257 c 0,33,34
 412 310 412 310 396 345 c 128,-1,35
 380 380 380 380 340 380 c 0,36,37
 317 380 317 380 295.5 367.5 c 128,-1,38
 274 355 274 355 258 338.5 c 128,-1,39
 242 322 242 322 237 311 c 1,40,41
 237 269 237 269 246.5 227.5 c 128,-1,42
 256 186 256 186 277 159 c 128,-1,43
 298 132 298 132 333 132 c 256,30,31
EndSplineSet
Substitution2: "'locl' Localized Forms in Cyrillic lookup 17 subtable" afii10066.loclSRB
EndChar

StartChar: afii10067
Encoding: 1074 1074 459
Width: 629
GlyphClass: 2
Flags: W
AnchorPoint: "Anchor-2" 315 553 basechar 0
AnchorPoint: "Anchor-0" 315 0 basechar 0
LayerCount: 2
Fore
SplineSet
578 410 m 0,0,1
 578 366 578 366 552 332.5 c 128,-1,2
 526 299 526 299 472 290 c 1,3,-1
 472 286 l 1,4,5
 531 279 531 279 563 245 c 128,-1,6
 595 211 595 211 595 158 c 0,7,8
 595 117 595 117 573 80.5 c 128,-1,9
 551 44 551 44 494.5 22 c 128,-1,10
 438 0 438 0 337 0 c 2,11,-1
 66 0 l 1,12,-1
 66 553 l 1,13,-1
 338 553 l 2,14,15
 463 553 463 553 520.5 516.5 c 128,-1,16
 578 480 578 480 578 410 c 0,0,1
388 385 m 0,17,18
 388 428 388 428 335 428 c 2,19,-1
 257 428 l 1,20,-1
 257 345 l 1,21,-1
 328 345 l 2,22,23
 358 345 358 345 373 356.5 c 128,-1,24
 388 368 388 368 388 385 c 0,17,18
401 177 m 0,25,26
 401 198 401 198 387 211.5 c 128,-1,27
 373 225 373 225 333 225 c 2,28,-1
 257 225 l 1,29,-1
 257 125 l 1,30,-1
 331 125 l 2,31,32
 368 125 368 125 384.5 139.5 c 128,-1,33
 401 154 401 154 401 177 c 0,25,26
EndSplineSet
EndChar

StartChar: afii10068
Encoding: 1075 1075 460
Width: 501
GlyphClass: 2
Flags: W
AnchorPoint: "Anchor-2" 268 553 basechar 0
AnchorPoint: "Anchor-0" 251 0 basechar 0
LayerCount: 2
Fore
SplineSet
477 553 m 1,0,-1
 477 411 l 1,1,-1
 257 411 l 1,2,-1
 257 0 l 1,3,-1
 66 0 l 1,4,-1
 66 553 l 1,5,-1
 477 553 l 1,0,-1
EndSplineSet
EndChar

StartChar: afii10069
Encoding: 1076 1076 461
Width: 697
GlyphClass: 2
Flags: W
AnchorPoint: "Anchor-2" 349 553 basechar 0
AnchorPoint: "Anchor-0" 349 -203 basechar 0
LayerCount: 2
Fore
SplineSet
603 553 m 1,0,-1
 603 142 l 1,1,-1
 685 142 l 1,2,-1
 685 -203 l 1,3,-1
 518 -203 l 1,4,-1
 518 0 l 1,5,-1
 179 0 l 1,6,-1
 179 -203 l 1,7,-1
 12 -203 l 1,8,-1
 12 142 l 1,9,-1
 61 142 l 1,10,11
 104 216 104 216 133 325 c 128,-1,12
 162 434 162 434 173 553 c 1,13,-1
 603 553 l 1,0,-1
412 411 m 1,14,-1
 320 411 l 1,15,16
 310 340 310 340 294.5 276.5 c 128,-1,17
 279 213 279 213 252 142 c 1,18,-1
 412 142 l 1,19,-1
 412 411 l 1,14,-1
EndSplineSet
EndChar

StartChar: afii10072
Encoding: 1078 1078 463
Width: 970
GlyphClass: 2
Flags: W
AnchorPoint: "Anchor-2" 483 553 basechar 0
AnchorPoint: "Anchor-0" 485 0 basechar 0
LayerCount: 2
Fore
SplineSet
955 553 m 1,0,-1
 768 290 l 1,1,-1
 974 0 l 1,2,-1
 766 0 l 1,3,-1
 578 281 l 1,4,-1
 578 0 l 1,5,-1
 392 0 l 1,6,-1
 392 281 l 1,7,-1
 204 0 l 1,8,-1
 -4 0 l 1,9,-1
 202 290 l 1,10,-1
 15 553 l 1,11,-1
 220 553 l 1,12,-1
 392 285 l 1,13,-1
 392 553 l 1,14,-1
 578 553 l 1,15,-1
 578 285 l 1,16,-1
 750 553 l 1,17,-1
 955 553 l 1,0,-1
EndSplineSet
EndChar

StartChar: afii10073
Encoding: 1079 1079 464
Width: 544
GlyphClass: 2
Flags: W
AnchorPoint: "Anchor-2" 262 553 basechar 0
AnchorPoint: "Anchor-0" 272 0 basechar 0
LayerCount: 2
Fore
SplineSet
245 563 m 0,0,1
 313 563 313 563 368.5 548 c 128,-1,2
 424 533 424 533 457 500.5 c 128,-1,3
 490 468 490 468 490 413 c 0,4,5
 490 368 490 368 462.5 336 c 128,-1,6
 435 304 435 304 390 292 c 1,7,-1
 390 287 l 1,8,9
 456 278 456 278 484.5 241.5 c 128,-1,10
 513 205 513 205 513 157 c 0,11,12
 513 77 513 77 446.5 33.5 c 128,-1,13
 380 -10 380 -10 236 -10 c 0,14,15
 186 -10 186 -10 151 -6 c 128,-1,16
 116 -2 116 -2 89 5 c 128,-1,17
 62 12 62 12 35 21 c 1,18,-1
 35 167 l 1,19,20
 68 156 68 156 115.5 144 c 128,-1,21
 163 132 163 132 225 132 c 0,22,23
 268 132 268 132 288.5 140 c 128,-1,24
 309 148 309 148 315.5 159 c 128,-1,25
 322 170 322 170 322 179 c 0,26,27
 322 194 322 194 314.5 204 c 128,-1,28
 307 214 307 214 284 219.5 c 128,-1,29
 261 225 261 225 215 225 c 2,30,-1
 143 225 l 1,31,-1
 143 349 l 1,32,-1
 203 349 l 2,33,34
 262 349 262 349 286 359 c 128,-1,35
 310 369 310 369 310 390 c 0,36,37
 310 407 310 407 293 417 c 128,-1,38
 276 427 276 427 237 427 c 0,39,40
 197 427 197 427 162 418 c 128,-1,41
 127 409 127 409 89 392 c 1,42,-1
 35 521 l 1,43,44
 84 542 84 542 133.5 552.5 c 128,-1,45
 183 563 183 563 245 563 c 0,0,1
EndSplineSet
EndChar

StartChar: afii10074
Encoding: 1080 1080 465
Width: 716
GlyphClass: 2
Flags: W
AnchorPoint: "Anchor-2" 361 553 basechar 0
AnchorPoint: "Anchor-0" 358 0 basechar 0
LayerCount: 2
Fore
SplineSet
240 553 m 1,0,-1
 240 338 l 2,1,2
 240 304 240 304 237.5 266.5 c 128,-1,3
 235 229 235 229 233 199 c 1,4,-1
 442 553 l 1,5,-1
 650 553 l 1,6,-1
 650 0 l 1,7,-1
 476 0 l 1,8,-1
 476 200 l 2,9,10
 476 239 476 239 477.5 281.5 c 128,-1,11
 479 324 479 324 483 356 c 1,12,-1
 272 0 l 1,13,-1
 66 0 l 1,14,-1
 66 553 l 1,15,-1
 240 553 l 1,0,-1
EndSplineSet
EndChar

